<?xml version="1.0" standalone="no"?>
<!DOCTYPE svg PUBLIC "-//W3C//DTD SVG 1.1//EN" "http://www.w3.org/Graphics/SVG/1.1/DTD/svg11.dtd" >
<svg xmlns="http://www.w3.org/2000/svg" xmlns:xlink="http://www.w3.org/1999/xlink" version="1.1">
<metadata>
Created by FontForge 20170731 at Mon Jan 16 19:14:17 2023
 By Aleksey,,,
Copyright (c) 2019 by Roger Gaillard. All rights reserved.
</metadata>
<defs>
<font id="ESRebondGrotesque-MediumItalic" horiz-adv-x="0" >
  <font-face 
    font-family="ES Rebond Grotesque Medium"
    font-weight="500"
    font-style="italic"
    font-stretch="normal"
    units-per-em="2048"
    panose-1="0 0 6 0 0 0 0 0 0 0"
    ascent="1638"
    descent="-410"
    x-height="1024"
    cap-height="1434"
    bbox="-1004 -492 2640 2071.89"
    underline-thickness="102"
    underline-position="-307"
    slope="-10"
    unicode-range="U+0020-1F169"
  />
<missing-glyph horiz-adv-x="1050" 
d="M344 1434l-254 -1434h686l254 1434h-686zM727 61h-563l229 1311h563z" />
    <glyph glyph-name="fi" unicode="fi" horiz-adv-x="1191" 
d="M1180 1024l-181 -1024h-190l152 860h-457l-152 -860h-190l149 860h-223l29 164h223l8 43q32 183 155 287t298 104q89 0 158 -27.5t105 -73.5t45.5 -106.5t-19.5 -126.5h-199q37 84 1 126t-112 42q-98 0 -160 -64t-83 -179l-5 -25h648z" />
    <glyph glyph-name="fl" unicode="fl" horiz-adv-x="1220" 
d="M117 1024h225l18 111q28 154 120 238.5t229 84.5q100 0 157.5 -41.5t64 -111t-27.5 -160.5h-168q30 77 16.5 117.5t-63.5 40.5q-106 0 -139 -181l-17 -98h340l-26 -164h-342l-152 -860h-190l151 860h-225zM999 0h-190l254 1434h190z" />
    <glyph glyph-name="f_f" unicode="ff" horiz-adv-x="1484" 
d="M352 0h-190l151 860h-225l29 164h225l18 111q28 154 120 238.5t229 84.5q100 0 157.5 -41.5t64 -111t-27.5 -160.5h-168q30 77 16.5 117.5t-63.5 40.5q-106 0 -139 -181l-17 -98h457l21 111q30 157 119 240t233 83q151 0 207.5 -88.5t3.5 -224.5h-172q30 77 16 117.5
t-67 40.5q-60 0 -100 -48.5t-54 -132.5l-16 -98h362l-29 -164h-362l-152 -860h-190l152 860h-457z" />
    <glyph glyph-name="f_f_i" unicode="ffi" horiz-adv-x="1839" 
d="M1827 1024l-180 -1024h-191l152 860h-459l-152 -860h-190l151 860h-454l-154 -860h-190l153 860h-225l29 164h225l18 111q26 154 118.5 238.5t228.5 84.5q101 0 159 -41.5t64.5 -111t-27.5 -160.5h-170q31 77 18.5 117.5t-63.5 40.5q-109 0 -139 -181l-17 -98h455l8 43
q32 183 154 287t297 104q181 0 263.5 -99.5t27.5 -234.5h-199q36 85 0 126.5t-113 41.5q-97 0 -159.5 -64.5t-83.5 -178.5l-4 -25h649z" />
    <glyph glyph-name="f_f_l" unicode="ffl" horiz-adv-x="1869" 
d="M352 0h-190l151 860h-225l29 164h225l18 111q28 154 120 238.5t229 84.5q100 0 157.5 -41.5t64 -111t-27.5 -160.5h-168q30 77 16.5 117.5t-63.5 40.5q-54 0 -89.5 -48.5t-49.5 -132.5l-17 -98h457l21 111q29 155 119 239t227 84q100 0 157.5 -41.5t64 -111t-27.5 -160.5
h-170q31 77 18.5 117.5t-63.5 40.5q-54 0 -89.5 -48.5t-49.5 -132.5l-16 -98h340l-27 -164h-342l-152 -860h-190l152 860h-457zM1649 0h-191l254 1434h191z" />
    <glyph glyph-name="f_t.liga" unicode="ft" horiz-adv-x="1452" 
d="M352 0h-190l151 860h-225l29 164h225l20 111q28 154 119.5 238.5t227.5 84.5q101 0 159 -41.5t64.5 -111t-27.5 -160.5h-170q31 77 18.5 117.5t-63.5 40.5q-106 0 -139 -181l-19 -98h457l49 274h191l-49 -274h295l-29 -164h-295l-102 -577q-26 -140 100 -140q71 0 147 45
l-18 -170q-61 -41 -170 -41q-59 0 -105 14.5t-73 36t-44.5 53t-24 60.5t-7 63.5t1.5 56t6 44.5l99 555h-457z" />
    <glyph glyph-name="t_t.liga" unicode="tt" horiz-adv-x="1449" 
d="M1444 860h-297l-100 -577q-26 -140 98 -140q73 0 149 45l-18 -170q-64 -41 -170 -41q-60 0 -106 14.5t-73 36t-44 53.5t-23.5 60t-7.5 63.5t1.5 56t6.5 44.5l96 555h-456l-103 -577q-2 -16 -3 -26t-0.5 -29t6.5 -31.5t16.5 -26t31.5 -20.5t50 -7q70 0 149 45l-20 -170
q-61 -41 -170 -41q-59 0 -105 14t-73 36t-44 53.5t-23.5 60.5t-7.5 63.5t2 56.5t7 44l96 555h-194l28 164h197l47 274h191l-50 -274h459l47 274h191l-49 -274h297z" />
    <glyph glyph-name=".notdef" horiz-adv-x="1050" 
d="M344 1434l-254 -1434h686l254 1434h-686zM727 61h-563l229 1311h563z" />
    <glyph glyph-name=".null" 
 />
    <glyph glyph-name="nonmarkingreturn" horiz-adv-x="682" 
 />
    <glyph glyph-name="space" unicode=" " horiz-adv-x="514" 
 />
    <glyph glyph-name="exclam" unicode="!" horiz-adv-x="532" 
d="M317 408h-137l142 1026h215zM184 -20q-51 0 -83.5 33.5t-32.5 86.5q0 56 40.5 93.5t96.5 37.5q52 0 83 -32t31 -82q0 -59 -39.5 -98t-95.5 -39z" />
    <glyph glyph-name="quotedbl" unicode="&#x22;" horiz-adv-x="892" 
d="M408 958h-125l59 476h176zM766 958h-125l57 476h176z" />
    <glyph glyph-name="numbersign" unicode="#" horiz-adv-x="1224" 
d="M1286 1042l-29 -161h-256l-102 -326h236l-29 -162h-258l-123 -393h-178l123 393h-273l-123 -393h-178l123 393h-209l29 162h231l103 326h-221l28 161h244l123 392h178l-123 -392h272l123 392h177l-123 -392h235zM449 555h272l102 326h-272z" />
    <glyph glyph-name="dollar" unicode="$" horiz-adv-x="1411" 
d="M1315 956h-203q44 143 -17 230t-208 102l-86 -489q88 -21 134.5 -33.5t119 -43t109.5 -66t66.5 -96t29.5 -138.5q0 -140 -82 -242t-217 -152.5t-306 -52.5l-34 -200h-89l35 202q-256 17 -375.5 153t-66.5 351h201q-31 -155 41.5 -240.5t230.5 -97.5l88 502
q-60 13 -94.5 22t-88 26t-86 34t-70.5 45t-59 60t-35.5 77t-14.5 99q0 133 78.5 235.5t212.5 157.5t300 57l23 129h88l-22 -131q244 -20 353.5 -157.5t43.5 -342.5zM446 1034q0 -47 20 -83t60 -61t84 -40.5t107 -30.5l84 473q-153 -6 -254 -76.5t-101 -181.5zM1053 401
q0 50 -21 87.5t-63.5 63.5t-87 42t-111.5 33l-84 -486q163 6 265 76t102 184z" />
    <glyph glyph-name="percent" unicode="%" horiz-adv-x="1953" 
d="M512 -66h-156l1149 1524h156zM520 672q-146 0 -230.5 88t-84.5 231q0 174 118.5 296t297.5 122q149 0 233 -87t84 -230q0 -175 -120.5 -297.5t-297.5 -122.5zM532 799q112 0 184 84t72 202q0 90 -46.5 143.5t-133.5 53.5q-112 0 -182 -86t-70 -205q0 -89 45.5 -140.5
t130.5 -51.5zM1397 -16q-146 0 -231 88t-85 231q0 174 118.5 296t297.5 122q149 0 233.5 -87.5t84.5 -230.5q0 -175 -120.5 -297t-297.5 -122zM1409 111q112 0 184 84t72 202q0 90 -47 143.5t-133 53.5q-112 0 -182 -86t-70 -205q0 -89 45.5 -140.5t130.5 -51.5z" />
    <glyph glyph-name="ampersand" unicode="&#x26;" horiz-adv-x="1384" 
d="M1262 0h-230q-78 70 -112 104q-201 -127 -441 -127q-194 0 -309 92t-115 244q0 75 29 141t84.5 120t115.5 95t142 85q-68 157 -68 276q0 120 62.5 217.5t165 150t221.5 52.5q143 0 227 -76.5t84 -202.5q0 -38 -9.5 -74t-22.5 -65.5t-39.5 -60.5t-48 -53.5t-60.5 -50
t-64.5 -44.5t-73 -43t-73 -39l-76.5 -39q99 -171 287 -380q87 97 124.5 225.5t16.5 269.5h162q27 -190 -26 -344.5t-166 -267.5q135 -135 213 -205zM543 1028q0 -85 43 -192q66 33 109 57t92.5 57.5t78.5 64t48.5 69t19.5 79.5q0 60 -37 95.5t-109 35.5q-106 0 -175.5 -74
t-69.5 -192zM248 326q0 -88 64.5 -136.5t195.5 -48.5q160 0 299 76q-196 205 -311 404q-120 -68 -184 -136.5t-64 -158.5z" />
    <glyph glyph-name="quotesingle" unicode="'" horiz-adv-x="536" 
d="M408 958h-125l59 476h176z" />
    <glyph glyph-name="parenleft" unicode="(" horiz-adv-x="702" 
d="M410 -270h-183q-99 199 -134 420.5t3 459.5q39 223 152 448t278 417h197q-163 -208 -277.5 -438t-152.5 -451q-36 -226 -4 -448.5t121 -407.5z" />
    <glyph glyph-name="parenright" unicode=")" horiz-adv-x="702" 
d="M291 1475h184q64 -131 102 -273.5t47.5 -298.5t-18.5 -309q-39 -222 -152.5 -447t-279.5 -417h-197q164 207 278.5 436.5t154.5 451.5q36 227 3 449t-122 408z" />
    <glyph glyph-name="asterisk" unicode="*" horiz-adv-x="866" 
d="M641 1106q24 -101 121 -195l-96 -82q-102 102 -138 232q-71 -127 -215 -232l-84 82q132 99 193 199q-131 17 -223 64l51 102q94 -44 223 -57q28 71 59 235h123q-24 -141 -24 -233q135 16 235 59l35 -106q-103 -49 -260 -68z" />
    <glyph glyph-name="plus" unicode="+" horiz-adv-x="1372" 
d="M696 113h-161l79 454h-440l25 148h442l78 444h162l-78 -444h442l-26 -148h-443z" />
    <glyph glyph-name="comma" unicode="," horiz-adv-x="491" 
d="M313 51q1 -124 -91 -225.5t-232 -130.5l18 108q79 22 135 81t70 134q-31 -22 -74 -22q-51 0 -82.5 32t-31.5 83q0 55 39.5 91t97.5 36q67 0 108 -52t43 -135z" />
    <glyph glyph-name="hyphen" unicode="-" horiz-adv-x="620" 
d="M551 455h-500l31 168h498z" />
    <glyph glyph-name="period" unicode="." horiz-adv-x="440" 
d="M139 -20q-51 0 -83.5 33.5t-32.5 86.5q0 56 39.5 93.5t95.5 37.5q52 0 84 -32t32 -82q0 -59 -40 -98t-95 -39z" />
    <glyph glyph-name="slash" unicode="/" horiz-adv-x="856" 
d="M199 -37h-213l749 1532h213z" />
    <glyph glyph-name="zero" unicode="0" horiz-adv-x="1435" 
d="M653 -25q-238 0 -374 156.5t-136 443.5q0 134 30 262.5t91 240.5t145 197t199.5 134t247.5 49q237 0 374.5 -155.5t137.5 -442.5q0 -135 -31 -264.5t-92 -241.5t-145.5 -196.5t-200 -133.5t-246.5 -49zM659 145q115 0 212.5 65t160 169.5t97 232.5t34.5 258
q0 200 -80.5 309t-234.5 109q-116 0 -213 -65t-158.5 -170.5t-95 -232.5t-33.5 -257q0 -199 79.5 -308.5t231.5 -109.5z" />
    <glyph glyph-name="one" unicode="1" horiz-adv-x="884" 
d="M657 1434h209l-254 -1434h-198l200 1135q-103 -131 -241 -217t-293 -115l29 178q174 31 323.5 160.5t224.5 292.5z" />
    <glyph glyph-name="two" unicode="2" horiz-adv-x="1296" 
d="M1253 1028q0 -88 -26 -170.5t-69.5 -152t-110 -135.5t-139 -119t-165 -106.5t-179 -95t-189.5 -85.5h768l-29 -164h-1087l28 164q120 51 211.5 93t200 99t187.5 108.5t157 117.5t127 131.5t79 143.5t30 161q0 128 -71.5 199t-195.5 71q-164 0 -270.5 -118t-106.5 -296
q0 -119 58 -237h-205q-55 137 -55 254q0 120 45.5 225.5t124.5 180.5t189.5 118t236.5 43q209 0 332.5 -113.5t123.5 -316.5z" />
    <glyph glyph-name="three" unicode="3" horiz-adv-x="1314" 
d="M958 756q110 -44 168 -126t58 -192q0 -103 -49.5 -191t-133.5 -147t-194.5 -92t-231.5 -33q-177 0 -300.5 69t-164 187t8.5 275h209q-57 -160 18.5 -260.5t247.5 -100.5q160 0 269.5 84.5t109.5 214.5q0 110 -80 174t-223 64h-125l26 149h113q148 0 247 75.5t99 189.5
q0 89 -67 140.5t-181 51.5q-152 0 -241 -87t-78 -210h-205q-10 135 59.5 242.5t196 166t283.5 58.5q198 0 320 -95.5t122 -252.5q0 -124 -75.5 -214.5t-205.5 -139.5z" />
    <glyph glyph-name="four" unicode="4" horiz-adv-x="1296" 
d="M1004 506h249l-28 -164h-248l-62 -342h-200l61 342h-762l27 170q582 415 877 922h251zM803 506l117 651q-235 -348 -621 -651h504z" />
    <glyph glyph-name="five" unicode="5" horiz-adv-x="1294" 
d="M1266 1434l-31 -164h-684q-52 -212 -113 -363q128 86 305 86q108 0 192.5 -33.5t137 -93.5t80 -138.5t27.5 -172.5q0 -168 -80 -301t-221 -206t-316 -73q-103 0 -190 26.5t-146 74t-95 113t-37.5 143t26.5 164.5h209q-54 -150 19 -250.5t229 -100.5q171 0 283 118.5
t112 283.5q0 129 -73 208t-214 79q-188 0 -330 -142l-184 80q72 139 132.5 317t90.5 345h871z" />
    <glyph glyph-name="six" unicode="6" horiz-adv-x="1337" 
d="M1264 1006h-209q53 123 -1 202.5t-186 79.5q-190 0 -331 -165.5t-177 -440.5q68 106 181 167.5t258 61.5q196 0 307 -110t111 -291q0 -154 -78 -277.5t-209 -190.5t-289 -67q-239 0 -370.5 157.5t-131.5 432.5q0 174 52.5 335t147.5 285t238.5 198.5t313.5 74.5
q117 0 207 -35t138 -96.5t59 -144t-31 -176.5zM743 741q-153 0 -258.5 -101t-105.5 -241q0 -114 72.5 -184t195.5 -70q151 0 257 101t106 243q0 116 -73 184t-194 68z" />
    <glyph glyph-name="seven" unicode="7" horiz-adv-x="1138" 
d="M180 1270l29 164h1022l-25 -154q-506 -467 -727 -1280h-221q113 403 295.5 727t409.5 543h-783z" />
    <glyph glyph-name="eight" unicode="8" horiz-adv-x="1275" 
d="M946 774q94 -51 146.5 -134t52.5 -191q0 -138 -80.5 -247.5t-213 -168t-290.5 -58.5q-215 0 -341 107t-126 278q0 147 90.5 261t239.5 170q-158 87 -158 264q0 172 142 287.5t364 115.5q196 0 316 -92t120 -250q0 -117 -68.5 -206.5t-193.5 -135.5zM762 1288
q-127 0 -208 -65.5t-81 -167.5q0 -90 66.5 -142.5t173.5 -52.5q127 0 207.5 69t80.5 169q0 89 -64.5 139.5t-174.5 50.5zM582 145q154 0 257 91t103 223q0 110 -75 178t-203 68q-155 0 -259 -96.5t-104 -225.5q0 -105 76 -171.5t205 -66.5z" />
    <glyph glyph-name="nine" unicode="9" horiz-adv-x="1333" 
d="M776 1458q237 0 364.5 -153t127.5 -426q0 -138 -32.5 -270t-96.5 -246.5t-153 -201t-210.5 -136.5t-259.5 -50q-117 0 -207 35.5t-137.5 96.5t-58.5 144t30 177h209q-53 -123 3 -203t188 -80q188 0 326.5 165t174.5 440q-67 -105 -181.5 -166.5t-260.5 -61.5
q-194 0 -301.5 105.5t-107.5 285.5q0 151 76 276t210 197t297 72zM664 692q153 0 258.5 101t105.5 241q0 112 -71.5 183t-196.5 71q-150 0 -255.5 -100.5t-105.5 -243.5q0 -116 72 -184t193 -68z" />
    <glyph glyph-name="colon" unicode=":" horiz-adv-x="446" 
d="M301 1012q51 0 84 -34t33 -85q0 -57 -40 -95t-97 -38q-52 0 -83.5 32.5t-31.5 84.5q0 58 39.5 96.5t95.5 38.5zM139 -20q-51 0 -83.5 33.5t-32.5 86.5q0 56 40.5 93.5t96.5 37.5q52 0 83 -32t31 -82q0 -59 -39.5 -98t-95.5 -39z" />
    <glyph glyph-name="semicolon" unicode=";" horiz-adv-x="493" 
d="M301 1012q51 0 84 -34t33 -85q0 -57 -40 -95t-97 -38q-52 0 -83.5 32.5t-31.5 84.5q0 58 39.5 96.5t95.5 38.5zM162 238q67 0 109 -52.5t42 -134.5q1 -124 -90.5 -225.5t-230.5 -130.5l16 108q81 22 137 81t68 134q-31 -22 -72 -22q-51 0 -82.5 32t-31.5 83q0 55 39 91
t96 36z" />
    <glyph glyph-name="less" unicode="&#x3c;" horiz-adv-x="1372" 
d="M145 565l1160 436l-29 -178l-930 -336l811 -325l-29 -174l-1011 426z" />
    <glyph glyph-name="equal" unicode="=" horiz-adv-x="1372" 
d="M1253 768h-1044l29 168h1044zM1176 334h-1043l29 170h1044z" />
    <glyph glyph-name="greater" unicode="&#x3e;" horiz-adv-x="1372" 
d="M209 827l31 174l1009 -426l-26 -151l-1162 -436l29 176l930 338z" />
    <glyph glyph-name="question" unicode="?" horiz-adv-x="1040" 
d="M514 332q-157 0 -247.5 66t-90.5 180q0 70 37 126t96 92.5t130.5 67.5t143 58.5t130.5 57t96 72t37 95.5q0 64 -44.5 104.5t-127.5 40.5q-113 0 -194 -70t-81 -175q0 -42 17 -91h-191q-18 53 -18 113q0 162 134 275.5t337 113.5q170 0 269.5 -84t99.5 -217
q0 -67 -28 -123t-74 -94.5t-104.5 -72.5t-119.5 -58t-119.5 -50t-104.5 -49t-74 -55t-28 -69q0 -44 34.5 -69t100.5 -25q75 0 158 27t150 67l-23 -178q-52 -32 -132.5 -54t-168.5 -22zM440 -20q-47 0 -75.5 30.5t-28.5 77.5q0 54 35 86.5t86 32.5q47 0 75.5 -29.5
t28.5 -75.5q0 -52 -35.5 -87t-85.5 -35z" />
    <glyph glyph-name="at" unicode="@" horiz-adv-x="1792" 
d="M1067 1458q303 0 488.5 -174t185.5 -463q0 -179 -70 -319h-102q71 159 71 307q0 245 -160.5 397t-422.5 152q-172 0 -327 -70t-263.5 -184.5t-172 -264t-63.5 -304.5q0 -247 152.5 -399t415.5 -152q150 0 280 48t210.5 138.5t80.5 202.5q0 56 -20 100q-75 -156 -216 -250
t-315 -94q-165 0 -265.5 82.5t-100.5 216.5q0 112 75.5 194.5t192.5 122t256 39.5q150 0 260 -49q2 16 2 47q0 132 -64.5 200.5t-177.5 68.5q-114 0 -183.5 -61.5t-61.5 -151.5h-183q-13 166 113 272.5t317 106.5q196 0 308 -118t112 -323q0 -88 -20 -164q71 -92 71 -223
q0 -150 -95.5 -268t-248.5 -179t-333 -61q-203 0 -353.5 82t-229.5 229t-79 340q0 144 45.5 282.5t130.5 254t199 203.5t259 137t302 49zM834 289q132 0 231.5 88.5t144.5 224.5q-84 37 -200 37q-145 0 -252 -58.5t-107 -152.5q0 -60 47.5 -99.5t135.5 -39.5z" />
    <glyph glyph-name="A" unicode="A" horiz-adv-x="1429" 
d="M1307 0h-203l-72 344h-678l-192 -344h-221l815 1434h239zM850 1233l-404 -723h553z" />
    <glyph glyph-name="B" unicode="B" horiz-adv-x="1454" 
d="M1096 772q235 -69 235 -319q0 -146 -80.5 -249.5t-218 -153.5t-319.5 -50h-623l254 1434h610q196 0 299 -82t103 -238q0 -130 -68 -217.5t-192 -124.5zM1147 1096q0 178 -209 178h-424l-76 -436h416q134 0 213.5 72t79.5 186zM322 162h409q180 0 288.5 79t108.5 218
q0 225 -288 225h-428z" />
    <glyph glyph-name="C" unicode="C" horiz-adv-x="1607" 
d="M762 -25q-287 0 -452 174.5t-165 462.5q0 174 64.5 330.5t175 269.5t264.5 179.5t326 66.5q119 0 219.5 -31.5t169.5 -87.5t111 -133.5t44 -170t-32 -197.5h-207q43 139 13.5 239t-119.5 155.5t-220 55.5q-131 0 -245.5 -57.5t-192 -151.5t-122 -215.5t-44.5 -249.5
q0 -214 118.5 -341.5t313.5 -127.5q93 0 176 31t144.5 85t106.5 120.5t73 142.5h213q-81 -250 -275.5 -399.5t-457.5 -149.5z" />
    <glyph glyph-name="D" unicode="D" horiz-adv-x="1492" 
d="M344 1434h512q270 0 428 -165.5t158 -443.5q0 -170 -62 -322t-170 -263t-262.5 -175.5t-331.5 -64.5h-526zM322 168h319q129 0 241 53t189.5 141.5t121.5 206.5t44 246q0 205 -108.5 328t-297.5 123h-317z" />
    <glyph glyph-name="E" unicode="E" horiz-adv-x="1284" 
d="M1321 1434l-31 -164h-776l-76 -430h668l-29 -164h-665l-90 -512h794l-29 -164h-997l254 1434h977z" />
    <glyph glyph-name="F" unicode="F" horiz-adv-x="1224" 
d="M1319 1434l-29 -164h-776l-82 -459h670l-31 -164h-668l-112 -647h-201l254 1434h975z" />
    <glyph glyph-name="G" unicode="G" horiz-adv-x="1572" 
d="M852 743h711l-29 -163h-344q160 -69 160 -234q0 -113 -78.5 -198.5t-205.5 -129t-280 -43.5q-305 0 -473 172.5t-168 462.5q0 173 62.5 328.5t171.5 270t265 182t335 67.5q181 0 305.5 -64t172.5 -185t3 -281h-209q53 175 -30 265.5t-263 90.5q-137 0 -252.5 -55
t-192.5 -148t-120 -214t-43 -253q0 -221 117 -345t324 -124q156 0 257 67.5t101 172.5q0 94 -85.5 144.5t-242.5 50.5z" />
    <glyph glyph-name="H" unicode="H" horiz-adv-x="1556" 
d="M1231 838l106 596h201l-254 -1434h-201l119 674h-792l-119 -674h-201l254 1434h201l-107 -596h793z" />
    <glyph glyph-name="I" unicode="I" horiz-adv-x="563" 
d="M291 0h-201l254 1434h201z" />
    <glyph glyph-name="J" unicode="J" horiz-adv-x="980" 
d="M352 -25q-114 0 -196 38t-120.5 104t-35 156t52.5 192h187q-67 -148 -35.5 -235t153.5 -87q223 0 275 299l176 992h201l-174 -981q-13 -74 -32 -135.5t-56.5 -127.5t-88 -111t-129.5 -74.5t-178 -29.5z" />
    <glyph glyph-name="K" unicode="K" horiz-adv-x="1460" 
d="M1294 1434h256l-702 -574l491 -860h-239l-408 731l-317 -258l-84 -473h-201l254 1434h201l-129 -725z" />
    <glyph glyph-name="L" unicode="L" horiz-adv-x="1243" 
d="M545 1434l-223 -1270h794l-29 -164h-997l254 1434h201z" />
    <glyph glyph-name="M" unicode="M" horiz-adv-x="1900" 
d="M893 211l647 1223h342l-254 -1434h-201l226 1274l-692 -1274h-201l-244 1278l-225 -1278h-201l254 1434h334z" />
    <glyph glyph-name="N" unicode="N" horiz-adv-x="1540" 
d="M1104 215l217 1219h201l-254 -1434h-283l-475 1237l-219 -1237h-201l254 1434h293z" />
    <glyph glyph-name="O" unicode="O" horiz-adv-x="1646" 
d="M748 -25q-275 0 -441 169t-166 450q0 171 64 329.5t174 276.5t265.5 188t328.5 70q277 0 441.5 -168.5t164.5 -449.5q0 -170 -63.5 -328t-172.5 -276.5t-265 -189.5t-330 -71zM760 145q172 0 314.5 100.5t220 259t77.5 333.5q0 209 -110 329.5t-301 120.5
q-130 0 -246 -59t-195.5 -155.5t-125.5 -221.5t-46 -256q0 -209 111 -330t301 -121z" />
    <glyph glyph-name="P" unicode="P" horiz-adv-x="1357" 
d="M344 1434h608q207 0 315.5 -98.5t108.5 -284.5q0 -225 -151.5 -351.5t-411.5 -126.5h-422l-100 -573h-201zM420 737h411q159 0 248.5 83.5t89.5 223.5q0 226 -243 226h-412z" />
    <glyph glyph-name="Q" unicode="Q" horiz-adv-x="1646" 
d="M1579 842q0 -153 -52.5 -292t-144 -247t-216 -195t-269.5 -144.5t-303 -86.5q390 -18 719 -82l-27 -162q-242 49 -544 76t-595 27l25 166q384 7 672 133q-68 -10 -121 -10q-253 0 -415.5 161t-162.5 432q0 165 63 318.5t171 268.5t261 184t323 69q273 0 444.5 -167.5
t171.5 -448.5zM764 170q126 0 240 56.5t194 149t127 215t47 251.5q0 205 -110.5 325.5t-300.5 120.5q-170 0 -312 -97t-220.5 -251t-78.5 -326q0 -205 113 -324.5t301 -119.5z" />
    <glyph glyph-name="R" unicode="R" horiz-adv-x="1458" 
d="M1417 1087q0 -158 -91 -270t-247 -160q94 -45 142 -141.5t51.5 -225t-17.5 -290.5h-198q16 121 21 208.5t-4.5 166t-37 126.5t-79 75.5t-128.5 27.5h-432l-106 -604h-201l254 1434h660q199 0 306 -90t107 -257zM424 758h405q170 0 274.5 85t104.5 222q0 205 -233 205
h-461z" />
    <glyph glyph-name="S" unicode="S" horiz-adv-x="1411" 
d="M639 -25q-292 0 -431 138t-83 368h201q-34 -167 55 -253.5t274 -86.5q175 0 286.5 71t111.5 189q0 71 -45 118t-117 71.5t-158.5 43.5t-173.5 43t-159 60t-117 104.5t-45 166.5q0 135 81 238.5t218.5 157.5t306.5 54q138 0 244 -37t166.5 -103.5t79 -158.5t-18.5 -203
h-203q49 158 -30.5 247t-258.5 89q-161 0 -269 -71t-108 -187q0 -55 28 -94.5t75 -63.5t108 -41.5t128.5 -32.5t135 -32t128.5 -44.5t108 -65t75 -98t28 -140.5q0 -142 -84.5 -245t-223 -152.5t-313.5 -49.5z" />
    <glyph glyph-name="T" unicode="T" horiz-adv-x="1316" 
d="M215 1434h1212l-28 -164h-506l-225 -1270h-199l223 1270h-506z" />
    <glyph glyph-name="U" unicode="U" horiz-adv-x="1492" 
d="M670 -23q-289 0 -416 173t-70 493l140 791h200l-139 -789q-87 -495 299 -495q196 0 312 127t161 382l137 775h199l-141 -803q-57 -323 -229.5 -488.5t-452.5 -165.5z" />
    <glyph glyph-name="V" unicode="V" horiz-adv-x="1384" 
d="M633 215l661 1219h222l-801 -1434h-221l-301 1434h206z" />
    <glyph glyph-name="W" unicode="W" horiz-adv-x="2041" 
d="M1393 217l567 1217h213l-688 -1434h-236l-106 1247l-541 -1247h-229l-180 1434h200l139 -1211l525 1211h239z" />
    <glyph glyph-name="X" unicode="X" horiz-adv-x="1441" 
d="M1284 1434h234l-615 -686l418 -748h-223l-348 643l-574 -643h-235l690 760l-365 674h223l299 -555z" />
    <glyph glyph-name="Y" unicode="Y" horiz-adv-x="1359" 
d="M1264 1434h227l-698 -850l-103 -584h-201l107 598l-403 836h219l303 -672z" />
    <glyph glyph-name="Z" unicode="Z" horiz-adv-x="1300" 
d="M283 1434h1073l-25 -152l-1063 -1118h885l-31 -164h-1124l27 152l1062 1118h-833z" />
    <glyph glyph-name="bracketleft" unicode="[" horiz-adv-x="821" 
d="M510 -270h-479l307 1745h479l-26 -162h-271l-252 -1422h271z" />
    <glyph glyph-name="backslash" unicode="\" horiz-adv-x="849" 
d="M672 -37h-207l-209 1532h207z" />
    <glyph glyph-name="bracketright" unicode="]" horiz-adv-x="821" 
d="M319 1475h482l-307 -1745h-482l29 159h270l252 1424h-270z" />
    <glyph glyph-name="asciicircum" unicode="^" horiz-adv-x="825" 
d="M657 1434l138 -543h-174l-78 330l-197 -330h-180l330 543h161z" />
    <glyph glyph-name="underscore" unicode="_" horiz-adv-x="1157" 
d="M940 -438h-1055l25 149h1055z" />
    <glyph glyph-name="grave" unicode="`" horiz-adv-x="497" 
d="M530 1159h-141l-145 275h200z" />
    <glyph glyph-name="a" unicode="a" horiz-adv-x="1105" 
d="M612 1049q153 0 251.5 -64.5t133.5 -175t9 -254.5l-99 -555h-172l37 201q-75 -108 -183 -167t-241 -59q-150 0 -236.5 72.5t-86.5 194.5q0 167 152 267.5t378 100.5q141 0 262 -41l2 9q8 43 8.5 82.5t-10.5 81.5t-34.5 73t-69 50.5t-109.5 19.5q-115 0 -179.5 -59
t-59.5 -156h-189q-13 173 111.5 276t324.5 103zM395 123q138 0 249 86t163 223q-102 45 -234 45q-154 0 -256 -58t-102 -159q0 -67 47.5 -102t132.5 -35z" />
    <glyph glyph-name="b" unicode="b" horiz-adv-x="1228" 
d="M768 1049q183 0 291 -121t108 -324q0 -168 -69 -311t-197.5 -230.5t-288.5 -87.5q-133 0 -223.5 62t-132.5 174l-37 -211h-190l254 1434h190l-104 -590q75 96 177 150.5t222 54.5zM575 141q114 0 206 63t141 164.5t49 217.5q0 138 -74.5 217.5t-200.5 79.5
q-87 0 -162.5 -38t-125.5 -101t-78.5 -144t-28.5 -168q0 -135 72.5 -213t201.5 -78z" />
    <glyph glyph-name="c" unicode="c" horiz-adv-x="1179" 
d="M508 -25q-205 0 -326 116.5t-121 326.5q0 168 76 311.5t219 231.5t322 88q158 0 266 -66t138.5 -179t-25.5 -263h-189q54 156 -1.5 249t-202.5 93q-122 0 -216.5 -68t-142 -171t-47.5 -218q0 -138 70 -211.5t192 -73.5q111 0 202.5 62t141.5 168h209q-72 -184 -220 -290
t-345 -106z" />
    <glyph glyph-name="d" unicode="d" horiz-adv-x="1222" 
d="M967 821l106 613h191l-254 -1434h-191l29 164q-73 -89 -171.5 -139t-213.5 -50q-183 0 -292.5 122.5t-109.5 326.5q0 169 73.5 312.5t203.5 228t285 84.5q128 0 215.5 -60t128.5 -168zM532 141q113 0 205 62.5t141.5 164t49.5 218.5q0 139 -71.5 218t-199.5 79
q-113 0 -205.5 -62.5t-143 -164t-50.5 -216.5q0 -139 73 -219t201 -80z" />
    <glyph glyph-name="e" unicode="e" horiz-adv-x="1157" 
d="M535 141q99 0 180.5 47.5t128.5 128.5h211q-75 -162 -215 -252t-318 -90q-212 0 -335.5 124.5t-123.5 336.5q0 126 44.5 238.5t123 195t191.5 131t244 48.5q109 0 196.5 -33t142 -91.5t79.5 -134t12.5 -165.5t-62.5 -181h-774q0 -142 73 -222.5t202 -80.5zM653 893
q-146 0 -246.5 -92.5t-132.5 -235.5h598q52 138 -8.5 233t-210.5 95z" />
    <glyph glyph-name="f" unicode="f" horiz-adv-x="835" 
d="M924 1145h-172q30 77 15.5 117.5t-67.5 40.5q-60 0 -98.5 -48.5t-52.5 -132.5l-17 -98h361l-27 -164h-364l-152 -860h-190l151 860h-223l29 164h223l20 111q28 156 118.5 239.5t234.5 83.5q151 0 207.5 -88.5t3.5 -224.5z" />
    <glyph glyph-name="g" unicode="g" horiz-adv-x="1144" 
d="M1026 1149h137q10 -94 -30.5 -189.5t-112.5 -146.5q16 -56 16 -111q0 -153 -109 -281t-290 -212q139 -21 222 -95.5t83 -191.5q0 -106 -68.5 -188t-183 -125t-254.5 -43q-215 0 -337.5 103t-116.5 270h194q-6 -98 67.5 -152.5t200.5 -54.5q133 0 219.5 53t86.5 143
q0 78 -73 122t-210 44q-146 0 -295 -47l18 131q267 37 449 154q-71 -21 -152 -21q-170 0 -272 89t-102 239q0 122 69.5 216.5t184.5 144t254 49.5q238 0 350 -144q40 41 54.5 111.5t0.5 132.5zM307 639q0 -85 62.5 -133.5t169.5 -48.5q130 0 215.5 67.5t85.5 169.5
q0 86 -63.5 137.5t-170.5 51.5q-128 0 -213.5 -70.5t-85.5 -173.5z" />
    <glyph glyph-name="h" unicode="h" horiz-adv-x="1122" 
d="M760 1049q174 0 242 -115.5t30 -323.5l-108 -610h-191l111 623q47 266 -152 266q-139 0 -247 -113t-140 -293l-86 -483h-190l254 1434h190l-111 -627q63 116 167 179t231 63z" />
    <glyph glyph-name="i" unicode="i" horiz-adv-x="448" 
d="M356 1182q-50 0 -81 30.5t-31 79.5q0 54 38 92.5t93 38.5q49 0 79.5 -31t30.5 -79q0 -56 -38 -93.5t-91 -37.5zM229 0h-190l180 1024h191z" />
    <glyph glyph-name="j" unicode="j" horiz-adv-x="536" 
d="M444 1182q-50 0 -81 30.5t-31 79.5q0 54 38 92.5t93 38.5q49 0 79.5 -31t30.5 -79q0 -56 -38 -93.5t-91 -37.5zM-8 -434q-98 0 -168 45l24 158q53 -37 121 -37q113 0 140 155l198 1137h191l-201 -1141q-45 -317 -305 -317z" />
    <glyph glyph-name="k" unicode="k" horiz-adv-x="1142" 
d="M737 387q116 -57 186 -160t74 -227h-215q-9 139 -105.5 229.5t-252.5 102.5l16 123q110 0 205 32t155 95.5t60 146.5q0 71 -46 112.5t-128 41.5q-138 0 -243.5 -110t-137.5 -290l-86 -483h-190l254 1434h190l-111 -627q63 114 167.5 178t230.5 64q142 0 221.5 -77.5
t79.5 -205.5q0 -137 -88.5 -235t-235.5 -144z" />
    <glyph glyph-name="l" unicode="l" horiz-adv-x="450" 
d="M229 0h-190l254 1434h190z" />
    <glyph glyph-name="m" unicode="m" horiz-adv-x="1779" 
d="M1411 1049q167 0 240.5 -119t36.5 -320l-107 -610h-190l110 623q20 121 -22.5 190.5t-139.5 69.5q-124 0 -222 -109t-126 -278l-90 -496h-190l110 623q23 126 -18 196t-137 70q-124 0 -226.5 -110t-132.5 -285l-88 -494h-190l180 1024h190l-37 -215q57 105 159 172.5
t224 67.5q118 0 194 -65.5t91 -174.5q62 114 161.5 177t219.5 63z" />
    <glyph glyph-name="n" unicode="n" horiz-adv-x="1124" 
d="M760 1049q65 0 115.5 -17.5t81 -45.5t50.5 -68t27.5 -79.5t8.5 -85.5t-2.5 -81.5t-10.5 -71.5l-106 -600h-191l109 610q49 279 -158 279q-136 0 -241.5 -112t-137.5 -294l-86 -483h-190l180 1024h190l-37 -217q62 114 166.5 178t231.5 64z" />
    <glyph glyph-name="o" unicode="o" horiz-adv-x="1183" 
d="M512 -25q-208 0 -329.5 120t-121.5 331q0 127 46.5 242t127 199t195 133t244.5 49q207 0 327.5 -118t120.5 -331q0 -169 -77 -312t-217.5 -228t-315.5 -85zM528 141q115 0 207 65t140.5 167.5t48.5 218.5q0 137 -70.5 214t-196.5 77q-115 0 -208 -64.5t-142 -166.5
t-49 -218q0 -137 72 -215t198 -78z" />
    <glyph glyph-name="p" unicode="p" horiz-adv-x="1228" 
d="M768 1049q183 0 291 -121t108 -324q0 -168 -69 -311t-197.5 -230.5t-288.5 -87.5q-133 0 -224.5 63t-131.5 177l-109 -625h-190l252 1434h190l-28 -180q73 96 174.5 150.5t222.5 54.5zM575 141q113 0 205 63t141.5 164.5t49.5 217.5q0 138 -74.5 217.5t-200.5 79.5
q-87 0 -162.5 -38t-125.5 -101t-78.5 -144t-28.5 -168q0 -135 72.5 -213t201.5 -78z" />
    <glyph glyph-name="q" unicode="q" horiz-adv-x="1230" 
d="M975 801l37 223h190l-252 -1434h-190l100 590q-72 -96 -174.5 -150.5t-222.5 -54.5q-183 0 -292.5 122.5t-109.5 326.5q0 169 73.5 312.5t203.5 228t285 84.5q134 0 223.5 -65t128.5 -183zM532 141q113 0 205.5 62.5t142.5 164.5t50 218q0 139 -72.5 218t-200.5 79
q-113 0 -205.5 -62.5t-143 -164t-50.5 -216.5q0 -139 73 -219t201 -80z" />
    <glyph glyph-name="r" unicode="r" horiz-adv-x="933" 
d="M694 1049q108 0 173 -66.5t65 -175.5q0 -142 -90 -258h-197q88 143 88 225q0 51 -30.5 80t-84.5 29q-108 0 -194 -107.5t-117 -279.5l-88 -496h-190l180 1024h190l-32 -193q57 103 142.5 160.5t184.5 57.5z" />
    <glyph glyph-name="s" unicode="s" horiz-adv-x="1062" 
d="M459 -25q-225 0 -335.5 110.5t-70.5 285.5h187q-27 -115 36.5 -179.5t194.5 -64.5q118 0 196 48t78 122q0 34 -21 59t-56 40.5t-81 27.5t-96.5 22.5t-101 23t-96.5 32.5t-81 47t-56 70.5t-21 99.5q0 102 63.5 178.5t167 114t230.5 37.5q216 0 324 -108t49 -277h-187
q38 106 -18 168.5t-182 62.5q-108 0 -178 -46.5t-70 -115.5q0 -44 34 -73t87.5 -45t119 -29t131 -31.5t119 -45t87.5 -77t34 -121.5q0 -104 -69 -182t-178.5 -116t-239.5 -38z" />
    <glyph glyph-name="t" unicode="t" horiz-adv-x="800" 
d="M797 860h-297l-103 -577q-2 -16 -3 -26t-0.5 -29t6.5 -31.5t16.5 -26t31.5 -20.5t50 -7q70 0 149 45l-20 -170q-61 -41 -170 -41q-59 0 -105 14t-73 36t-44 53.5t-23.5 60.5t-7.5 63.5t2 56.5t7 44l96 555h-194l28 164h197l47 274h191l-50 -274h295z" />
    <glyph glyph-name="u" unicode="u" horiz-adv-x="1112" 
d="M807 530l86 494h190l-180 -1024h-190l35 199q-75 -106 -176 -162.5t-214 -56.5q-77 0 -133 27.5t-85.5 72t-43 106t-12.5 123t12 129.5l103 586h190l-104 -600q-10 -53 -9.5 -99t13 -90.5t49.5 -70t96 -25.5q58 0 116.5 25.5t110 73.5t91 123.5t55.5 168.5z" />
    <glyph glyph-name="v" unicode="v" horiz-adv-x="1030" 
d="M444 158l455 866h209l-561 -1024h-246l-199 1024h201z" />
    <glyph glyph-name="w" unicode="w" horiz-adv-x="1605" 
d="M1073 156l393 868h207l-491 -1024h-244l-84 811l-360 -811h-244l-137 1024h200l90 -881l385 881h205z" />
    <glyph glyph-name="x" unicode="x" horiz-adv-x="1056" 
d="M856 1024h225l-432 -494l281 -530h-217l-199 401l-344 -401h-223l475 537l-254 487h209l176 -360z" />
    <glyph glyph-name="y" unicode="y" horiz-adv-x="1030" 
d="M475 164l426 860h207l-596 -1151q-155 -307 -446 -307q-93 0 -168 33l16 161q69 -28 137 -28q94 0 171.5 55t129.5 147l-241 1090h202z" />
    <glyph glyph-name="z" unicode="z" horiz-adv-x="1026" 
d="M217 1024h813l-14 -102l-762 -779h643l-27 -143h-868l23 145l712 725h-544z" />
    <glyph glyph-name="braceleft" unicode="{" horiz-adv-x="790" 
d="M342 -293q-117 0 -165.5 57.5t-24.5 190.5q9 48 45.5 179.5t46.5 189.5q18 98 -8 147t-111 49l27 158q152 0 194 219q7 44 18.5 181t22.5 198q20 121 77.5 171t178.5 50q98 0 160 -20l-17 -168q-48 18 -98 18q-56 0 -85 -30.5t-40 -98.5q-6 -37 -15 -158t-20 -184
q-12 -68 -33 -116.5t-50.5 -77t-54 -43t-60.5 -27.5q17 -7 30 -15t29.5 -22t27 -35t18 -49.5t7 -70t-9.5 -91.5q-9 -57 -42.5 -172t-41.5 -160q-11 -57 2 -78.5t64 -21.5q60 0 112 23l-18 -172q-75 -21 -166 -21z" />
    <glyph glyph-name="bar" unicode="|" horiz-adv-x="716" 
d="M258 -492h-152l390 2212h151z" />
    <glyph glyph-name="braceright" unicode="}" horiz-adv-x="790" 
d="M485 1497q117 0 165 -57.5t24 -190.5q-8 -48 -44.5 -179t-45.5 -189q-18 -98 7.5 -147.5t110.5 -49.5l-26 -158q-153 0 -195 -219q-7 -44 -18.5 -181t-22.5 -198q-22 -121 -79 -171t-179 -50q-94 0 -159 21l18 168q50 -19 98 -19q56 0 84.5 30t40.5 99q6 37 15 158
t20 184q12 68 33 116.5t51 77t54.5 43t60.5 27.5q-17 7 -30 15t-30 22t-27 35t-18 49.5t-7.5 70t9.5 91.5q9 57 42.5 172t41.5 160q11 58 -1.5 79t-63.5 21q-64 0 -113 -22l18 172q72 20 166 20z" />
    <glyph glyph-name="asciitilde" unicode="~" horiz-adv-x="1372" 
d="M291 369h-150q0 140 93 230.5t237 90.5q57 0 106 -17t85 -41t71 -48t78.5 -41t91.5 -17q81 0 132 45.5t57 116.5h149q-36 -311 -317 -311q-62 0 -115.5 17t-91.5 41t-73 48t-76.5 41t-86.5 17q-87 0 -139.5 -51t-50.5 -121z" />
    <glyph glyph-name="exclamdown" unicode="&#xa1;" horiz-adv-x="532" 
d="M346 1044q52 0 84.5 -33.5t32.5 -86.5q0 -56 -39.5 -93.5t-95.5 -37.5q-52 0 -84.5 32t-32.5 82q0 59 40 98t95 39zM215 616h137l-141 -1026h-217z" />
    <glyph glyph-name="cent" unicode="&#xa2;" horiz-adv-x="1165" 
d="M735 1065l-129 -735q95 13 171.5 72.5t119.5 152.5h209q-69 -175 -207 -280t-324 -115l-67 -385h-88l67 387q-182 15 -287.5 129.5t-105.5 310.5q0 163 72 303.5t206.5 229.5t303.5 98l63 354h88l-63 -356q142 -11 236.5 -79t119.5 -177t-28 -250h-191q50 146 4.5 237
t-170.5 103zM291 610q0 -127 60.5 -199t166.5 -83l129 737q-108 -14 -191 -83.5t-124 -167t-41 -204.5z" />
    <glyph glyph-name="sterling" unicode="&#xa3;" horiz-adv-x="1251" 
d="M651 260q76 -60 140.5 -91.5t150.5 -31.5q88 0 174 33l-18 -164q-72 -29 -174 -29q-114 0 -196.5 38.5t-156.5 105.5q-125 -144 -323 -144q-124 0 -192 57t-68 148q0 109 90.5 175.5t220.5 66.5q107 0 201 -53q2 14 2 45q0 75 -31 159h-272l16 93h217q-2 5 -16 33
t-17.5 36t-15 33.5t-15.5 37t-12.5 35t-12 40t-8 38.5t-6 43.5t-1.5 43.5q0 198 137 324t350 126q168 0 265.5 -85t97.5 -220q0 -81 -33 -162t-88 -145h-193q123 153 123 280q0 75 -46 118.5t-132 43.5q-122 0 -200.5 -85t-78.5 -214q0 -41 10.5 -87.5t19 -71.5t34 -86
t31.5 -76h376l-16 -93h-330q23 -77 23 -151q0 -81 -27 -164zM250 111q132 0 203 116q-81 64 -156 64q-62 0 -102.5 -31.5t-40.5 -77.5q0 -71 96 -71z" />
    <glyph glyph-name="currency" unicode="&#xa4;" horiz-adv-x="1175" 
d="M1042 743q0 -166 -116 -301l118 -139l-135 -119l-123 142q-115 -64 -231 -64q-126 0 -219 68l-170 -148l-109 123l174 150q-36 80 -36 170q0 164 114 301l-119 139l136 119l123 -144q112 64 231 64q124 0 217 -68l174 150l107 -123l-174 -150q38 -78 38 -170zM340 635
q0 -95 63.5 -159t163.5 -64q128 0 228 98.5t100 222.5q0 95 -64.5 158t-164.5 63q-127 0 -226.5 -97t-99.5 -222z" />
    <glyph glyph-name="yen" unicode="&#xa5;" horiz-adv-x="1296" 
d="M1204 1366h217l-594 -723h328l-14 -88h-385l-25 -143h385l-16 -88h-385l-58 -324h-190l57 324h-389l17 88h389l24 143h-389l17 88h339l-348 723h209l289 -641z" />
    <glyph glyph-name="brokenbar" unicode="&#xa6;" horiz-adv-x="716" 
d="M485 795h-153l164 925h151zM258 -492h-152l162 926h154z" />
    <glyph glyph-name="section" unicode="&#xa7;" horiz-adv-x="1122" 
d="M1059 1073h-176q34 109 -16 167t-160 58q-103 0 -172.5 -47t-69.5 -116q0 -43 32 -72.5t83.5 -45.5t113.5 -29t124 -30.5t113.5 -42.5t83.5 -72.5t32 -113.5q0 -85 -48.5 -150.5t-134.5 -101.5q74 -64 74 -164q0 -101 -64.5 -179t-170 -117.5t-232.5 -39.5
q-143 0 -240 54.5t-131.5 143.5t-7.5 196h178q-29 -111 30 -172.5t181 -61.5q106 0 182 45.5t76 116.5q0 42 -32.5 71t-84 45.5t-114 30.5t-124.5 32.5t-113.5 45.5t-84 76t-32.5 117q0 85 47.5 148t130.5 98q-66 63 -66 157q0 99 62 177.5t162.5 119.5t220.5 41
q99 0 178 -30t125 -82t60.5 -122t-15.5 -151zM848 698q0 36 -20 62.5t-61 44t-79 28.5t-100 26t-99 26q-62 -24 -98.5 -64.5t-36.5 -89.5q0 -36 19.5 -61.5t60 -43t77.5 -27.5t100 -24t98 -24q62 20 100.5 58.5t38.5 88.5z" />
    <glyph glyph-name="dieresis" unicode="&#xa8;" horiz-adv-x="768" 
d="M322 1180q-46 0 -74.5 29t-28.5 73q0 51 35 87t86 36q45 0 73.5 -30t28.5 -75q0 -52 -34.5 -86t-85.5 -34zM702 1180q-46 0 -75 29t-29 73q0 51 35.5 87t87.5 36q45 0 73.5 -30t28.5 -75q0 -52 -35 -86t-86 -34z" />
    <glyph glyph-name="copyright" unicode="&#xa9;" horiz-adv-x="1796" 
d="M805 -113q-202 0 -357.5 86t-240 238.5t-84.5 345.5q0 119 33.5 235t93.5 214.5t146 182.5t187 143t219.5 92.5t241.5 33.5q304 0 494.5 -187t190.5 -480q0 -179 -74.5 -345.5t-198.5 -289t-295.5 -196t-355.5 -73.5zM811 8q129 0 250.5 41t218.5 114t170.5 169.5
t113.5 214t40 239.5q0 247 -155 399t-411 152q-161 0 -308 -63.5t-251.5 -169.5t-166.5 -249t-62 -296q0 -245 153 -398t408 -153zM874 160q-198 0 -318 122t-120 320q0 159 76 295t211 216.5t297 80.5q106 0 189.5 -34.5t130.5 -94.5t61.5 -141.5t-17.5 -175.5h-153
q42 149 -19 233t-204 84q-125 0 -223 -65.5t-148.5 -169.5t-50.5 -224q0 -148 79.5 -233.5t217.5 -85.5q128 0 221.5 72.5t138.5 201.5h141q-51 -186 -188.5 -293.5t-321.5 -107.5z" />
    <glyph glyph-name="ordfeminine" unicode="&#xaa;" horiz-adv-x="847" 
d="M571 1458q171 0 240.5 -99.5t38.5 -266.5l-76 -428h-139l27 149q-117 -172 -320 -172q-110 0 -173 54.5t-63 148.5q0 85 55 149.5t144.5 96.5t198.5 32q103 0 192 -26q42 229 -137 229q-81 0 -133 -42t-51 -116h-154q-6 131 95 211t255 80zM389 764q98 0 178 59t117 156
q-79 31 -178 31q-103 0 -171.5 -40.5t-68.5 -111.5q0 -94 123 -94z" />
    <glyph glyph-name="guillemotleft" unicode="&#xab;" horiz-adv-x="1138" 
d="M487 162h-200q-53 173 -199 401q91 90 182 195t148 186h213q-123 -182 -346 -401q56 -81 112 -188t90 -193zM954 162h-200q-46 160 -197 401q91 90 182 195t148 186h211q-120 -177 -344 -401q57 -84 113 -191.5t87 -189.5z" />
    <glyph glyph-name="logicalnot" unicode="&#xac;" horiz-adv-x="1372" 
d="M1120 371h-174l51 288h-745l29 158h919z" />
    <glyph glyph-name="uni00AD" unicode="&#xad;" horiz-adv-x="827" 
d="M653 451h-499l30 180h500z" />
    <glyph glyph-name="registered" unicode="&#xae;" horiz-adv-x="1212" 
d="M752 1454q192 0 312 -117t120 -301q0 -148 -77.5 -276.5t-208 -204.5t-280.5 -76q-190 0 -309 118.5t-119 303.5q0 148 75.5 275.5t205 202.5t281.5 75zM623 559q131 0 242 67t174 176.5t63 233.5q0 153 -97 245.5t-255 92.5q-132 0 -243 -66t-174 -174.5t-63 -232.5
q0 -154 97.5 -248t255.5 -94zM526 1247h230q44 0 80.5 -10.5t65 -41.5t28.5 -81q0 -124 -148 -151q62 -23 83 -84.5t7 -173.5h-88q15 128 -5 173.5t-85 45.5h-133l-39 -219h-90zM573 995h123q65 0 103.5 26t38.5 81q0 40 -25 54.5t-70 14.5h-139z" />
    <glyph glyph-name="macron" unicode="&#xaf;" horiz-adv-x="780" 
d="M819 1196h-616l24 143h617z" />
    <glyph glyph-name="degree" unicode="&#xb0;" horiz-adv-x="768" 
d="M457 848q-120 0 -194.5 75.5t-74.5 192.5q0 141 105.5 242.5t247.5 101.5q119 0 192.5 -74.5t73.5 -189.5q0 -141 -104.5 -244.5t-245.5 -103.5zM465 981q84 0 146.5 61.5t62.5 143.5q0 63 -39 102t-105 39q-85 0 -146.5 -61t-61.5 -142q0 -64 39 -103.5t104 -39.5z" />
    <glyph glyph-name="plusminus" unicode="&#xb1;" horiz-adv-x="1372" 
d="M901 1264l-53 -312h438l-26 -149h-443l-59 -352h-160l59 352h-440l27 149h444l51 312h162zM1137 129h-1041l27 147h1040z" />
    <glyph glyph-name="uni00B2" unicode="&#xb2;" horiz-adv-x="776" 
d="M844 1321q0 -79 -32 -144.5t-92 -115.5t-131.5 -86.5t-164.5 -67.5h369l-25 -129h-643l20 125q80 25 137.5 45.5t123.5 49t110.5 58t83 66t57.5 81t19 95.5q0 67 -32.5 103.5t-92.5 36.5q-79 0 -127.5 -58t-48.5 -143q0 -59 26 -113h-149q-27 56 -27 121q0 146 102 237
t253 91q124 0 194 -68t70 -184z" />
    <glyph glyph-name="uni00B3" unicode="&#xb3;" horiz-adv-x="722" 
d="M643 1184q113 -52 113 -172q0 -114 -101 -186t-243 -72q-159 0 -235.5 90t-33.5 225h150q-29 -79 8.5 -129.5t120.5 -50.5q76 0 127 40.5t51 100.5q0 48 -33.5 76.5t-95.5 28.5h-80l21 106h69q60 0 105 31.5t45 83.5q0 40 -30.5 63t-84.5 23q-72 0 -112 -38t-37 -97h-152
q7 127 96 196.5t228 69.5q121 0 189.5 -51.5t68.5 -145.5q0 -138 -154 -192z" />
    <glyph glyph-name="acute" unicode="&#xb4;" horiz-adv-x="507" 
d="M346 1159h-149l182 275h209z" />
    <glyph glyph-name="uni00B5" unicode="&#xb5;" horiz-adv-x="1099" 
d="M795 530l86 494h190l-180 -1024h-191l33 193q-72 -103 -170.5 -158t-200.5 -55q-88 0 -141 36l-74 -426h-190l252 1434h190l-108 -623q-23 -126 17 -194t130 -68q117 0 221 104.5t136 286.5z" />
    <glyph glyph-name="paragraph" unicode="&#xb6;" horiz-adv-x="1290" 
d="M575 -258h-188l162 879q-150 0 -248 102t-98 254q0 123 68 229t182 167t243 61h576l-299 -1692h-189l269 1518h-209z" />
    <glyph glyph-name="periodcentered" unicode="&#xb7;" horiz-adv-x="440" 
d="M213 395q-51 0 -84 34t-33 85q0 57 40 95t97 38q51 0 83 -33t32 -84q0 -58 -39.5 -96.5t-95.5 -38.5z" />
    <glyph glyph-name="cedilla" unicode="&#xb8;" horiz-adv-x="663" 
d="M256 -70q89 -6 139.5 -51t50.5 -115q0 -91 -80 -144.5t-194 -53.5q-130 0 -188.5 66.5t-24.5 154.5h127q-21 -57 5.5 -90t86.5 -33q61 0 100 30t39 79q0 86 -114 86q-56 0 -107 -23l-35 80q65 22 110 59t52 76l105 -2q-11 -75 -72 -119z" />
    <glyph glyph-name="uni00B9" unicode="&#xb9;" horiz-adv-x="593" 
d="M467 1548h168l-137 -770h-162l96 545q-125 -153 -317 -190l28 163q97 21 190.5 96t133.5 156z" />
    <glyph glyph-name="ordmasculine" unicode="&#xba;" horiz-adv-x="901" 
d="M485 641q-156 0 -247 92.5t-91 249.5q0 129 58 237.5t163.5 173t235.5 64.5q158 0 249 -92.5t91 -249.5q0 -128 -58 -236.5t-164 -173.5t-237 -65zM498 776q124 0 204 100t80 232q0 99 -50.5 157t-139.5 58q-84 0 -150.5 -49t-100.5 -124.5t-34 -158.5q0 -100 51 -157.5
t140 -57.5z" />
    <glyph glyph-name="guillemotright" unicode="&#xbb;" horiz-adv-x="1130" 
d="M190 944h201q48 -165 199 -401q-92 -89 -183.5 -194t-148.5 -187h-211q120 177 344 401q-57 85 -113.5 192t-87.5 189zM659 944h201q46 -160 197 -401q-91 -90 -182 -195t-148 -186h-211q120 177 344 401q-57 85 -113.5 192t-87.5 189z" />
    <glyph glyph-name="onequarter" unicode="&#xbc;" horiz-adv-x="1562" 
d="M236 0l894 1366h173l-895 -1366h-172zM303 594l96 545q-125 -154 -317 -191l29 164q97 21 190 96t133 156h168l-137 -770h-162zM1427 770l-81 -459h155l-24 -129h-154l-33 -182h-162l33 182h-418l17 117q292 199 487 471h180zM948 311h238l47 277q-133 -163 -285 -277z
" />
    <glyph glyph-name="onehalf" unicode="&#xbd;" horiz-adv-x="1636" 
d="M236 0l894 1366h173l-895 -1366h-172zM303 594l96 545q-125 -154 -317 -191l29 164q97 21 190 96t133 156h168l-137 -770h-162zM1567 543q0 -79 -32 -144.5t-92 -115.5t-131.5 -86.5t-164.5 -67.5h369l-25 -129h-643l20 125q80 25 137.5 45.5t123.5 49t110.5 58t83 66
t57.5 81t19 95.5q0 67 -32.5 103t-92.5 36q-80 0 -128 -58t-48 -142q0 -59 26 -113h-149q-27 56 -27 121q0 146 102 237t253 91q124 0 194 -68t70 -184z" />
    <glyph glyph-name="threequarters" unicode="&#xbe;" horiz-adv-x="1660" 
d="M723 827q0 -114 -101 -186t-243 -72q-159 0 -235 90t-33 226h149q-29 -79 8.5 -129.5t120.5 -50.5q76 0 127 40.5t51 100.5q0 48 -33.5 76t-95.5 28h-80l21 107h70q60 0 104.5 31t44.5 83q0 40 -30.5 63t-84.5 23q-72 0 -112 -38t-37 -97h-152q7 127 96 197t228 70
q121 0 189.5 -51.5t68.5 -145.5q0 -139 -154 -193q113 -52 113 -172zM334 0l895 1366h172l-895 -1366h-172zM1526 770l-82 -459h155l-24 -129h-154l-32 -182h-162l33 182h-418l16 117q294 201 488 471h180zM1047 311h237l47 277q-134 -165 -284 -277z" />
    <glyph glyph-name="questiondown" unicode="&#xbf;" horiz-adv-x="1040" 
d="M600 1044q47 0 76 -31t29 -77q0 -53 -36 -86t-85 -33q-47 0 -76 29.5t-29 75.5q0 52 35.5 87t85.5 35zM526 692q157 0 247.5 -66t90.5 -180q0 -70 -37 -126t-96 -92.5t-130 -67.5t-142.5 -58.5t-130.5 -57t-96 -72t-37 -95.5q0 -64 44.5 -104.5t127.5 -40.5
q113 0 193.5 70t80.5 175q0 47 -18 91h192q19 -55 19 -113q0 -162 -135 -275.5t-337 -113.5q-171 0 -269.5 83.5t-98.5 217.5q0 67 28 123t73.5 94.5t104 72.5t120 58t120 50t104 49t73.5 55t28 69q0 44 -34.5 69t-100.5 25q-75 0 -157.5 -27t-149.5 -67l22 178
q52 32 132.5 54t168.5 22z" />
    <glyph glyph-name="Agrave" unicode="&#xc0;" horiz-adv-x="1429" 
d="M911 1731l97 -224h-142l-151 224h196zM1307 0h-203l-72 344h-678l-192 -344h-221l815 1434h239zM850 1233l-404 -723h553z" />
    <glyph glyph-name="Aacute" unicode="&#xc1;" horiz-adv-x="1429" 
d="M954 1731h209l-229 -224h-154zM1307 0h-203l-72 344h-678l-192 -344h-221l815 1434h239zM850 1233l-404 -723h553z" />
    <glyph glyph-name="Acircumflex" unicode="&#xc2;" horiz-adv-x="1429" 
d="M1044 1507l-126 140l-173 -140h-190l272 224h197l199 -224h-179zM1307 0h-203l-72 344h-678l-192 -344h-221l815 1434h239zM850 1233l-404 -723h553z" />
    <glyph glyph-name="Atilde" unicode="&#xc3;" horiz-adv-x="1429" 
d="M717 1518h-119q-17 102 32 158.5t138 56.5q54 0 102 -25.5t87.5 -50.5t74.5 -25q39 0 57.5 28t10.5 69h121q12 -99 -34.5 -158.5t-139.5 -59.5q-43 0 -83 16t-64.5 34.5t-55 34.5t-58.5 16q-42 0 -59.5 -28t-9.5 -66zM1307 0h-203l-72 344h-678l-192 -344h-221l815 1434
h239zM850 1233l-404 -723h553z" />
    <glyph glyph-name="Adieresis" unicode="&#xc4;" horiz-adv-x="1429" 
d="M674 1530q-46 0 -74.5 29t-28.5 73q0 51 35 87t86 36q46 0 74.5 -29t28.5 -75q0 -52 -35 -86.5t-86 -34.5zM1118 1530q-47 0 -75.5 28.5t-28.5 73.5q0 51 35 87t86 36q47 0 75.5 -29t28.5 -75q0 -52 -35 -86.5t-86 -34.5zM1307 0h-203l-72 344h-678l-192 -344h-221
l815 1434h239zM850 1233l-404 -723h553z" />
    <glyph glyph-name="Aring" unicode="&#xc5;" horiz-adv-x="1429" 
d="M899 1468q-73 0 -122 41t-50 109q0 79 57.5 132.5t141.5 53.5q74 0 124 -43t50 -112q0 -78 -58.5 -129.5t-142.5 -51.5zM920 1704q-35 0 -56.5 -22.5t-21.5 -55.5q0 -57 63 -57q36 0 58 21.5t22 54.5q0 29 -17.5 44t-47.5 15zM1307 0h-203l-72 344h-678l-192 -344h-221
l815 1434h239zM850 1233l-404 -723h553z" />
    <glyph glyph-name="AE" unicode="&#xc6;" horiz-adv-x="2115" 
d="M2152 1434l-30 -164h-776l-76 -430h667l-28 -164h-666l-90 -512h795l-29 -164h-997l61 344h-541l-258 -344h-243l1093 1434h137l3 -7l2 7h976zM1149 1286l-580 -772h443z" />
    <glyph glyph-name="Ccedilla" unicode="&#xc7;" horiz-adv-x="1607" 
d="M782 145q93 0 176 31t144.5 85t106.5 120.5t73 142.5h213q-79 -247 -271 -396.5t-452 -152.5q-12 -22 -43 -45q90 -6 140.5 -51t50.5 -115q0 -91 -80 -144.5t-195 -53.5q-130 0 -188.5 66.5t-24.5 154.5h127q-21 -57 5.5 -90t86.5 -33q61 0 100.5 30t39.5 79
q0 86 -115 86q-56 0 -107 -23l-34 80q76 26 118 68q-239 32 -373.5 200.5t-134.5 427.5q0 174 64.5 330.5t175 269.5t264.5 179.5t326 66.5q119 0 219.5 -31.5t169.5 -87.5t111 -133.5t44 -170t-32 -197.5h-207q43 139 13.5 239t-119.5 155.5t-220 55.5q-131 0 -245.5 -57.5
t-192 -151.5t-122 -215.5t-44.5 -249.5q0 -214 118.5 -341.5t313.5 -127.5z" />
    <glyph glyph-name="Egrave" unicode="&#xc8;" horiz-adv-x="1284" 
d="M874 1731l97 -224h-142l-151 224h196zM1321 1434l-31 -164h-776l-76 -430h668l-29 -164h-665l-90 -512h794l-29 -164h-997l254 1434h977z" />
    <glyph glyph-name="Eacute" unicode="&#xc9;" horiz-adv-x="1284" 
d="M918 1731h208l-229 -224h-154zM1321 1434l-31 -164h-776l-76 -430h668l-29 -164h-665l-90 -512h794l-29 -164h-997l254 1434h977z" />
    <glyph glyph-name="Ecircumflex" unicode="&#xca;" horiz-adv-x="1284" 
d="M1008 1507l-127 140l-172 -140h-191l273 224h196l199 -224h-178zM1321 1434l-31 -164h-776l-76 -430h668l-29 -164h-665l-90 -512h794l-29 -164h-997l254 1434h977z" />
    <glyph glyph-name="Edieresis" unicode="&#xcb;" horiz-adv-x="1284" 
d="M635 1530q-45 0 -74 29t-29 73q0 51 35 87t86 36q46 0 74.5 -29t28.5 -75q0 -52 -35 -86.5t-86 -34.5zM1079 1530q-47 0 -75.5 28.5t-28.5 73.5q0 51 35 87t86 36q47 0 75.5 -29t28.5 -75q0 -52 -35 -86.5t-86 -34.5zM1321 1434l-31 -164h-776l-76 -430h668l-29 -164
h-665l-90 -512h794l-29 -164h-997l254 1434h977z" />
    <glyph glyph-name="Igrave" unicode="&#xcc;" horiz-adv-x="563" 
d="M573 1507h-141l-151 224h196zM291 0h-201l254 1434h201z" />
    <glyph glyph-name="Iacute" unicode="&#xcd;" horiz-adv-x="563" 
d="M502 1507h-154l174 224h209zM291 0h-201l254 1434h201z" />
    <glyph glyph-name="Icircumflex" unicode="&#xce;" horiz-adv-x="563" 
d="M393 1731h197l198 -224h-178l-127 140l-172 -140h-190zM291 0h-201l254 1434h201z" />
    <glyph glyph-name="Idieresis" unicode="&#xcf;" horiz-adv-x="563" 
d="M301 1530q-45 0 -73.5 28.5t-28.5 73.5q0 51 34.5 87t85.5 36q46 0 74.5 -29t28.5 -75q0 -52 -35 -86.5t-86 -34.5zM621 1530q-45 0 -74 29t-29 73q0 52 34.5 87.5t86.5 35.5q46 0 74 -29t28 -75q0 -52 -34.5 -86.5t-85.5 -34.5zM291 0h-201l254 1434h201z" />
    <glyph glyph-name="Eth" unicode="&#xd0;" horiz-adv-x="1533" 
d="M385 1434h512q270 0 428 -165.5t158 -443.5q0 -170 -62 -322t-170 -263t-262.5 -175.5t-331.5 -64.5h-526l113 641h-138l27 152h139zM362 168h320q129 0 241 53t189.5 141.5t121.5 206.5t44 246q0 205 -108.5 328t-297.5 123h-317l-84 -473h322l-29 -152h-318z" />
    <glyph glyph-name="Ntilde" unicode="&#xd1;" horiz-adv-x="1540" 
d="M780 1518h-118q-17 102 31.5 158.5t137.5 56.5q43 0 83 -16t65 -34.5t57 -34.5t60 -16q39 0 57 28t10 69h121q12 -99 -34.5 -158.5t-139.5 -59.5q-43 0 -83 16t-64 34.5t-54.5 34.5t-58.5 16q-42 0 -60 -28t-10 -66zM1104 215l217 1219h201l-254 -1434h-283l-475 1237
l-219 -1237h-201l254 1434h293z" />
    <glyph glyph-name="Ograve" unicode="&#xd2;" horiz-adv-x="1646" 
d="M1118 1507h-141l-152 224h197zM748 -25q-275 0 -441 169t-166 450q0 171 64 329.5t174 276.5t265.5 188t328.5 70q277 0 441.5 -168.5t164.5 -449.5q0 -170 -63.5 -328t-172.5 -276.5t-265 -189.5t-330 -71zM760 145q172 0 314.5 100.5t220 259t77.5 333.5
q0 209 -110 329.5t-301 120.5q-130 0 -246 -59t-195.5 -155.5t-125.5 -221.5t-46 -256q0 -209 111 -330t301 -121z" />
    <glyph glyph-name="Oacute" unicode="&#xd3;" horiz-adv-x="1646" 
d="M1044 1507h-153l174 224h209zM748 -25q-275 0 -441 169t-166 450q0 171 64 329.5t174 276.5t265.5 188t328.5 70q277 0 441.5 -168.5t164.5 -449.5q0 -170 -63.5 -328t-172.5 -276.5t-265 -189.5t-330 -71zM760 145q172 0 314.5 100.5t220 259t77.5 333.5
q0 209 -110 329.5t-301 120.5q-130 0 -246 -59t-195.5 -155.5t-125.5 -221.5t-46 -256q0 -209 111 -330t301 -121z" />
    <glyph glyph-name="Ocircumflex" unicode="&#xd4;" horiz-adv-x="1646" 
d="M1153 1507l-127 140l-172 -140h-190l272 224h197l198 -224h-178zM973 1458q277 0 441.5 -168.5t164.5 -449.5q0 -170 -63.5 -328t-172.5 -276.5t-265 -189.5t-330 -71q-275 0 -441 169t-166 450q0 171 64 329.5t174 276.5t265.5 188t328.5 70zM760 145q172 0 314.5 100.5
t220 259t77.5 333.5q0 209 -110 329.5t-301 120.5q-130 0 -246 -59t-195.5 -155.5t-125.5 -221.5t-46 -256q0 -209 111 -330t301 -121z" />
    <glyph glyph-name="Otilde" unicode="&#xd5;" horiz-adv-x="1646" 
d="M827 1518h-118q-17 102 32 158.5t138 56.5q54 0 102 -25.5t87.5 -50.5t74.5 -25q39 0 57 28t10 69h121q12 -99 -34.5 -158.5t-139.5 -59.5q-43 0 -83 16t-64 34.5t-54.5 34.5t-58.5 16q-42 0 -60 -28t-10 -66zM748 -25q-275 0 -441 169t-166 450q0 171 64 329.5
t174 276.5t265.5 188t328.5 70q277 0 441.5 -168.5t164.5 -449.5q0 -170 -63.5 -328t-172.5 -276.5t-265 -189.5t-330 -71zM760 145q172 0 314.5 100.5t220 259t77.5 333.5q0 209 -110 329.5t-301 120.5q-130 0 -246 -59t-195.5 -155.5t-125.5 -221.5t-46 -256
q0 -209 111 -330t301 -121z" />
    <glyph glyph-name="Odieresis" unicode="&#xd6;" horiz-adv-x="1646" 
d="M782 1530q-45 0 -73.5 28.5t-28.5 73.5q0 51 35 87t86 36q46 0 74 -29t28 -75q0 -52 -35 -86.5t-86 -34.5zM1227 1530q-47 0 -76 28.5t-29 73.5q0 51 35 87t86 36q47 0 76 -29t29 -75q0 -52 -35 -86.5t-86 -34.5zM748 -25q-275 0 -441 169t-166 450q0 171 64 329.5
t174 276.5t265.5 188t328.5 70q277 0 441.5 -168.5t164.5 -449.5q0 -170 -63.5 -328t-172.5 -276.5t-265 -189.5t-330 -71zM760 145q172 0 314.5 100.5t220 259t77.5 333.5q0 209 -110 329.5t-301 120.5q-130 0 -246 -59t-195.5 -155.5t-125.5 -221.5t-46 -256
q0 -209 111 -330t301 -121z" />
    <glyph glyph-name="multiply" unicode="&#xd7;" horiz-adv-x="1372" 
d="M1163 1133l103 -117l-437 -373l318 -385l-137 -117l-320 385l-450 -385l-103 117l455 387l-307 371l139 117l305 -369z" />
    <glyph glyph-name="Oslash" unicode="&#xd8;" horiz-adv-x="1646" 
d="M1550 1403l-123 -129q152 -164 152 -434q0 -170 -63.5 -328t-172.5 -276.5t-265 -189.5t-330 -71q-253 0 -418 146l-133 -139l-56 49l138 145q-138 163 -138 418q0 171 64 329.5t174 276.5t265.5 188t328.5 70q242 0 401 -131l117 123zM348 596q0 -162 70 -274l823 866
q-106 100 -280 100q-130 0 -246 -59t-195.5 -155.5t-125.5 -221.5t-46 -256zM760 145q172 0 314.5 100.5t220 259t77.5 333.5q0 174 -82 292l-827 -868q111 -117 297 -117z" />
    <glyph glyph-name="Ugrave" unicode="&#xd9;" horiz-adv-x="1492" 
d="M1038 1507h-141l-152 224h197zM670 -23q-289 0 -416 173t-70 493l140 791h200l-139 -789q-87 -495 299 -495q196 0 312 127t161 382l137 775h199l-141 -803q-57 -323 -229.5 -488.5t-452.5 -165.5z" />
    <glyph glyph-name="Uacute" unicode="&#xda;" horiz-adv-x="1492" 
d="M967 1507h-154l174 224h209zM670 -23q-289 0 -416 173t-70 493l140 791h200l-139 -789q-87 -495 299 -495q196 0 312 127t161 382l137 775h199l-141 -803q-57 -323 -229.5 -488.5t-452.5 -165.5z" />
    <glyph glyph-name="Ucircumflex" unicode="&#xdb;" horiz-adv-x="1492" 
d="M1075 1507l-127 140l-172 -140h-190l272 224h197l198 -224h-178zM1157 659l137 775h199l-141 -803q-57 -323 -229.5 -488.5t-452.5 -165.5q-289 0 -416 173t-70 493l140 791h200l-139 -789q-87 -495 299 -495q196 0 312 127t161 382z" />
    <glyph glyph-name="Udieresis" unicode="&#xdc;" horiz-adv-x="1492" 
d="M705 1530q-45 0 -74 29t-29 73q0 51 35 87t86 36q46 0 74 -29t28 -75q0 -52 -34.5 -86.5t-85.5 -34.5zM1149 1530q-47 0 -76 28.5t-29 73.5q0 51 35 87t86 36q47 0 76 -29t29 -75q0 -52 -35 -86.5t-86 -34.5zM670 -23q-289 0 -416 173t-70 493l140 791h200l-139 -789
q-87 -495 299 -495q196 0 312 127t161 382l137 775h199l-141 -803q-57 -323 -229.5 -488.5t-452.5 -165.5z" />
    <glyph glyph-name="Yacute" unicode="&#xdd;" horiz-adv-x="1359" 
d="M918 1731h208l-229 -224h-154zM1264 1434h227l-698 -850l-103 -584h-201l107 598l-403 836h219l303 -672z" />
    <glyph glyph-name="Thorn" unicode="&#xde;" horiz-adv-x="1415" 
d="M496 1159h419q204 0 315 -99.5t111 -279.5q0 -217 -153.5 -339t-409.5 -122h-430l-57 -319h-201l254 1434h201zM377 487h426q152 0 242 78t90 207q0 106 -63 162.5t-185 56.5h-420z" />
    <glyph glyph-name="germandbls" unicode="&#xdf;" horiz-adv-x="1298" 
d="M862 768q156 -39 246 -137t90 -244q0 -176 -127 -294t-321 -118q-191 0 -278.5 115.5t-25.5 292.5h148q-35 -119 10.5 -186.5t151.5 -67.5q119 0 191.5 78t72.5 190q0 134 -114.5 205.5t-334.5 71.5l29 157q169 0 271 70t102 195q0 94 -59.5 143t-168.5 49
q-61 0 -111.5 -16t-85.5 -39t-64 -61.5t-45.5 -71t-31 -80.5t-20.5 -76.5t-14 -71.5l-146 -872h-190l147 887q9 53 20.5 99.5t34 106t51 108t73.5 98t99.5 82.5t131 54t166.5 21q197 0 304 -90t107 -242q0 -135 -83 -226.5t-226 -129.5z" />
    <glyph glyph-name="agrave" unicode="&#xe0;" horiz-adv-x="1105" 
d="M721 1434l86 -275h-141l-146 275h201zM612 1049q153 0 251.5 -64.5t133.5 -175t9 -254.5l-99 -555h-172l37 201q-75 -108 -183 -167t-241 -59q-150 0 -236.5 72.5t-86.5 194.5q0 167 152 267.5t378 100.5q141 0 262 -41l2 9q8 43 8.5 82.5t-10.5 81.5t-34.5 73t-69 50.5
t-109.5 19.5q-115 0 -179.5 -59t-59.5 -156h-189q-13 173 111.5 276t324.5 103zM395 123q138 0 249 86t163 223q-102 45 -234 45q-154 0 -256 -58t-102 -159q0 -67 47.5 -102t132.5 -35z" />
    <glyph glyph-name="aacute" unicode="&#xe1;" horiz-adv-x="1105" 
d="M729 1434h209l-242 -275h-149zM612 1049q153 0 251.5 -64.5t133.5 -175t9 -254.5l-99 -555h-172l37 201q-75 -108 -183 -167t-241 -59q-150 0 -236.5 72.5t-86.5 194.5q0 167 152 267.5t378 100.5q141 0 262 -41l2 9q8 43 8.5 82.5t-10.5 81.5t-34.5 73t-69 50.5
t-109.5 19.5q-115 0 -179.5 -59t-59.5 -156h-189q-13 173 111.5 276t324.5 103zM395 123q138 0 249 86t163 223q-102 45 -234 45q-154 0 -256 -58t-102 -159q0 -67 47.5 -102t132.5 -35z" />
    <glyph glyph-name="acircumflex" unicode="&#xe2;" horiz-adv-x="1105" 
d="M797 1159l-92 160l-148 -160h-186l254 275h184l166 -275h-178zM612 1049q153 0 251.5 -64.5t133.5 -175t9 -254.5l-99 -555h-172l37 201q-75 -108 -183 -167t-241 -59q-150 0 -236.5 72.5t-86.5 194.5q0 167 152 267.5t378 100.5q141 0 262 -41l2 9q8 43 8.5 82.5
t-10.5 81.5t-34.5 73t-69 50.5t-109.5 19.5q-115 0 -179.5 -59t-59.5 -156h-189q-13 173 111.5 276t324.5 103zM395 123q138 0 249 86t163 223q-102 45 -234 45q-154 0 -256 -58t-102 -159q0 -67 47.5 -102t132.5 -35z" />
    <glyph glyph-name="atilde" unicode="&#xe3;" horiz-adv-x="1105" 
d="M506 1176h-127q-13 104 38.5 167.5t143.5 63.5q42 0 81.5 -16t64 -35t55.5 -35t59 -16q40 0 58.5 30t15.5 72h129q12 -103 -40 -168t-150 -65q-43 0 -81.5 15.5t-61.5 34.5t-52.5 34.5t-56.5 15.5q-43 0 -63.5 -31.5t-12.5 -66.5zM612 1049q153 0 251.5 -64.5t133.5 -175
t9 -254.5l-99 -555h-172l37 201q-75 -108 -183 -167t-241 -59q-150 0 -236.5 72.5t-86.5 194.5q0 167 152 267.5t378 100.5q141 0 262 -41l2 9q8 43 8.5 82.5t-10.5 81.5t-34.5 73t-69 50.5t-109.5 19.5q-115 0 -179.5 -59t-59.5 -156h-189q-13 173 111.5 276t324.5 103z
M395 123q138 0 249 86t163 223q-102 45 -234 45q-154 0 -256 -58t-102 -159q0 -67 47.5 -102t132.5 -35z" />
    <glyph glyph-name="adieresis" unicode="&#xe4;" horiz-adv-x="1105" 
d="M498 1180q-46 0 -74.5 29t-28.5 73q0 51 35 87t86 36q45 0 73.5 -30t28.5 -75q0 -52 -34.5 -86t-85.5 -34zM879 1180q-46 0 -75.5 29t-29.5 73q0 51 35.5 87t87.5 36q45 0 73.5 -30t28.5 -75q0 -52 -34.5 -86t-85.5 -34zM612 1049q153 0 251.5 -64.5t133.5 -175t9 -254.5
l-99 -555h-172l37 201q-75 -108 -183 -167t-241 -59q-150 0 -236.5 72.5t-86.5 194.5q0 167 152 267.5t378 100.5q141 0 262 -41l2 9q8 43 8.5 82.5t-10.5 81.5t-34.5 73t-69 50.5t-109.5 19.5q-115 0 -179.5 -59t-59.5 -156h-189q-13 173 111.5 276t324.5 103zM395 123
q138 0 249 86t163 223q-102 45 -234 45q-154 0 -256 -58t-102 -159q0 -67 47.5 -102t132.5 -35z" />
    <glyph glyph-name="aring" unicode="&#xe5;" horiz-adv-x="1105" 
d="M688 1147q-74 0 -123 46t-49 116q0 77 59.5 129.5t143.5 52.5q74 0 122 -45t48 -113q0 -79 -59 -132.5t-142 -53.5zM715 1389q-35 0 -58.5 -22t-23.5 -56q0 -28 16 -45t45 -17q35 0 58.5 23t23.5 57q0 28 -16.5 44t-44.5 16zM612 1049q153 0 251.5 -64.5t133.5 -175
t9 -254.5l-99 -555h-172l37 201q-75 -108 -183 -167t-241 -59q-150 0 -236.5 72.5t-86.5 194.5q0 167 152 267.5t378 100.5q141 0 262 -41l2 9q8 43 8.5 82.5t-10.5 81.5t-34.5 73t-69 50.5t-109.5 19.5q-115 0 -179.5 -59t-59.5 -156h-189q-13 173 111.5 276t324.5 103z
M395 123q138 0 249 86t163 223q-102 45 -234 45q-154 0 -256 -58t-102 -159q0 -67 47.5 -102t132.5 -35z" />
    <glyph glyph-name="ae" unicode="&#xe6;" horiz-adv-x="1878" 
d="M1264 141q98 0 179 47.5t126 128.5h207q-74 -162 -211.5 -252t-313.5 -90q-155 0 -263.5 70.5t-156.5 198.5q-80 -127 -202 -198t-275 -71q-156 0 -242.5 72t-86.5 195q0 167 152 267.5t378 100.5q142 0 254 -39v7q8 43 8.5 82.5t-10.5 81.5t-34.5 73t-69 50.5
t-109.5 19.5q-113 0 -178 -59t-60 -156h-188q-10 112 44 199t154.5 133.5t229.5 46.5q135 0 224.5 -52.5t129.5 -144.5q80 93 194 145t249 52q134 0 233.5 -51.5t147.5 -135t45.5 -194t-62.5 -224.5h-764q0 -143 72 -223t199 -80zM1380 893q-143 0 -241.5 -92.5
t-130.5 -235.5h589q51 138 -9 233t-208 95zM395 123q133 0 242.5 82t163.5 213v16q-93 43 -228 43q-154 0 -256 -58t-102 -159q0 -67 47.5 -102t132.5 -35z" />
    <glyph glyph-name="ccedilla" unicode="&#xe7;" horiz-adv-x="1179" 
d="M520 141q111 0 202.5 62t141.5 168h209q-69 -177 -209 -283t-327 -113q-18 -27 -45 -45q89 -6 139.5 -51t50.5 -115q0 -91 -80 -144.5t-194 -53.5q-130 0 -188.5 66.5t-24.5 154.5h127q-21 -57 5.5 -90t86.5 -33q61 0 100 30t39 79q0 86 -115 86q-55 0 -106 -23l-35 80
q76 26 119 66q-166 25 -260.5 138t-94.5 298q0 168 76 311.5t219 231.5t322 88q158 0 266 -66t138.5 -179t-25.5 -263h-189q54 156 -1.5 249t-202.5 93q-122 0 -216.5 -68t-142 -171t-47.5 -218q0 -138 70 -211.5t192 -73.5z" />
    <glyph glyph-name="egrave" unicode="&#xe8;" horiz-adv-x="1157" 
d="M745 1434l86 -275h-141l-145 275h200zM535 141q99 0 180.5 47.5t128.5 128.5h211q-75 -162 -215 -252t-318 -90q-212 0 -335.5 124.5t-123.5 336.5q0 126 44.5 238.5t123 195t191.5 131t244 48.5q109 0 196.5 -33t142 -91.5t79.5 -134t12.5 -165.5t-62.5 -181h-774
q0 -142 73 -222.5t202 -80.5zM653 893q-146 0 -246.5 -92.5t-132.5 -235.5h598q52 138 -8.5 233t-210.5 95z" />
    <glyph glyph-name="eacute" unicode="&#xe9;" horiz-adv-x="1157" 
d="M752 1434h209l-242 -275h-150zM535 141q99 0 180.5 47.5t128.5 128.5h211q-75 -162 -215 -252t-318 -90q-212 0 -335.5 124.5t-123.5 336.5q0 126 44.5 238.5t123 195t191.5 131t244 48.5q109 0 196.5 -33t142 -91.5t79.5 -134t12.5 -165.5t-62.5 -181h-774
q0 -142 73 -222.5t202 -80.5zM653 893q-146 0 -246.5 -92.5t-132.5 -235.5h598q52 138 -8.5 233t-210.5 95z" />
    <glyph glyph-name="ecircumflex" unicode="&#xea;" horiz-adv-x="1157" 
d="M819 1159l-92 160l-147 -160h-187l254 275h184l166 -275h-178zM535 141q99 0 180.5 47.5t128.5 128.5h211q-75 -162 -215 -252t-318 -90q-212 0 -335.5 124.5t-123.5 336.5q0 126 44.5 238.5t123 195t191.5 131t244 48.5q109 0 196.5 -33t142 -91.5t79.5 -134
t12.5 -165.5t-62.5 -181h-774q0 -142 73 -222.5t202 -80.5zM653 893q-146 0 -246.5 -92.5t-132.5 -235.5h598q52 138 -8.5 233t-210.5 95z" />
    <glyph glyph-name="edieresis" unicode="&#xeb;" horiz-adv-x="1157" 
d="M522 1180q-45 0 -73.5 28.5t-28.5 73.5q0 51 35 87t86 36q45 0 73.5 -30t28.5 -75q0 -52 -35 -86t-86 -34zM903 1180q-46 0 -75 29t-29 73q0 51 35.5 87t87.5 36q45 0 73.5 -30t28.5 -75q0 -52 -35 -86t-86 -34zM535 141q99 0 180.5 47.5t128.5 128.5h211
q-75 -162 -215 -252t-318 -90q-212 0 -335.5 124.5t-123.5 336.5q0 126 44.5 238.5t123 195t191.5 131t244 48.5q109 0 196.5 -33t142 -91.5t79.5 -134t12.5 -165.5t-62.5 -181h-774q0 -142 73 -222.5t202 -80.5zM653 893q-146 0 -246.5 -92.5t-132.5 -235.5h598
q52 138 -8.5 233t-210.5 95z" />
    <glyph glyph-name="igrave" unicode="&#xec;" horiz-adv-x="448" 
d="M473 1159h-141l-146 275h201zM229 0h-190l180 1024h191z" />
    <glyph glyph-name="iacute" unicode="&#xed;" horiz-adv-x="448" 
d="M360 1159h-149l182 275h209zM229 0h-190l180 1024h191z" />
    <glyph glyph-name="icircumflex" unicode="&#xee;" horiz-adv-x="448" 
d="M289 1434h184l166 -275h-178l-92 160l-148 -160h-186zM229 0h-190l180 1024h191z" />
    <glyph glyph-name="idieresis" unicode="&#xef;" horiz-adv-x="448" 
d="M184 1182q-46 0 -74 28t-28 72q0 51 34.5 86t86.5 35q45 0 72.5 -29t27.5 -74q0 -52 -34 -85t-85 -33zM502 1182q-46 0 -73.5 28t-27.5 72q0 51 34 86t85 35q45 0 74 -29t29 -74q0 -52 -34.5 -85t-86.5 -33zM229 0h-190l180 1024h191z" />
    <glyph glyph-name="eth" unicode="&#xf0;" horiz-adv-x="1165" 
d="M1098 1315l-211 -82q229 -241 229 -549q0 -139 -45.5 -268t-125 -226.5t-197.5 -156t-254 -58.5q-200 0 -318.5 118.5t-118.5 314.5q0 154 72 283t200 204.5t283 75.5q128 0 214.5 -52.5t123.5 -148.5q-15 226 -188 414l-344 -133l-37 98l299 117q-103 92 -229 168h196
q91 -62 156 -119l260 100zM514 135q109 0 199.5 63.5t139 160.5t48.5 200q0 121 -71 189.5t-193 68.5q-166 0 -274.5 -118.5t-108.5 -282.5q0 -128 69.5 -204.5t190.5 -76.5z" />
    <glyph glyph-name="ntilde" unicode="&#xf1;" horiz-adv-x="1124" 
d="M496 1176h-127q-13 104 38.5 167.5t143.5 63.5q42 0 81.5 -16t64 -35t55.5 -35t59 -16q40 0 58.5 30t15.5 72h129q12 -103 -40.5 -168t-150.5 -65q-43 0 -81.5 15.5t-61.5 34.5t-52.5 34.5t-56.5 15.5q-43 0 -63 -31t-12 -67zM760 1049q65 0 115.5 -17.5t81 -45.5
t50.5 -68t27.5 -79.5t8.5 -85.5t-2.5 -81.5t-10.5 -71.5l-106 -600h-191l109 610q49 279 -158 279q-136 0 -241.5 -112t-137.5 -294l-86 -483h-190l180 1024h190l-37 -217q62 114 166.5 178t231.5 64z" />
    <glyph glyph-name="ograve" unicode="&#xf2;" horiz-adv-x="1183" 
d="M840 1159h-142l-145 275h201zM512 -25q-208 0 -329.5 120t-121.5 331q0 127 46.5 242t127 199t195 133t244.5 49q207 0 327.5 -118t120.5 -331q0 -169 -77 -312t-217.5 -228t-315.5 -85zM528 141q115 0 207 65t140.5 167.5t48.5 218.5q0 137 -70.5 214t-196.5 77
q-115 0 -208 -64.5t-142 -166.5t-49 -218q0 -137 72 -215t198 -78z" />
    <glyph glyph-name="oacute" unicode="&#xf3;" horiz-adv-x="1183" 
d="M727 1159h-149l182 275h209zM512 -25q-208 0 -329.5 120t-121.5 331q0 127 46.5 242t127 199t195 133t244.5 49q207 0 327.5 -118t120.5 -331q0 -169 -77 -312t-217.5 -228t-315.5 -85zM528 141q115 0 207 65t140.5 167.5t48.5 218.5q0 137 -70.5 214t-196.5 77
q-115 0 -208 -64.5t-142 -166.5t-49 -218q0 -137 72 -215t198 -78z" />
    <glyph glyph-name="ocircumflex" unicode="&#xf4;" horiz-adv-x="1183" 
d="M827 1159l-92 160l-147 -160h-187l254 275h185l166 -275h-179zM674 1049q207 0 327.5 -118t120.5 -331q0 -169 -77 -312t-217.5 -228t-315.5 -85q-208 0 -329.5 120t-121.5 331q0 127 46.5 242t127 199t195 133t244.5 49zM528 141q115 0 207 65t140.5 167.5t48.5 218.5
q0 137 -70.5 214t-196.5 77q-115 0 -208 -64.5t-142 -166.5t-49 -218q0 -137 72 -215t198 -78z" />
    <glyph glyph-name="otilde" unicode="&#xf5;" horiz-adv-x="1183" 
d="M537 1176h-127q-13 104 38.5 167.5t143.5 63.5q42 0 81.5 -16t64 -35t55.5 -35t59 -16q40 0 58.5 30t15.5 72h129q12 -103 -40.5 -168t-150.5 -65q-43 0 -81.5 15.5t-61.5 34.5t-52.5 34.5t-56.5 15.5q-43 0 -63 -31t-12 -67zM512 -25q-208 0 -329.5 120t-121.5 331
q0 127 46.5 242t127 199t195 133t244.5 49q207 0 327.5 -118t120.5 -331q0 -169 -77 -312t-217.5 -228t-315.5 -85zM528 141q115 0 207 65t140.5 167.5t48.5 218.5q0 137 -70.5 214t-196.5 77q-115 0 -208 -64.5t-142 -166.5t-49 -218q0 -137 72 -215t198 -78z" />
    <glyph glyph-name="odieresis" unicode="&#xf6;" horiz-adv-x="1183" 
d="M528 1180q-45 0 -73.5 28.5t-28.5 73.5q0 51 35 87t86 36q45 0 73.5 -30t28.5 -75q0 -52 -35 -86t-86 -34zM909 1180q-46 0 -75 29t-29 73q0 51 35.5 87t87.5 36q45 0 73.5 -30t28.5 -75q0 -52 -35 -86t-86 -34zM512 -25q-208 0 -329.5 120t-121.5 331q0 127 46.5 242
t127 199t195 133t244.5 49q207 0 327.5 -118t120.5 -331q0 -169 -77 -312t-217.5 -228t-315.5 -85zM528 141q115 0 207 65t140.5 167.5t48.5 218.5q0 137 -70.5 214t-196.5 77q-115 0 -208 -64.5t-142 -166.5t-49 -218q0 -137 72 -215t198 -78z" />
    <glyph glyph-name="divide" unicode="&#xf7;" horiz-adv-x="1372" 
d="M778 961q-49 0 -80.5 32t-31.5 82q0 56 38 91.5t93 35.5q51 0 80.5 -30t29.5 -80q0 -56 -38 -93.5t-91 -37.5zM1219 567h-1045l25 148h1046zM625 90q-49 0 -81 32.5t-32 82.5q0 56 38 91.5t93 35.5q51 0 81 -30.5t30 -80.5q0 -56 -38 -93.5t-91 -37.5z" />
    <glyph glyph-name="oslash" unicode="&#xf8;" horiz-adv-x="1183" 
d="M1094 993l-76 -80q104 -116 104 -313q0 -169 -77 -312t-217.5 -228t-315.5 -85q-176 0 -293 88l-74 -77l-59 45l78 84q-103 119 -103 311q0 127 46.5 242t127 199t195 133t244.5 49q177 0 289 -86l71 75zM258 434q0 -106 43 -176l533 567q-71 58 -177 58
q-115 0 -208 -64.5t-142 -166.5t-49 -218zM528 141q115 0 207 65t140.5 167.5t48.5 218.5q0 106 -43 176l-533 -567q69 -60 180 -60z" />
    <glyph glyph-name="ugrave" unicode="&#xf9;" horiz-adv-x="1112" 
d="M713 1434l86 -275h-142l-145 275h201zM807 530l86 494h190l-180 -1024h-190l35 199q-75 -106 -176 -162.5t-214 -56.5q-77 0 -133 27.5t-85.5 72t-43 106t-12.5 123t12 129.5l103 586h190l-104 -600q-10 -53 -9.5 -99t13 -90.5t49.5 -70t96 -25.5q58 0 116.5 25.5
t110 73.5t91 123.5t55.5 168.5z" />
    <glyph glyph-name="uacute" unicode="&#xfa;" horiz-adv-x="1112" 
d="M719 1434h209l-242 -275h-149zM807 530l86 494h190l-180 -1024h-190l35 199q-75 -106 -176 -162.5t-214 -56.5q-77 0 -133 27.5t-85.5 72t-43 106t-12.5 123t12 129.5l103 586h190l-104 -600q-10 -53 -9.5 -99t13 -90.5t49.5 -70t96 -25.5q58 0 116.5 25.5t110 73.5
t91 123.5t55.5 168.5z" />
    <glyph glyph-name="ucircumflex" unicode="&#xfb;" horiz-adv-x="1112" 
d="M786 1159l-92 160l-147 -160h-187l254 275h185l166 -275h-179zM807 530l86 494h190l-180 -1024h-190l35 199q-75 -106 -176 -162.5t-214 -56.5q-77 0 -133 27.5t-85.5 72t-43 106t-12.5 123t12 129.5l103 586h190l-104 -600q-10 -53 -9.5 -99t13 -90.5t49.5 -70t96 -25.5
q58 0 116.5 25.5t110 73.5t91 123.5t55.5 168.5z" />
    <glyph glyph-name="udieresis" unicode="&#xfc;" horiz-adv-x="1112" 
d="M487 1180q-45 0 -73.5 28.5t-28.5 73.5q0 51 35 87t86 36q45 0 73.5 -30t28.5 -75q0 -52 -35 -86t-86 -34zM868 1180q-46 0 -75 29t-29 73q0 51 35.5 87t87.5 36q45 0 73.5 -30t28.5 -75q0 -52 -35 -86t-86 -34zM807 530l86 494h190l-180 -1024h-190l35 199
q-75 -106 -176 -162.5t-214 -56.5q-77 0 -133 27.5t-85.5 72t-43 106t-12.5 123t12 129.5l103 586h190l-104 -600q-10 -53 -9.5 -99t13 -90.5t49.5 -70t96 -25.5q58 0 116.5 25.5t110 73.5t91 123.5t55.5 168.5z" />
    <glyph glyph-name="yacute" unicode="&#xfd;" horiz-adv-x="1030" 
d="M684 1434h209l-242 -275h-149zM475 164l426 860h207l-596 -1151q-155 -307 -446 -307q-93 0 -168 33l16 161q69 -28 137 -28q94 0 171.5 55t129.5 147l-241 1090h202z" />
    <glyph glyph-name="thorn" unicode="&#xfe;" horiz-adv-x="1228" 
d="M768 1049q183 0 291 -121t108 -324q0 -168 -69 -311t-197.5 -230.5t-288.5 -87.5q-133 0 -223.5 62t-132.5 174l-109 -621h-190l326 1844h190l-102 -590q73 96 174.5 150.5t222.5 54.5zM575 141q114 0 206 63t141 164.5t49 217.5q0 138 -74.5 217.5t-200.5 79.5
q-87 0 -162.5 -38t-125.5 -101t-78.5 -144t-28.5 -168q0 -135 72.5 -213t201.5 -78z" />
    <glyph glyph-name="ydieresis" unicode="&#xff;" horiz-adv-x="1030" 
d="M455 1180q-45 0 -74 29t-29 73q0 51 35 87t86 36q45 0 73.5 -30t28.5 -75q0 -52 -34.5 -86t-85.5 -34zM836 1180q-46 0 -75.5 29t-29.5 73q0 51 35.5 87t87.5 36q45 0 73.5 -30t28.5 -75q0 -52 -34.5 -86t-85.5 -34zM475 164l426 860h207l-596 -1151q-155 -307 -446 -307
q-93 0 -168 33l16 161q69 -28 137 -28q94 0 171.5 55t129.5 147l-241 1090h202z" />
    <glyph glyph-name="Amacron" unicode="&#x100;" horiz-adv-x="1429" 
d="M596 1675h647l-24 -133h-646zM1307 0h-203l-72 344h-678l-192 -344h-221l815 1434h239zM850 1233l-404 -723h553z" />
    <glyph glyph-name="amacron" unicode="&#x101;" horiz-adv-x="1105" 
d="M399 1339h617l-25 -143h-616zM612 1049q153 0 251.5 -64.5t133.5 -175t9 -254.5l-99 -555h-172l37 201q-75 -108 -183 -167t-241 -59q-150 0 -236.5 72.5t-86.5 194.5q0 167 152 267.5t378 100.5q141 0 262 -41l2 9q8 43 8.5 82.5t-10.5 81.5t-34.5 73t-69 50.5
t-109.5 19.5q-115 0 -179.5 -59t-59.5 -156h-189q-13 173 111.5 276t324.5 103zM395 123q138 0 249 86t163 223q-102 45 -234 45q-154 0 -256 -58t-102 -159q0 -67 47.5 -102t132.5 -35z" />
    <glyph glyph-name="Abreve" unicode="&#x102;" horiz-adv-x="1429" 
d="M897 1501q-129 0 -202.5 62t-53.5 168h139q-8 -49 25 -79t104 -30q72 0 115.5 30.5t54.5 78.5h142q-18 -108 -106.5 -169t-217.5 -61zM1307 0h-203l-72 344h-678l-192 -344h-221l815 1434h239zM850 1233l-404 -723h553z" />
    <glyph glyph-name="abreve" unicode="&#x103;" horiz-adv-x="1105" 
d="M688 1155q-140 0 -220 77.5t-65 201.5h154q-9 -71 26 -109.5t115 -38.5q159 0 191 148h153q-23 -131 -121 -205t-233 -74zM612 1049q153 0 251.5 -64.5t133.5 -175t9 -254.5l-99 -555h-172l37 201q-75 -108 -183 -167t-241 -59q-150 0 -236.5 72.5t-86.5 194.5
q0 167 152 267.5t378 100.5q141 0 262 -41l2 9q8 43 8.5 82.5t-10.5 81.5t-34.5 73t-69 50.5t-109.5 19.5q-115 0 -179.5 -59t-59.5 -156h-189q-13 173 111.5 276t324.5 103zM395 123q138 0 249 86t163 223q-102 45 -234 45q-154 0 -256 -58t-102 -159q0 -67 47.5 -102
t132.5 -35z" />
    <glyph glyph-name="Aogonek" unicode="&#x104;" horiz-adv-x="1429" 
d="M1307 0h-99q-109 -25 -186.5 -79.5t-77.5 -117.5q0 -31 22 -50t64 -19q65 0 119 28l-19 -174q-52 -22 -133 -22q-113 0 -174 46.5t-61 121.5q0 93 92.5 171t243.5 122l-66 317h-678l-192 -344h-221l815 1434h239zM850 1233l-404 -723h553z" />
    <glyph glyph-name="aogonek" unicode="&#x105;" horiz-adv-x="1105" 
d="M612 1049q153 0 251.5 -64.5t133.5 -175t9 -254.5l-99 -555h-14q-109 -25 -186.5 -79.5t-77.5 -117.5q0 -31 22 -50t64 -19q65 0 119 28l-19 -174q-52 -22 -133 -22q-113 0 -174.5 46.5t-61.5 121.5q0 85 79.5 157.5t211.5 120.5l35 189q-75 -108 -183 -167t-241 -59
q-150 0 -236.5 72.5t-86.5 194.5q0 167 152 267.5t378 100.5q141 0 262 -41l2 9q8 43 8.5 82.5t-10.5 81.5t-34.5 73t-69 50.5t-109.5 19.5q-115 0 -179.5 -59t-59.5 -156h-189q-13 173 111.5 276t324.5 103zM395 123q138 0 249 86t163 223q-102 45 -234 45q-154 0 -256 -58
t-102 -159q0 -67 47.5 -102t132.5 -35z" />
    <glyph glyph-name="Cacute" unicode="&#x106;" horiz-adv-x="1607" 
d="M1032 1507h-153l174 224h209zM762 -25q-287 0 -452 174.5t-165 462.5q0 174 64.5 330.5t175 269.5t264.5 179.5t326 66.5q119 0 219.5 -31.5t169.5 -87.5t111 -133.5t44 -170t-32 -197.5h-207q43 139 13.5 239t-119.5 155.5t-220 55.5q-131 0 -245.5 -57.5t-192 -151.5
t-122 -215.5t-44.5 -249.5q0 -214 118.5 -341.5t313.5 -127.5q93 0 176 31t144.5 85t106.5 120.5t73 142.5h213q-81 -250 -275.5 -399.5t-457.5 -149.5z" />
    <glyph glyph-name="cacute" unicode="&#x107;" horiz-adv-x="1179" 
d="M725 1159h-150l183 275h209zM508 -25q-205 0 -326 116.5t-121 326.5q0 168 76 311.5t219 231.5t322 88q158 0 266 -66t138.5 -179t-25.5 -263h-189q54 156 -1.5 249t-202.5 93q-122 0 -216.5 -68t-142 -171t-47.5 -218q0 -138 70 -211.5t192 -73.5q111 0 202.5 62
t141.5 168h209q-72 -184 -220 -290t-345 -106z" />
    <glyph glyph-name="Cdotaccent" unicode="&#x10a;" horiz-adv-x="1607" 
d="M997 1532q-49 0 -80.5 31t-31.5 79q0 54 38 93t93 39q49 0 79.5 -31.5t30.5 -79.5q0 -56 -38 -93.5t-91 -37.5zM762 -25q-287 0 -452 174.5t-165 462.5q0 174 64.5 330.5t175 269.5t264.5 179.5t326 66.5q119 0 219.5 -31.5t169.5 -87.5t111 -133.5t44 -170t-32 -197.5
h-207q43 139 13.5 239t-119.5 155.5t-220 55.5q-131 0 -245.5 -57.5t-192 -151.5t-122 -215.5t-44.5 -249.5q0 -214 118.5 -341.5t313.5 -127.5q93 0 176 31t144.5 85t106.5 120.5t73 142.5h213q-81 -250 -275.5 -399.5t-457.5 -149.5z" />
    <glyph glyph-name="cdotaccent" unicode="&#x10b;" horiz-adv-x="1179" 
d="M721 1182q-50 0 -81.5 30.5t-31.5 79.5q0 54 38 92.5t93 38.5q49 0 80 -31t31 -79q0 -56 -38 -93.5t-91 -37.5zM508 -25q-205 0 -326 116.5t-121 326.5q0 168 76 311.5t219 231.5t322 88q158 0 266 -66t138.5 -179t-25.5 -263h-189q54 156 -1.5 249t-202.5 93
q-122 0 -216.5 -68t-142 -171t-47.5 -218q0 -138 70 -211.5t192 -73.5q111 0 202.5 62t141.5 168h209q-72 -184 -220 -290t-345 -106z" />
    <glyph glyph-name="Ccaron" unicode="&#x10c;" horiz-adv-x="1607" 
d="M1362 1731l-283 -224h-184l-201 224h180l123 -134l174 134h191zM782 145q93 0 176 31t144.5 85t106.5 120.5t73 142.5h213q-81 -250 -275.5 -399.5t-457.5 -149.5q-287 0 -452 174.5t-165 462.5q0 174 64.5 330.5t175 269.5t264.5 179.5t326 66.5q119 0 219.5 -31.5
t169.5 -87.5t111 -133.5t44 -170t-32 -197.5h-207q43 139 13.5 239t-119.5 155.5t-220 55.5q-131 0 -245.5 -57.5t-192 -151.5t-122 -215.5t-44.5 -249.5q0 -214 118.5 -341.5t313.5 -127.5z" />
    <glyph glyph-name="ccaron" unicode="&#x10d;" horiz-adv-x="1179" 
d="M1057 1434l-262 -275h-185l-157 275h176l90 -160l149 160h189zM520 141q111 0 202.5 62t141.5 168h209q-72 -184 -220 -290t-345 -106q-205 0 -326 116.5t-121 326.5q0 168 76 311.5t219 231.5t322 88q158 0 266 -66t138.5 -179t-25.5 -263h-189q54 156 -1.5 249
t-202.5 93q-122 0 -216.5 -68t-142 -171t-47.5 -218q0 -138 70 -211.5t192 -73.5z" />
    <glyph glyph-name="Dcaron" unicode="&#x10e;" horiz-adv-x="1492" 
d="M1300 1731l-282 -224h-184l-201 224h180l123 -134l174 134h190zM344 1434h512q270 0 428 -165.5t158 -443.5q0 -170 -62 -322t-170 -263t-262.5 -175.5t-331.5 -64.5h-526zM322 168h319q129 0 241 53t189.5 141.5t121.5 206.5t44 246q0 205 -108.5 328t-297.5 123h-317z
" />
    <glyph glyph-name="dcaron" unicode="&#x10f;" horiz-adv-x="1222" 
d="M967 821l106 613h191l-254 -1434h-191l29 164q-73 -89 -171.5 -139t-213.5 -50q-183 0 -292.5 122.5t-109.5 326.5q0 169 73.5 312.5t203.5 228t285 84.5q128 0 215.5 -60t128.5 -168zM1268 1071l84 363h166l-127 -363h-123zM532 141q113 0 205 62.5t141.5 164
t49.5 218.5q0 139 -71.5 218t-199.5 79q-113 0 -205.5 -62.5t-143 -164t-50.5 -216.5q0 -139 73 -219t201 -80z" />
    <glyph glyph-name="Dcroat" unicode="&#x110;" horiz-adv-x="1533" 
d="M385 1434h512q270 0 428 -165.5t158 -443.5q0 -170 -62 -322t-170 -263t-262.5 -175.5t-331.5 -64.5h-526l113 641h-138l27 152h139zM362 168h320q129 0 241 53t189.5 141.5t121.5 206.5t44 246q0 205 -108.5 328t-297.5 123h-317l-84 -473h322l-29 -152h-318z" />
    <glyph glyph-name="dcroat" unicode="&#x111;" horiz-adv-x="1243" 
d="M1239 1290h117l-21 -123h-118l-207 -1167h-191l29 164q-73 -89 -171.5 -139t-213.5 -50q-183 0 -292.5 122.5t-109.5 326.5q0 169 73.5 312.5t203.5 228t285 84.5q128 0 215.5 -60t128.5 -168l61 346h-260l20 123h261l24 144h191zM532 141q113 0 205 62.5t141.5 164
t49.5 218.5q0 139 -71.5 218t-199.5 79q-113 0 -205.5 -62.5t-143 -164t-50.5 -216.5q0 -139 73 -219t201 -80z" />
    <glyph glyph-name="Emacron" unicode="&#x112;" horiz-adv-x="1284" 
d="M559 1675h647l-24 -133h-645zM1321 1434l-31 -164h-776l-76 -430h668l-29 -164h-665l-90 -512h794l-29 -164h-997l254 1434h977z" />
    <glyph glyph-name="emacron" unicode="&#x113;" horiz-adv-x="1157" 
d="M422 1339h616l-24 -143h-617zM535 141q99 0 180.5 47.5t128.5 128.5h211q-75 -162 -215 -252t-318 -90q-212 0 -335.5 124.5t-123.5 336.5q0 126 44.5 238.5t123 195t191.5 131t244 48.5q109 0 196.5 -33t142 -91.5t79.5 -134t12.5 -165.5t-62.5 -181h-774
q0 -142 73 -222.5t202 -80.5zM653 893q-146 0 -246.5 -92.5t-132.5 -235.5h598q52 138 -8.5 233t-210.5 95z" />
    <glyph glyph-name="Ebreve" unicode="&#x114;" horiz-adv-x="1284" 
d="M858 1501q-129 0 -202.5 62t-53.5 168h139q-8 -49 25 -79t104 -30q72 0 115.5 30.5t54.5 78.5h142q-18 -108 -106.5 -169t-217.5 -61zM1321 1434l-31 -164h-776l-76 -430h668l-29 -164h-665l-90 -512h794l-29 -164h-997l254 1434h977z" />
    <glyph glyph-name="ebreve" unicode="&#x115;" horiz-adv-x="1157" 
d="M713 1155q-140 0 -220 77.5t-65 201.5h154q-9 -71 26 -109.5t115 -38.5q158 0 190 148h154q-23 -131 -121 -205t-233 -74zM535 141q99 0 180.5 47.5t128.5 128.5h211q-75 -162 -215 -252t-318 -90q-212 0 -335.5 124.5t-123.5 336.5q0 126 44.5 238.5t123 195t191.5 131
t244 48.5q109 0 196.5 -33t142 -91.5t79.5 -134t12.5 -165.5t-62.5 -181h-774q0 -142 73 -222.5t202 -80.5zM653 893q-146 0 -246.5 -92.5t-132.5 -235.5h598q52 138 -8.5 233t-210.5 95z" />
    <glyph glyph-name="Edotaccent" unicode="&#x116;" horiz-adv-x="1284" 
d="M862 1532q-49 0 -80.5 31t-31.5 79q0 54 38 93t93 39q49 0 79.5 -31.5t30.5 -79.5q0 -56 -38 -93.5t-91 -37.5zM1321 1434l-31 -164h-776l-76 -430h668l-29 -164h-665l-90 -512h794l-29 -164h-997l254 1434h977z" />
    <glyph glyph-name="edotaccent" unicode="&#x117;" horiz-adv-x="1157" 
d="M715 1182q-50 0 -81.5 30.5t-31.5 79.5q0 54 38 92.5t93 38.5q49 0 80 -31t31 -79q0 -56 -38 -93.5t-91 -37.5zM535 141q99 0 180.5 47.5t128.5 128.5h211q-75 -162 -215 -252t-318 -90q-212 0 -335.5 124.5t-123.5 336.5q0 126 44.5 238.5t123 195t191.5 131t244 48.5
q109 0 196.5 -33t142 -91.5t79.5 -134t12.5 -165.5t-62.5 -181h-774q0 -142 73 -222.5t202 -80.5zM653 893q-146 0 -246.5 -92.5t-132.5 -235.5h598q52 138 -8.5 233t-210.5 95z" />
    <glyph glyph-name="Eogonek" unicode="&#x118;" horiz-adv-x="1284" 
d="M1321 1434l-31 -164h-776l-76 -430h668l-29 -164h-665l-90 -512h794l-24 -146v-18q-109 -25 -187 -79.5t-78 -117.5q0 -31 22 -50t64 -19q65 0 119 28l-18 -174q-52 -22 -133 -22q-113 0 -174.5 46.5t-61.5 121.5q0 80 69.5 149.5t188.5 116.5h-813l254 1434h977z" />
    <glyph glyph-name="eogonek" unicode="&#x119;" horiz-adv-x="1157" 
d="M535 141q99 0 180.5 47.5t128.5 128.5h211q-28 -67 -79 -132.5t-102.5 -113.5t-99.5 -93.5t-78 -90t-30 -86.5q0 -66 64 -80.5t140 23.5l-16 -158q-57 -24 -139 -24q-116 0 -177 45t-61 119q0 35 13 67.5t29 55.5t51.5 53.5t57.5 47t70 50.5q-86 -25 -176 -25
q-212 0 -335.5 124.5t-123.5 336.5q0 126 44.5 238.5t123 195t191.5 131t244 48.5q109 0 196.5 -33t142 -91.5t79.5 -134t12.5 -165.5t-62.5 -181h-774q0 -142 73 -222.5t202 -80.5zM653 893q-146 0 -246.5 -92.5t-132.5 -235.5h598q52 138 -8.5 233t-210.5 95z" />
    <glyph glyph-name="Ecaron" unicode="&#x11a;" horiz-adv-x="1284" 
d="M1229 1731l-283 -224h-184l-201 224h180l123 -134l174 134h191zM1321 1434l-31 -164h-776l-76 -430h668l-29 -164h-665l-90 -512h794l-29 -164h-997l254 1434h977z" />
    <glyph glyph-name="ecaron" unicode="&#x11b;" horiz-adv-x="1157" 
d="M1051 1434l-263 -275h-184l-158 275h177l90 -160l149 160h189zM535 141q99 0 180.5 47.5t128.5 128.5h211q-75 -162 -215 -252t-318 -90q-212 0 -335.5 124.5t-123.5 336.5q0 126 44.5 238.5t123 195t191.5 131t244 48.5q109 0 196.5 -33t142 -91.5t79.5 -134
t12.5 -165.5t-62.5 -181h-774q0 -142 73 -222.5t202 -80.5zM653 893q-146 0 -246.5 -92.5t-132.5 -235.5h598q52 138 -8.5 233t-210.5 95z" />
    <glyph glyph-name="Gcircumflex" unicode="&#x11c;" horiz-adv-x="1572" 
d="M1157 1507l-127 140l-172 -140h-190l272 224h197l198 -224h-178zM852 743h711l-29 -163h-344q160 -69 160 -234q0 -113 -78.5 -198.5t-205.5 -129t-280 -43.5q-305 0 -473 172.5t-168 462.5q0 173 62.5 328.5t171.5 270t265 182t335 67.5q181 0 305.5 -64t172.5 -185
t3 -281h-209q53 175 -30 265.5t-263 90.5q-137 0 -252.5 -55t-192.5 -148t-120 -214t-43 -253q0 -221 117 -345t324 -124q156 0 257 67.5t101 172.5q0 94 -85.5 144.5t-242.5 50.5z" />
    <glyph glyph-name="gcircumflex" unicode="&#x11d;" horiz-adv-x="1144" 
d="M780 1159l-92 160l-147 -160h-187l254 275h185l165 -275h-178zM1026 1149h137q10 -94 -30.5 -189.5t-112.5 -146.5q16 -56 16 -111q0 -153 -109 -281t-290 -212q139 -21 222 -95.5t83 -191.5q0 -106 -68.5 -188t-183 -125t-254.5 -43q-215 0 -337.5 103t-116.5 270h194
q-6 -98 67.5 -152.5t200.5 -54.5q133 0 219.5 53t86.5 143q0 78 -73 122t-210 44q-146 0 -295 -47l18 131q267 37 449 154q-71 -21 -152 -21q-170 0 -272 89t-102 239q0 122 69.5 216.5t184.5 144t254 49.5q238 0 350 -144q40 41 54.5 111.5t0.5 132.5zM307 639
q0 -85 62.5 -133.5t169.5 -48.5q130 0 215.5 67.5t85.5 169.5q0 86 -63.5 137.5t-170.5 51.5q-128 0 -213.5 -70.5t-85.5 -173.5z" />
    <glyph glyph-name="Gbreve" unicode="&#x11e;" horiz-adv-x="1572" 
d="M1010 1501q-129 0 -202.5 62t-53.5 168h139q-8 -49 25 -79t104 -30q72 0 115.5 30.5t54.5 78.5h141q-18 -108 -106.5 -169t-216.5 -61zM852 743h711l-29 -163h-344q160 -69 160 -234q0 -113 -78.5 -198.5t-205.5 -129t-280 -43.5q-305 0 -473 172.5t-168 462.5
q0 173 62.5 328.5t171.5 270t265 182t335 67.5q181 0 305.5 -64t172.5 -185t3 -281h-209q53 175 -30 265.5t-263 90.5q-137 0 -252.5 -55t-192.5 -148t-120 -214t-43 -253q0 -221 117 -345t324 -124q156 0 257 67.5t101 172.5q0 94 -85.5 144.5t-242.5 50.5z" />
    <glyph glyph-name="gbreve" unicode="&#x11f;" horiz-adv-x="1144" 
d="M674 1155q-140 0 -220 77.5t-65 201.5h154q-9 -71 26 -109.5t115 -38.5q158 0 190 148h154q-23 -131 -121 -205t-233 -74zM1026 1149h137q10 -94 -30.5 -189.5t-112.5 -146.5q16 -56 16 -111q0 -153 -109 -281t-290 -212q139 -21 222 -95.5t83 -191.5q0 -106 -68.5 -188
t-183 -125t-254.5 -43q-215 0 -337.5 103t-116.5 270h194q-6 -98 67.5 -152.5t200.5 -54.5q133 0 219.5 53t86.5 143q0 78 -73 122t-210 44q-146 0 -295 -47l18 131q267 37 449 154q-71 -21 -152 -21q-170 0 -272 89t-102 239q0 122 69.5 216.5t184.5 144t254 49.5
q238 0 350 -144q40 41 54.5 111.5t0.5 132.5zM307 639q0 -85 62.5 -133.5t169.5 -48.5q130 0 215.5 67.5t85.5 169.5q0 86 -63.5 137.5t-170.5 51.5q-128 0 -213.5 -70.5t-85.5 -173.5z" />
    <glyph glyph-name="Gdotaccent" unicode="&#x120;" horiz-adv-x="1572" 
d="M1014 1532q-49 0 -81 31.5t-32 78.5q0 54 38 93t93 39q49 0 80 -31.5t31 -79.5q0 -56 -38 -93.5t-91 -37.5zM852 743h711l-29 -163h-344q160 -69 160 -234q0 -113 -78.5 -198.5t-205.5 -129t-280 -43.5q-305 0 -473 172.5t-168 462.5q0 173 62.5 328.5t171.5 270t265 182
t335 67.5q181 0 305.5 -64t172.5 -185t3 -281h-209q53 175 -30 265.5t-263 90.5q-137 0 -252.5 -55t-192.5 -148t-120 -214t-43 -253q0 -221 117 -345t324 -124q156 0 257 67.5t101 172.5q0 94 -85.5 144.5t-242.5 50.5z" />
    <glyph glyph-name="gdotaccent" unicode="&#x121;" horiz-adv-x="1144" 
d="M676 1182q-50 0 -81.5 30.5t-31.5 79.5q0 54 38 92.5t93 38.5q49 0 80 -31t31 -79q0 -56 -38 -93.5t-91 -37.5zM1026 1149h137q10 -94 -30.5 -189.5t-112.5 -146.5q16 -56 16 -111q0 -153 -109 -281t-290 -212q139 -21 222 -95.5t83 -191.5q0 -106 -68.5 -188t-183 -125
t-254.5 -43q-215 0 -337.5 103t-116.5 270h194q-6 -98 67.5 -152.5t200.5 -54.5q133 0 219.5 53t86.5 143q0 78 -73 122t-210 44q-146 0 -295 -47l18 131q267 37 449 154q-71 -21 -152 -21q-170 0 -272 89t-102 239q0 122 69.5 216.5t184.5 144t254 49.5q238 0 350 -144
q40 41 54.5 111.5t0.5 132.5zM307 639q0 -85 62.5 -133.5t169.5 -48.5q130 0 215.5 67.5t85.5 169.5q0 86 -63.5 137.5t-170.5 51.5q-128 0 -213.5 -70.5t-85.5 -173.5z" />
    <glyph glyph-name="uni0122" unicode="&#x122;" horiz-adv-x="1572" 
d="M852 743h711l-29 -163h-344q160 -69 160 -234q0 -113 -78.5 -198.5t-205.5 -129t-280 -43.5q-305 0 -473 172.5t-168 462.5q0 173 62.5 328.5t171.5 270t265 182t335 67.5q181 0 305.5 -64t172.5 -185t3 -281h-209q53 175 -30 265.5t-263 90.5q-137 0 -252.5 -55
t-192.5 -148t-120 -214t-43 -253q0 -221 117 -345t324 -124q156 0 257 67.5t101 172.5q0 94 -85.5 144.5t-242.5 50.5zM737 -98q54 0 86.5 -33.5t32.5 -97.5q0 -94 -69 -149.5t-181 -55.5v86q67 0 109 23.5t53 66.5q-23 -10 -51 -10q-44 0 -69 20.5t-25 57.5q0 45 32 68.5
t82 23.5z" />
    <glyph glyph-name="uni0123" unicode="&#x123;" horiz-adv-x="1144" 
d="M672 1124q-57 0 -92 34t-35 99q0 91 72.5 146t183.5 55l-4 -94q-62 0 -104 -20t-52 -56q24 4 39 4q48 0 75 -21t27 -59q0 -42 -31 -65t-79 -23zM1026 1149h137q10 -94 -30.5 -189.5t-112.5 -146.5q16 -56 16 -111q0 -153 -109 -281t-290 -212q139 -21 222 -95.5
t83 -191.5q0 -106 -68.5 -188t-183 -125t-254.5 -43q-215 0 -337.5 103t-116.5 270h194q-6 -98 67.5 -152.5t200.5 -54.5q133 0 219.5 53t86.5 143q0 78 -73 122t-210 44q-146 0 -295 -47l18 131q267 37 449 154q-71 -21 -152 -21q-170 0 -272 89t-102 239q0 122 69.5 216.5
t184.5 144t254 49.5q238 0 350 -144q40 41 54.5 111.5t0.5 132.5zM307 639q0 -85 62.5 -133.5t169.5 -48.5q130 0 215.5 67.5t85.5 169.5q0 86 -63.5 137.5t-170.5 51.5q-128 0 -213.5 -70.5t-85.5 -173.5z" />
    <glyph glyph-name="Hcircumflex" unicode="&#x124;" horiz-adv-x="1556" 
d="M1106 1507l-127 140l-172 -140h-191l273 224h196l199 -224h-178zM1231 838l106 596h201l-254 -1434h-201l119 674h-792l-119 -674h-201l254 1434h201l-107 -596h793z" />
    <glyph glyph-name="hcircumflex" unicode="&#x125;" horiz-adv-x="1122" 
d="M543 1507l-127 140l-172 -140h-191l273 224h196l199 -224h-178zM760 1049q174 0 242 -115.5t30 -323.5l-108 -610h-191l111 623q47 266 -152 266q-139 0 -247 -113t-140 -293l-86 -483h-190l254 1434h190l-111 -627q63 116 167 179t231 63z" />
    <glyph glyph-name="Hbar" unicode="&#x126;" horiz-adv-x="1597" 
d="M1518 1206h90v-131h-113l-190 -1075h-201l119 674h-793l-119 -674h-200l190 1075h-90v131h113l41 228h200l-41 -228h793l41 228h201zM459 838h792l43 237h-792z" />
    <glyph glyph-name="hbar" unicode="&#x127;" horiz-adv-x="1142" 
d="M780 1049q174 0 242.5 -115.5t30.5 -323.5l-109 -610h-190l110 623q47 266 -151 266q-139 0 -247 -113t-140 -293l-86 -483h-191l207 1167h-119l21 123h121l24 144h191l-25 -144h256l-20 -123h-259l-63 -360q63 116 166.5 179t230.5 63z" />
    <glyph glyph-name="Itilde" unicode="&#x128;" horiz-adv-x="563" 
d="M283 1518h-119q-17 102 32 158.5t138 56.5q54 0 102 -25.5t87.5 -50.5t74.5 -25q39 0 57.5 28t10.5 69h120q12 -99 -34.5 -158.5t-139.5 -59.5q-43 0 -83 16t-64 34.5t-54.5 34.5t-58.5 16q-42 0 -59.5 -28t-9.5 -66zM291 0h-201l254 1434h201z" />
    <glyph glyph-name="itilde" unicode="&#x129;" horiz-adv-x="448" 
d="M190 1176h-124q-13 104 38 167.5t140 63.5q41 0 75 -16t53 -35t45 -35t52 -16q40 0 57.5 30t12.5 72h129q6 -105 -44 -169t-145 -64q-35 0 -63.5 10.5t-46.5 25t-34.5 29t-35.5 25t-41 10.5q-38 0 -56 -28t-12 -70zM229 0h-190l180 1024h191z" />
    <glyph glyph-name="Imacron" unicode="&#x12a;" horiz-adv-x="563" 
d="M786 1542h-645l23 133h647zM291 0h-201l254 1434h201z" />
    <glyph glyph-name="imacron" unicode="&#x12b;" horiz-adv-x="448" 
d="M578 1196h-461l22 143h463zM229 0h-190l180 1024h191z" />
    <glyph glyph-name="Iogonek" unicode="&#x12e;" horiz-adv-x="563" 
d="M92 12l252 1422h201l-254 -1434h-8q-92 -37 -158 -88t-66 -113q0 -31 21 -48t61 -17q59 0 119 33l-18 -175q-60 -26 -146 -26q-119 0 -182.5 49t-63.5 129q0 161 242 268z" />
    <glyph glyph-name="iogonek" unicode="&#x12f;" horiz-adv-x="448" 
d="M375 1423q49 0 79.5 -31t30.5 -79q0 -56 -38 -93.5t-91 -37.5q-50 0 -81 30.5t-31 79.5q0 54 38 92.5t93 38.5zM41 14l178 1010h191l-181 -1024h-2q-91 -36 -157 -87.5t-66 -113.5q0 -31 21 -48t61 -17q58 0 119 33l-19 -175q-60 -26 -145 -26q-119 0 -182.5 49
t-63.5 129q0 159 246 270z" />
    <glyph glyph-name="Idotaccent" unicode="&#x130;" horiz-adv-x="563" 
d="M467 1532q-49 0 -81 31.5t-32 78.5q0 54 38 93t93 39q49 0 80 -31.5t31 -79.5q0 -56 -38 -93.5t-91 -37.5zM291 0h-201l254 1434h201z" />
    <glyph glyph-name="dotlessi" unicode="&#x131;" horiz-adv-x="448" 
d="M229 0h-190l180 1024h191z" />
    <glyph glyph-name="IJ" unicode="&#x132;" horiz-adv-x="1083" 
d="M455 -25q-114 0 -196 38t-120.5 104t-35 156t52.5 192h186q-67 -148 -35 -235t154 -87q222 0 274 299l176 992h201l-174 -981q-13 -74 -32 -135.5t-56.5 -127.5t-87.5 -111t-129 -74.5t-178 -29.5zM391 600h-201l150 834h199z" />
    <glyph glyph-name="ij" unicode="&#x133;" horiz-adv-x="946" 
d="M356 1182q-50 0 -81 30.5t-31 79.5q0 54 38 92.5t93 38.5q49 0 79.5 -31t30.5 -79q0 -56 -38 -93.5t-91 -37.5zM854 1182q-50 0 -81.5 30.5t-31.5 79.5q0 54 38.5 92.5t94.5 38.5q49 0 79 -31t30 -79q0 -57 -37.5 -94t-91.5 -37zM229 0h-190l180 1024h191zM401 -434
q-98 0 -168 45l25 158q53 -37 121 -37q112 0 139 155l199 1137h190l-200 -1141q-3 -23 -6 -40t-13.5 -52.5t-23.5 -62t-37 -59t-53.5 -53.5t-74.5 -35.5t-98 -14.5z" />
    <glyph glyph-name="Jcircumflex" unicode="&#x134;" horiz-adv-x="980" 
d="M858 1731h197l198 -224h-178l-127 140l-172 -140h-190zM633 442l176 992h201l-174 -981q-13 -74 -32 -135.5t-56.5 -127.5t-88 -111t-129.5 -74.5t-178 -29.5q-114 0 -196 38t-120.5 104t-35 156t52.5 192h187q-67 -148 -35.5 -235t153.5 -87q223 0 275 299z" />
    <glyph glyph-name="jcircumflex" unicode="&#x135;" horiz-adv-x="536" 
d="M377 1434h184l166 -275h-178l-92 160l-148 -160h-186zM109 -113l198 1137h191l-201 -1141q-45 -317 -305 -317q-98 0 -168 45l24 158q53 -37 121 -37q113 0 140 155z" />
    <glyph glyph-name="uni0136" unicode="&#x136;" horiz-adv-x="1460" 
d="M1294 1434h256l-702 -574l491 -860h-239l-408 731l-317 -258l-84 -473h-201l254 1434h201l-129 -725zM612 -98q54 0 86.5 -33.5t32.5 -97.5q0 -94 -69 -149.5t-181 -55.5v86q67 0 109 23.5t53 66.5q-23 -10 -51 -10q-44 0 -69 20.5t-25 57.5q0 45 32 68.5t82 23.5z" />
    <glyph glyph-name="uni0137" unicode="&#x137;" horiz-adv-x="1142" 
d="M737 387q116 -57 186 -160t74 -227h-215q-9 139 -105.5 229.5t-252.5 102.5l16 123q110 0 205 32t155 95.5t60 146.5q0 71 -46 112.5t-128 41.5q-138 0 -243.5 -110t-137.5 -290l-86 -483h-190l254 1434h190l-111 -627q63 114 167.5 178t230.5 64q142 0 221.5 -77.5
t79.5 -205.5q0 -137 -88.5 -235t-235.5 -144zM446 -98q54 0 86.5 -33.5t32.5 -97.5q0 -94 -69 -149.5t-181 -55.5v86q67 0 109 23.5t53 66.5q-23 -10 -51 -10q-44 0 -69 20.5t-25 57.5q0 45 32 68.5t82 23.5z" />
    <glyph glyph-name="kgreenlandic" unicode="&#x138;" horiz-adv-x="1124" 
d="M899 1024h246l-481 -420l333 -604h-229l-258 471l-229 -199l-48 -272h-204l180 1024h205l-88 -504z" />
    <glyph glyph-name="Lacute" unicode="&#x139;" horiz-adv-x="1243" 
d="M522 1731h209l-229 -224h-154zM545 1434l-223 -1270h794l-29 -164h-997l254 1434h201z" />
    <glyph glyph-name="lacute" unicode="&#x13a;" horiz-adv-x="450" 
d="M432 1569h-149l182 274h209zM229 0h-190l254 1434h190z" />
    <glyph glyph-name="uni013B" unicode="&#x13b;" horiz-adv-x="1243" 
d="M545 1434l-223 -1270h794l-29 -164h-997l254 1434h201zM485 -98q54 0 86.5 -33.5t32.5 -97.5q0 -94 -69 -149.5t-181 -55.5v86q67 0 109 23.5t53 66.5q-23 -10 -51 -10q-44 0 -69 20.5t-25 57.5q0 45 32 68.5t82 23.5z" />
    <glyph glyph-name="uni013C" unicode="&#x13c;" horiz-adv-x="450" 
d="M39 0l254 1434h190l-254 -1434h-190zM109 -98q54 0 86 -33.5t32 -97.5q0 -94 -69 -149.5t-181 -55.5v86q67 0 109 23.5t53 66.5q-23 -10 -51 -10q-44 0 -69 20.5t-25 57.5q0 45 32.5 68.5t82.5 23.5z" />
    <glyph glyph-name="Lcaron" unicode="&#x13d;" horiz-adv-x="1243" 
d="M545 1434l-223 -1270h794l-29 -164h-997l254 1434h201zM719 1434h166l-127 -363h-123z" />
    <glyph glyph-name="lcaron" unicode="&#x13e;" horiz-adv-x="450" 
d="M229 0h-190l254 1434h190zM608 1071h-123l84 363h166z" />
    <glyph glyph-name="Ldot" unicode="&#x13f;" horiz-adv-x="1290" 
d="M545 1434l-223 -1270h794l-29 -164h-997l254 1434h201zM938 670q-52 0 -87.5 35t-35.5 86t35.5 85.5t87.5 34.5q50 0 84.5 -34.5t34.5 -85.5t-34.5 -86t-84.5 -35z" />
    <glyph glyph-name="ldot" unicode="&#x140;" horiz-adv-x="632" 
d="M229 0h-190l254 1434h190zM543 569q-52 0 -87.5 35t-35.5 86t35.5 87t87.5 36q49 0 84 -36t35 -87t-34.5 -86t-84.5 -35z" />
    <glyph glyph-name="Lslash" unicode="&#x141;" horiz-adv-x="1284" 
d="M453 668l-91 -504h795l-29 -164h-997l102 580l-147 -76v141l176 90l123 699h201l-107 -611l389 199v-141z" />
    <glyph glyph-name="lslash" unicode="&#x142;" horiz-adv-x="532" 
d="M424 862l178 129l-22 -151l-185 -131l-125 -709h-190l100 561l-166 -119l23 152l170 123l127 717h190z" />
    <glyph glyph-name="Nacute" unicode="&#x143;" horiz-adv-x="1540" 
d="M1020 1731h209l-230 -224h-153zM1104 215l217 1219h201l-254 -1434h-283l-475 1237l-219 -1237h-201l254 1434h293z" />
    <glyph glyph-name="nacute" unicode="&#x144;" horiz-adv-x="1124" 
d="M719 1434h209l-242 -275h-149zM760 1049q65 0 115.5 -17.5t81 -45.5t50.5 -68t27.5 -79.5t8.5 -85.5t-2.5 -81.5t-10.5 -71.5l-106 -600h-191l109 610q49 279 -158 279q-136 0 -241.5 -112t-137.5 -294l-86 -483h-190l180 1024h190l-37 -217q62 114 166.5 178t231.5 64z
" />
    <glyph glyph-name="uni0145" unicode="&#x145;" horiz-adv-x="1540" 
d="M1104 215l217 1219h201l-254 -1434h-283l-475 1237l-219 -1237h-201l254 1434h293zM672 -98q54 0 86.5 -33.5t32.5 -97.5q0 -94 -69 -149.5t-181 -55.5v86q67 0 108.5 23.5t52.5 66.5q-23 -10 -51 -10q-44 0 -69 20.5t-25 57.5q0 45 32.5 68.5t82.5 23.5z" />
    <glyph glyph-name="uni0146" unicode="&#x146;" horiz-adv-x="1124" 
d="M760 1049q65 0 115.5 -17.5t81 -45.5t50.5 -68t27.5 -79.5t8.5 -85.5t-2.5 -81.5t-10.5 -71.5l-106 -600h-191l109 610q49 279 -158 279q-136 0 -241.5 -112t-137.5 -294l-86 -483h-190l180 1024h190l-37 -217q62 114 166.5 178t231.5 64zM453 -98q54 0 86 -33.5
t32 -97.5q0 -94 -68.5 -149.5t-180.5 -55.5v86q67 0 108.5 23.5t52.5 66.5q-23 -10 -51 -10q-44 0 -69 20.5t-25 57.5q0 45 32.5 68.5t82.5 23.5z" />
    <glyph glyph-name="Ncaron" unicode="&#x147;" horiz-adv-x="1540" 
d="M1329 1731l-282 -224h-185l-200 224h180l123 -134l174 134h190zM1104 215l217 1219h201l-254 -1434h-283l-475 1237l-219 -1237h-201l254 1434h293z" />
    <glyph glyph-name="ncaron" unicode="&#x148;" horiz-adv-x="1124" 
d="M1018 1434l-262 -275h-185l-157 275h176l90 -160l149 160h189zM760 1049q65 0 115.5 -17.5t81 -45.5t50.5 -68t27.5 -79.5t8.5 -85.5t-2.5 -81.5t-10.5 -71.5l-106 -600h-191l109 610q49 279 -158 279q-136 0 -241.5 -112t-137.5 -294l-86 -483h-190l180 1024h190
l-37 -217q62 114 166.5 178t231.5 64z" />
    <glyph glyph-name="Eng" unicode="&#x14a;" horiz-adv-x="1558" 
d="M1038 1458q217 0 336 -150.5t119 -424.5q0 -109 -19.5 -217.5t-56 -209.5t-93 -187.5t-126.5 -151t-161 -101t-193 -36.5q-195 0 -272 122t6 324h196q-58 -116 -33 -192t127 -76q96 0 178.5 71.5t134.5 182t81.5 238.5t29.5 247q0 185 -73.5 288t-219.5 103
q-135 0 -259.5 -86t-215.5 -241t-125 -349l-108 -612h-201l254 1434h201l-51 -295q103 152 242 235.5t302 83.5z" />
    <glyph glyph-name="eng" unicode="&#x14b;" horiz-adv-x="1124" 
d="M760 1049q65 0 115.5 -17.5t81 -45.5t50.5 -68t27.5 -79.5t8.5 -85.5t-2.5 -81.5t-10.5 -71.5l-106 -600l-27 -145q-52 -289 -295 -289q-101 0 -164 39l19 162q64 -31 114 -31q115 0 140 133l22 131l109 610q49 279 -158 279q-136 0 -241.5 -112t-137.5 -294l-86 -483
h-190l180 1024h190l-37 -217q62 114 166.5 178t231.5 64z" />
    <glyph glyph-name="Omacron" unicode="&#x14c;" horiz-adv-x="1646" 
d="M1329 1542h-645l23 133h647zM748 -25q-275 0 -441 169t-166 450q0 171 64 329.5t174 276.5t265.5 188t328.5 70q277 0 441.5 -168.5t164.5 -449.5q0 -170 -63.5 -328t-172.5 -276.5t-265 -189.5t-330 -71zM760 145q172 0 314.5 100.5t220 259t77.5 333.5
q0 209 -110 329.5t-301 120.5q-130 0 -246 -59t-195.5 -155.5t-125.5 -221.5t-46 -256q0 -209 111 -330t301 -121z" />
    <glyph glyph-name="omacron" unicode="&#x14d;" horiz-adv-x="1183" 
d="M1022 1196h-616l24 143h617zM512 -25q-208 0 -329.5 120t-121.5 331q0 127 46.5 242t127 199t195 133t244.5 49q207 0 327.5 -118t120.5 -331q0 -169 -77 -312t-217.5 -228t-315.5 -85zM528 141q115 0 207 65t140.5 167.5t48.5 218.5q0 137 -70.5 214t-196.5 77
q-115 0 -208 -64.5t-142 -166.5t-49 -218q0 -137 72 -215t198 -78z" />
    <glyph glyph-name="Obreve" unicode="&#x14e;" horiz-adv-x="1646" 
d="M1006 1501q-129 0 -202.5 62t-53.5 168h139q-8 -49 25 -79t104 -30q72 0 115.5 30.5t54.5 78.5h141q-18 -108 -106.5 -169t-216.5 -61zM748 -25q-275 0 -441 169t-166 450q0 171 64 329.5t174 276.5t265.5 188t328.5 70q277 0 441.5 -168.5t164.5 -449.5
q0 -170 -63.5 -328t-172.5 -276.5t-265 -189.5t-330 -71zM760 145q172 0 314.5 100.5t220 259t77.5 333.5q0 209 -110 329.5t-301 120.5q-130 0 -246 -59t-195.5 -155.5t-125.5 -221.5t-46 -256q0 -209 111 -330t301 -121z" />
    <glyph glyph-name="obreve" unicode="&#x14f;" horiz-adv-x="1183" 
d="M719 1155q-140 0 -220 77.5t-65 201.5h154q-9 -71 26 -109.5t115 -38.5q159 0 191 148h153q-23 -131 -121 -205t-233 -74zM512 -25q-208 0 -329.5 120t-121.5 331q0 127 46.5 242t127 199t195 133t244.5 49q207 0 327.5 -118t120.5 -331q0 -169 -77 -312t-217.5 -228
t-315.5 -85zM528 141q115 0 207 65t140.5 167.5t48.5 218.5q0 137 -70.5 214t-196.5 77q-115 0 -208 -64.5t-142 -166.5t-49 -218q0 -137 72 -215t198 -78z" />
    <glyph glyph-name="Ohungarumlaut" unicode="&#x150;" horiz-adv-x="1646" 
d="M934 1507h-125l109 224h180zM1178 1507h-134l150 224h178zM748 -25q-275 0 -441 169t-166 450q0 171 64 329.5t174 276.5t265.5 188t328.5 70q277 0 441.5 -168.5t164.5 -449.5q0 -170 -63.5 -328t-172.5 -276.5t-265 -189.5t-330 -71zM760 145q172 0 314.5 100.5
t220 259t77.5 333.5q0 209 -110 329.5t-301 120.5q-130 0 -246 -59t-195.5 -155.5t-125.5 -221.5t-46 -256q0 -209 111 -330t301 -121z" />
    <glyph glyph-name="ohungarumlaut" unicode="&#x151;" horiz-adv-x="1183" 
d="M557 1159h-145l135 275h201zM856 1159h-145l135 275h201zM512 -25q-208 0 -329.5 120t-121.5 331q0 127 46.5 242t127 199t195 133t244.5 49q207 0 327.5 -118t120.5 -331q0 -169 -77 -312t-217.5 -228t-315.5 -85zM528 141q115 0 207 65t140.5 167.5t48.5 218.5
q0 137 -70.5 214t-196.5 77q-115 0 -208 -64.5t-142 -166.5t-49 -218q0 -137 72 -215t198 -78z" />
    <glyph glyph-name="OE" unicode="&#x152;" horiz-adv-x="2422" 
d="M2460 1434l-31 -164h-776l-76 -430h668l-29 -164h-666l-90 -512h795l-29 -164h-997l39 223q-222 -248 -543 -248q-149 0 -270.5 55.5t-196.5 156t-106 239t0 305.5q57 321 286.5 524t526.5 203q160 0 282 -66.5t195 -193.5l41 236h977zM743 145q146 0 275.5 73.5
t219.5 208t120 304.5q44 250 -65 403.5t-326 153.5q-146 0 -275 -72.5t-218.5 -205.5t-119.5 -303q-44 -251 64.5 -406.5t324.5 -155.5z" />
    <glyph glyph-name="oe" unicode="&#x153;" horiz-adv-x="2002" 
d="M1380 141q100 0 181.5 47.5t128.5 128.5h211q-75 -162 -215 -252t-318 -90q-137 0 -239 54t-158 153q-84 -98 -202 -152.5t-257 -54.5q-208 0 -329.5 120t-121.5 331q0 127 46.5 242t127 199t195 133t244.5 49q133 0 232 -50.5t155 -146.5q81 93 197 145t253 52
q136 0 237 -51.5t150 -135t46.5 -194t-64.5 -224.5h-774q0 -143 72.5 -223t201.5 -80zM1499 893q-143 0 -243 -89.5t-134 -228.5v-10h596q52 138 -8.5 233t-210.5 95zM528 141q143 0 246 96t137 240q3 42 13 96v19q0 137 -70.5 214t-196.5 77q-115 0 -208 -64.5t-142 -166.5
t-49 -218q0 -137 72 -215t198 -78z" />
    <glyph glyph-name="Racute" unicode="&#x154;" horiz-adv-x="1458" 
d="M975 1731h209l-230 -224h-153zM1417 1087q0 -158 -91 -270t-247 -160q94 -45 142 -141.5t51.5 -225t-17.5 -290.5h-198q16 121 21 208.5t-4.5 166t-37 126.5t-79 75.5t-128.5 27.5h-432l-106 -604h-201l254 1434h660q199 0 306 -90t107 -257zM424 758h405q170 0 274.5 85
t104.5 222q0 205 -233 205h-461z" />
    <glyph glyph-name="racute" unicode="&#x155;" horiz-adv-x="933" 
d="M670 1434h209l-242 -275h-150zM694 1049q108 0 173 -66.5t65 -175.5q0 -142 -90 -258h-197q88 143 88 225q0 51 -30.5 80t-84.5 29q-108 0 -194 -107.5t-117 -279.5l-88 -496h-190l180 1024h190l-32 -193q57 103 142.5 160.5t184.5 57.5z" />
    <glyph glyph-name="uni0156" unicode="&#x156;" horiz-adv-x="1458" 
d="M1417 1087q0 -158 -91 -270t-247 -160q94 -45 142 -141.5t51.5 -225t-17.5 -290.5h-198q16 121 21 208.5t-4.5 166t-37 126.5t-79 75.5t-128.5 27.5h-432l-106 -604h-201l254 1434h660q199 0 306 -90t107 -257zM424 758h405q170 0 274.5 85t104.5 222q0 205 -233 205
h-461zM633 -98q54 0 86.5 -33.5t32.5 -97.5q0 -94 -69 -149.5t-181 -55.5v86q67 0 109 23.5t53 66.5q-23 -10 -52 -10q-44 0 -69 20.5t-25 57.5q0 45 32.5 68.5t82.5 23.5z" />
    <glyph glyph-name="uni0157" unicode="&#x157;" horiz-adv-x="933" 
d="M694 1049q108 0 173 -66.5t65 -175.5q0 -142 -90 -258h-197q88 143 88 225q0 51 -30.5 80t-84.5 29q-108 0 -194 -107.5t-117 -279.5l-88 -496h-190l180 1024h190l-32 -193q57 103 142.5 160.5t184.5 57.5zM94 -98q54 0 86.5 -33.5t32.5 -97.5q0 -94 -69 -149.5
t-181 -55.5v86q67 0 109 23.5t53 66.5q-23 -10 -51 -10q-44 0 -69 20.5t-25 57.5q0 45 32 68.5t82 23.5z" />
    <glyph glyph-name="Rcaron" unicode="&#x158;" horiz-adv-x="1458" 
d="M1284 1731l-283 -224h-184l-201 224h181l123 -134l174 134h190zM1417 1087q0 -158 -91 -270t-247 -160q94 -45 142 -141.5t51.5 -225t-17.5 -290.5h-198q16 121 21 208.5t-4.5 166t-37 126.5t-79 75.5t-128.5 27.5h-432l-106 -604h-201l254 1434h660q199 0 306 -90
t107 -257zM424 758h405q170 0 274.5 85t104.5 222q0 205 -233 205h-461z" />
    <glyph glyph-name="rcaron" unicode="&#x159;" horiz-adv-x="933" 
d="M969 1434l-262 -275h-185l-157 275h176l90 -160l149 160h189zM694 1049q108 0 173 -66.5t65 -175.5q0 -142 -90 -258h-197q88 143 88 225q0 51 -30.5 80t-84.5 29q-108 0 -194 -107.5t-117 -279.5l-88 -496h-190l180 1024h190l-32 -193q57 103 142.5 160.5t184.5 57.5z
" />
    <glyph glyph-name="Sacute" unicode="&#x15a;" horiz-adv-x="1411" 
d="M920 1507h-154l174 224h209zM639 -25q-292 0 -431 138t-83 368h201q-34 -167 55 -253.5t274 -86.5q175 0 286.5 71t111.5 189q0 71 -45 118t-117 71.5t-158.5 43.5t-173.5 43t-159 60t-117 104.5t-45 166.5q0 135 81 238.5t218.5 157.5t306.5 54q138 0 244 -37
t166.5 -103.5t79 -158.5t-18.5 -203h-203q49 158 -30.5 247t-258.5 89q-161 0 -269 -71t-108 -187q0 -55 28 -94.5t75 -63.5t108 -41.5t128.5 -32.5t135 -32t128.5 -44.5t108 -65t75 -98t28 -140.5q0 -142 -84.5 -245t-223 -152.5t-313.5 -49.5z" />
    <glyph glyph-name="sacute" unicode="&#x15b;" horiz-adv-x="1062" 
d="M670 1159h-150l182 275h209zM459 -25q-225 0 -335.5 110.5t-70.5 285.5h187q-27 -115 36.5 -179.5t194.5 -64.5q118 0 196 48t78 122q0 34 -21 59t-56 40.5t-81 27.5t-96.5 22.5t-101 23t-96.5 32.5t-81 47t-56 70.5t-21 99.5q0 102 63.5 178.5t167 114t230.5 37.5
q216 0 324 -108t49 -277h-187q38 106 -18 168.5t-182 62.5q-108 0 -178 -46.5t-70 -115.5q0 -44 34 -73t87.5 -45t119 -29t131 -31.5t119 -45t87.5 -77t34 -121.5q0 -104 -69 -182t-178.5 -116t-239.5 -38z" />
    <glyph glyph-name="Scedilla" unicode="&#x15e;" horiz-adv-x="1411" 
d="M1315 956h-203q49 158 -30.5 247t-258.5 89q-161 0 -269 -71t-108 -187q0 -55 28 -94.5t75 -63.5t108 -41.5t128.5 -32.5t135 -32t128.5 -44.5t108 -65t75 -98t28 -140.5q0 -138 -80 -239.5t-213 -152.5t-303 -55q-14 -26 -43 -45q89 -6 139.5 -51t50.5 -115
q0 -91 -80 -144.5t-194 -53.5q-130 0 -188.5 66.5t-24.5 154.5h127q-21 -57 5.5 -90t86.5 -33q61 0 100 30t39 79q0 86 -115 86q-55 0 -106 -23l-35 80q67 23 115 64q-244 23 -355.5 157.5t-60.5 343.5h201q-34 -167 55 -253.5t274 -86.5q175 0 286.5 71t111.5 189
q0 71 -45 118t-117 71.5t-158.5 43.5t-173.5 43t-159 60t-117 104.5t-45 166.5q0 135 81 238.5t218.5 157.5t306.5 54q138 0 244 -37t166.5 -103.5t79 -158.5t-18.5 -203z" />
    <glyph glyph-name="scedilla" unicode="&#x15f;" horiz-adv-x="1062" 
d="M969 664h-187q38 106 -18 168.5t-182 62.5q-108 0 -178 -46.5t-70 -115.5q0 -44 34 -73t87.5 -45t119 -29t131 -31.5t119 -45t87.5 -77t34 -121.5q0 -100 -64 -176t-166 -115.5t-227 -44.5q-18 -27 -45 -45q90 -6 140.5 -51t50.5 -115q0 -91 -80 -144.5t-195 -53.5
q-130 0 -188.5 66.5t-24.5 154.5h127q-21 -57 6 -90t87 -33q61 0 100 30t39 79q0 86 -115 86q-55 0 -106 -23l-35 80q73 25 117 66q-181 22 -265 127.5t-49 261.5h187q-27 -115 36.5 -179.5t194.5 -64.5q118 0 196 48t78 122q0 34 -21 59t-56 40.5t-81 27.5t-96.5 22.5
t-101 23t-96.5 32.5t-81 47t-56 70.5t-21 99.5q0 102 63.5 178.5t167 114t230.5 37.5q216 0 324 -108t49 -277z" />
    <glyph glyph-name="Scaron" unicode="&#x160;" horiz-adv-x="1411" 
d="M1251 1731l-282 -224h-185l-200 224h180l123 -134l174 134h190zM1315 956h-203q49 158 -30.5 247t-258.5 89q-161 0 -269 -71t-108 -187q0 -55 28 -94.5t75 -63.5t108 -41.5t128.5 -32.5t135 -32t128.5 -44.5t108 -65t75 -98t28 -140.5q0 -142 -84.5 -245t-223 -152.5
t-313.5 -49.5q-292 0 -431 138t-83 368h201q-34 -167 55 -253.5t274 -86.5q175 0 286.5 71t111.5 189q0 71 -45 118t-117 71.5t-158.5 43.5t-173.5 43t-159 60t-117 104.5t-45 166.5q0 135 81 238.5t218.5 157.5t306.5 54q138 0 244 -37t166.5 -103.5t79 -158.5t-18.5 -203z
" />
    <glyph glyph-name="scaron" unicode="&#x161;" horiz-adv-x="1062" 
d="M1001 1434l-262 -275h-184l-158 275h176l91 -160l149 160h188zM596 1049q216 0 324 -108t49 -277h-187q38 106 -18 168.5t-182 62.5q-108 0 -178 -46.5t-70 -115.5q0 -44 34 -73t87.5 -45t119 -29t131 -31.5t119 -45t87.5 -77t34 -121.5q0 -104 -69 -182t-178.5 -116
t-239.5 -38q-225 0 -335.5 110.5t-70.5 285.5h187q-27 -115 36.5 -179.5t194.5 -64.5q118 0 196 48t78 122q0 34 -21 59t-56 40.5t-81 27.5t-96.5 22.5t-101 23t-96.5 32.5t-81 47t-56 70.5t-21 99.5q0 102 63.5 178.5t167 114t230.5 37.5z" />
    <glyph glyph-name="uni0162" unicode="&#x162;" horiz-adv-x="1316" 
d="M668 0h-54q-19 -46 -57 -70q90 -6 140.5 -51t50.5 -115q0 -91 -80 -144.5t-195 -53.5q-130 0 -188.5 66.5t-24.5 154.5h127q-21 -57 5.5 -90t86.5 -33q61 0 100 30t39 79q0 86 -114 86q-56 0 -107 -23l-35 80q90 28 136 84h-29l223 1270h-506l29 164h1212l-28 -164h-506z
" />
    <glyph glyph-name="uni0163" unicode="&#x163;" horiz-adv-x="800" 
d="M797 860h-297l-103 -577q-2 -16 -3 -26t-0.5 -29t6.5 -31.5t16.5 -26t31.5 -20.5t50 -7q70 0 149 45l-20 -170q-61 -41 -170 -41h-8q-14 -25 -43 -47q89 -4 139.5 -50t50.5 -116q0 -91 -80.5 -144.5t-193.5 -53.5q-131 0 -190.5 66.5t-25.5 154.5h130q-21 -57 5 -90
t87 -33t100 30t39 79q0 42 -30 64t-85 22t-106 -23l-35 80q84 27 131 78q-47 16 -78 48t-43.5 65.5t-15.5 75t0 68.5t8 54l96 555h-194l28 164h197l47 274h191l-50 -274h295z" />
    <glyph glyph-name="Tcaron" unicode="&#x164;" horiz-adv-x="1316" 
d="M1208 1731l-282 -224h-185l-200 224h180l123 -134l174 134h190zM215 1434h1212l-28 -164h-506l-225 -1270h-199l223 1270h-506z" />
    <glyph glyph-name="tcaron" unicode="&#x165;" horiz-adv-x="800" 
d="M711 1434h166l-127 -363h-123zM387 1298h191l-50 -274h295l-26 -164h-297l-103 -577q-2 -16 -3 -26t-0.5 -29t6.5 -31.5t16.5 -26t31.5 -20.5t50 -7q70 0 149 45l-20 -170q-61 -41 -170 -41q-59 0 -105 14t-73 36t-44 53.5t-23.5 60.5t-7.5 63.5t2 56.5t7 44l96 555h-194
l28 164h197z" />
    <glyph glyph-name="Tbar" unicode="&#x166;" horiz-adv-x="1316" 
d="M1427 1434l-28 -164h-506l-88 -498h227l-28 -151h-226l-110 -621h-199l109 621h-232l27 151h231l88 498h-506l29 164h1212z" />
    <glyph glyph-name="tbar" unicode="&#x167;" horiz-adv-x="800" 
d="M823 1024l-26 -164h-297l-39 -223h235l-20 -123h-238l-41 -231q-2 -16 -3 -26t-0.5 -29t6.5 -31.5t16.5 -26t31.5 -20.5t50 -7q70 0 149 45l-20 -170q-61 -41 -170 -41q-59 0 -105 14t-73 36t-44 53.5t-23.5 60.5t-7.5 63.5t2 56.5t7 44l37 209h-141l20 123h141l39 223
h-194l28 164h197l47 274h191l-50 -274h295z" />
    <glyph glyph-name="Utilde" unicode="&#x168;" horiz-adv-x="1492" 
d="M750 1518h-119q-17 102 32 158.5t138 56.5q54 0 102 -25.5t87.5 -50.5t74.5 -25q39 0 57.5 28t10.5 69h120q12 -99 -34.5 -158.5t-139.5 -59.5q-43 0 -83 16t-64 34.5t-54.5 34.5t-58.5 16q-42 0 -59.5 -28t-9.5 -66zM670 -23q-289 0 -416 173t-70 493l140 791h200
l-139 -789q-87 -495 299 -495q196 0 312 127t161 382l137 775h199l-141 -803q-57 -323 -229.5 -488.5t-452.5 -165.5z" />
    <glyph glyph-name="utilde" unicode="&#x169;" horiz-adv-x="1112" 
d="M496 1176h-127q-13 104 38.5 167.5t143.5 63.5q42 0 81.5 -16t64 -35t55.5 -35t59 -16q40 0 58.5 30t15.5 72h129q12 -103 -40.5 -168t-150.5 -65q-43 0 -81.5 15.5t-61.5 34.5t-52.5 34.5t-56.5 15.5q-43 0 -63 -31t-12 -67zM807 530l86 494h190l-180 -1024h-190l35 199
q-75 -106 -176 -162.5t-214 -56.5q-77 0 -133 27.5t-85.5 72t-43 106t-12.5 123t12 129.5l103 586h190l-104 -600q-10 -53 -9.5 -99t13 -90.5t49.5 -70t96 -25.5q58 0 116.5 25.5t110 73.5t91 123.5t55.5 168.5z" />
    <glyph glyph-name="Umacron" unicode="&#x16a;" horiz-adv-x="1492" 
d="M1251 1542h-645l23 133h647zM670 -23q-289 0 -416 173t-70 493l140 791h200l-139 -789q-87 -495 299 -495q196 0 312 127t161 382l137 775h199l-141 -803q-57 -323 -229.5 -488.5t-452.5 -165.5z" />
    <glyph glyph-name="umacron" unicode="&#x16b;" horiz-adv-x="1112" 
d="M389 1339h617l-25 -143h-616zM807 530l86 494h190l-180 -1024h-190l35 199q-75 -106 -176 -162.5t-214 -56.5q-77 0 -133 27.5t-85.5 72t-43 106t-12.5 123t12 129.5l103 586h190l-104 -600q-10 -53 -9.5 -99t13 -90.5t49.5 -70t96 -25.5q58 0 116.5 25.5t110 73.5
t91 123.5t55.5 168.5z" />
    <glyph glyph-name="Ubreve" unicode="&#x16c;" horiz-adv-x="1492" 
d="M928 1501q-129 0 -202.5 62t-53.5 168h139q-8 -49 25 -79t104 -30q72 0 115.5 30.5t54.5 78.5h141q-18 -108 -106.5 -169t-216.5 -61zM670 -23q-289 0 -416 173t-70 493l140 791h200l-139 -789q-87 -495 299 -495q196 0 312 127t161 382l137 775h199l-141 -803
q-57 -323 -229.5 -488.5t-452.5 -165.5z" />
    <glyph glyph-name="ubreve" unicode="&#x16d;" horiz-adv-x="1112" 
d="M678 1155q-140 0 -220 77.5t-65 201.5h154q-9 -71 26 -109.5t115 -38.5q159 0 191 148h153q-23 -131 -121 -205t-233 -74zM807 530l86 494h190l-180 -1024h-190l35 199q-75 -106 -176 -162.5t-214 -56.5q-77 0 -133 27.5t-85.5 72t-43 106t-12.5 123t12 129.5l103 586
h190l-104 -600q-10 -53 -9.5 -99t13 -90.5t49.5 -70t96 -25.5q58 0 116.5 25.5t110 73.5t91 123.5t55.5 168.5z" />
    <glyph glyph-name="Uring" unicode="&#x16e;" horiz-adv-x="1492" 
d="M932 1468q-73 0 -122 41t-50 109q0 79 57 132.5t141 53.5q74 0 124.5 -43t50.5 -112q0 -78 -58.5 -129.5t-142.5 -51.5zM938 1569q36 0 58 21.5t22 54.5q0 29 -18 44t-48 15q-35 0 -56.5 -22.5t-21.5 -55.5q0 -28 17.5 -42.5t46.5 -14.5zM670 -23q-289 0 -416 173
t-70 493l140 791h200l-139 -789q-87 -495 299 -495q196 0 312 127t161 382l137 775h199l-141 -803q-57 -323 -229.5 -488.5t-452.5 -165.5z" />
    <glyph glyph-name="uring" unicode="&#x16f;" horiz-adv-x="1112" 
d="M678 1147q-74 0 -123 46t-49 116q0 77 59.5 129.5t143.5 52.5q74 0 122 -45t48 -113q0 -79 -59 -132.5t-142 -53.5zM705 1389q-35 0 -58.5 -22t-23.5 -56q0 -28 16 -45t45 -17q35 0 58.5 23t23.5 57q0 28 -16.5 44t-44.5 16zM807 530l86 494h190l-180 -1024h-190l35 199
q-75 -106 -176 -162.5t-214 -56.5q-77 0 -133 27.5t-85.5 72t-43 106t-12.5 123t12 129.5l103 586h190l-104 -600q-10 -53 -9.5 -99t13 -90.5t49.5 -70t96 -25.5q58 0 116.5 25.5t110 73.5t91 123.5t55.5 168.5z" />
    <glyph glyph-name="Uhungarumlaut" unicode="&#x170;" horiz-adv-x="1492" 
d="M854 1507h-125l109 224h180zM1098 1507h-133l149 224h178zM670 -23q-289 0 -416 173t-70 493l140 791h200l-139 -789q-87 -495 299 -495q196 0 312 127t161 382l137 775h199l-141 -803q-57 -323 -229.5 -488.5t-452.5 -165.5z" />
    <glyph glyph-name="uhungarumlaut" unicode="&#x171;" horiz-adv-x="1112" 
d="M506 1434h201l-191 -275h-145zM1006 1434l-191 -275h-145l135 275h201zM807 530l86 494h190l-180 -1024h-190l35 199q-75 -106 -176 -162.5t-214 -56.5q-77 0 -133 27.5t-85.5 72t-43 106t-12.5 123t12 129.5l103 586h190l-104 -600q-10 -53 -9.5 -99t13 -90.5t49.5 -70
t96 -25.5q58 0 116.5 25.5t110 73.5t91 123.5t55.5 168.5z" />
    <glyph glyph-name="Uogonek" unicode="&#x172;" horiz-adv-x="1492" 
d="M1157 659l137 775h199l-141 -803q-51 -285 -191 -447t-364 -196q-93 -29 -154 -79t-61 -106q0 -31 22 -50t64 -19q64 0 118 28l-18 -174q-52 -22 -133 -22q-113 0 -174.5 46.5t-61.5 121.5q0 72 56.5 135.5t156.5 110.5q-260 17 -371 188t-57 475l140 791h200l-139 -789
q-87 -495 299 -495q196 0 312 127t161 382z" />
    <glyph glyph-name="uogonek" unicode="&#x173;" horiz-adv-x="1112" 
d="M807 530l86 494h190l-180 -1024h-43q-109 -25 -186.5 -79.5t-77.5 -117.5q0 -31 22 -50t64 -19q65 0 119 28l-19 -174q-52 -22 -133 -22q-113 0 -174 46.5t-61 121.5q0 87 82 161t219 121l33 183q-75 -106 -176 -162.5t-214 -56.5q-77 0 -133 27.5t-85.5 72t-43 106
t-12.5 123t12 129.5l103 586h190l-104 -600q-10 -53 -9.5 -99t13 -90.5t49.5 -70t96 -25.5q58 0 116.5 25.5t110 73.5t91 123.5t55.5 168.5z" />
    <glyph glyph-name="Wcircumflex" unicode="&#x174;" horiz-adv-x="2041" 
d="M1337 1507l-127 140l-172 -140h-190l272 224h197l199 -224h-179zM1393 217l567 1217h213l-688 -1434h-236l-106 1247l-541 -1247h-229l-180 1434h200l139 -1211l525 1211h239z" />
    <glyph glyph-name="wcircumflex" unicode="&#x175;" horiz-adv-x="1605" 
d="M1036 1159l-92 160l-147 -160h-187l254 275h185l165 -275h-178zM1073 156l393 868h207l-491 -1024h-244l-84 811l-360 -811h-244l-137 1024h200l90 -881l385 881h205z" />
    <glyph glyph-name="Ycircumflex" unicode="&#x176;" horiz-adv-x="1359" 
d="M1006 1507l-127 140l-172 -140h-191l272 224h197l199 -224h-178zM1264 1434h227l-698 -850l-103 -584h-201l107 598l-403 836h219l303 -672z" />
    <glyph glyph-name="ycircumflex" unicode="&#x177;" horiz-adv-x="1030" 
d="M752 1159l-93 160l-147 -160h-186l254 275h184l166 -275h-178zM475 164l426 860h207l-596 -1151q-155 -307 -446 -307q-93 0 -168 33l16 161q69 -28 137 -28q94 0 171.5 55t129.5 147l-241 1090h202z" />
    <glyph glyph-name="Ydieresis" unicode="&#x178;" horiz-adv-x="1359" 
d="M635 1530q-45 0 -74 29t-29 73q0 51 35 87t86 36q46 0 74.5 -29t28.5 -75q0 -52 -35 -86.5t-86 -34.5zM1079 1530q-47 0 -75.5 28.5t-28.5 73.5q0 51 35 87t86 36q47 0 75.5 -29t28.5 -75q0 -52 -35 -86.5t-86 -34.5zM1264 1434h227l-698 -850l-103 -584h-201l107 598
l-403 836h219l303 -672z" />
    <glyph glyph-name="Zacute" unicode="&#x179;" horiz-adv-x="1300" 
d="M893 1731h209l-230 -224h-153zM283 1434h1073l-25 -152l-1063 -1118h885l-31 -164h-1124l27 152l1062 1118h-833z" />
    <glyph glyph-name="zacute" unicode="&#x17a;" horiz-adv-x="1026" 
d="M694 1434h209l-241 -275h-150zM217 1024h813l-14 -102l-762 -779h643l-27 -143h-868l23 145l712 725h-544z" />
    <glyph glyph-name="Zdotaccent" unicode="&#x17b;" horiz-adv-x="1300" 
d="M838 1532q-49 0 -81 31.5t-32 78.5q0 54 38 93t93 39q49 0 80 -31.5t31 -79.5q0 -56 -38 -93.5t-91 -37.5zM283 1434h1073l-25 -152l-1063 -1118h885l-31 -164h-1124l27 152l1062 1118h-833z" />
    <glyph glyph-name="zdotaccent" unicode="&#x17c;" horiz-adv-x="1026" 
d="M657 1182q-50 0 -81 30.5t-31 79.5q0 54 38 92.5t93 38.5q49 0 79.5 -31t30.5 -79q0 -56 -38 -93.5t-91 -37.5zM217 1024h813l-14 -102l-762 -779h643l-27 -143h-868l23 145l712 725h-544z" />
    <glyph glyph-name="Zcaron" unicode="&#x17d;" horiz-adv-x="1300" 
d="M1202 1731l-282 -224h-185l-200 224h180l123 -134l174 134h190zM283 1434h1073l-25 -152l-1063 -1118h885l-31 -164h-1124l27 152l1062 1118h-833z" />
    <glyph glyph-name="zcaron" unicode="&#x17e;" horiz-adv-x="1026" 
d="M993 1434l-262 -275h-184l-158 275h176l90 -160l150 160h188zM217 1024h813l-14 -102l-762 -779h643l-27 -143h-868l23 145l712 725h-544z" />
    <glyph glyph-name="uni0191" unicode="&#x191;" horiz-adv-x="991" 
d="M930 1282q-44 0 -79 -15.5t-57 -43t-34 -51t-23 -54.5l-32 -117h327l-33 -167h-340l-282 -996q-35 -124 -114 -197t-208 -73q-107 0 -188 43l45 166q72 -31 123 -31q114 0 151 129l269 959h-211l32 167h224l47 156q36 135 131 215t231 80q129 0 219 -66l-41 -161
q-63 57 -157 57z" />
    <glyph glyph-name="florin" unicode="&#x192;" horiz-adv-x="991" 
d="M930 1282q-44 0 -79 -15.5t-57 -43t-34 -51t-23 -54.5l-32 -117h327l-33 -167h-340l-282 -996q-35 -124 -114 -197t-208 -73q-107 0 -188 43l45 166q72 -31 123 -31q114 0 151 129l269 959h-211l32 167h224l47 156q36 135 131 215t231 80q129 0 219 -66l-41 -161
q-63 57 -157 57z" />
    <glyph glyph-name="Ohorn" unicode="&#x1a0;" horiz-adv-x="1646" 
d="M1470 1630h142q4 -37 4 -73.5t-12.5 -74.5t-34 -72t-60.5 -66.5t-92 -57.5q162 -168 162 -446q0 -170 -63.5 -328t-172.5 -276.5t-265 -189.5t-330 -71q-275 0 -441 169t-166 450q0 171 64 329.5t174 276.5t265.5 188t328.5 70q199 0 346 -92q93 51 125 113t26 151z
M760 145q172 0 314.5 100.5t220 259t77.5 333.5q0 209 -110 329.5t-301 120.5q-130 0 -246 -59t-195.5 -155.5t-125.5 -221.5t-46 -256q0 -209 111 -330t301 -121z" />
    <glyph glyph-name="ohorn" unicode="&#x1a1;" horiz-adv-x="1193" 
d="M1077 1219h137q3 -73 -17.5 -137t-72.5 -108t-127 -40q125 -119 125 -334q0 -169 -77 -312t-217.5 -228t-315.5 -85q-208 0 -329.5 120t-121.5 331q0 127 46.5 242t127 199t195 133t244.5 49h4q37 0 88 -3.5t83.5 -5t71.5 -0.5t63.5 10.5t46.5 28.5t33 54t13 86zM528 141
q115 0 207 65t140.5 167.5t48.5 218.5q0 137 -70.5 214t-196.5 77q-115 0 -208 -64.5t-142 -166.5t-49 -218q0 -137 72 -215t198 -78z" />
    <glyph glyph-name="Uhorn" unicode="&#x1af;" horiz-adv-x="1492" 
d="M1505 1630h140q14 -109 -27 -188t-141 -101l-125 -710q-57 -323 -229.5 -488.5t-452.5 -165.5q-289 0 -416 173t-70 493l140 791h200l-139 -789q-87 -495 299 -495q196 0 312 127t161 382l137 775h88q61 0 97 47t26 149z" />
    <glyph glyph-name="uhorn" unicode="&#x1b0;" horiz-adv-x="1153" 
d="M1094 1221h139q14 -109 -27 -188t-139 -101l-164 -932h-190l35 199q-75 -106 -176 -162.5t-214 -56.5q-77 0 -133 27.5t-85.5 72t-43 106t-12.5 123t12 129.5l103 586h190l-104 -600q-10 -53 -9.5 -99t13 -90.5t49.5 -70t96 -25.5q58 0 116.5 25.5t110 73.5t91 123.5
t55.5 168.5l86 494h78q61 0 97 47.5t26 149.5z" />
    <glyph glyph-name="uni01CD" unicode="&#x1cd;" horiz-adv-x="1429" 
d="M1266 1731l-283 -224h-184l-201 224h180l123 -134l174 134h191zM1307 0h-203l-72 344h-678l-192 -344h-221l815 1434h239zM850 1233l-404 -723h553z" />
    <glyph glyph-name="uni01CE" unicode="&#x1ce;" horiz-adv-x="1105" 
d="M1028 1434l-262 -275h-184l-158 275h176l90 -160l150 160h188zM612 1049q153 0 251.5 -64.5t133.5 -175t9 -254.5l-99 -555h-172l37 201q-75 -108 -183 -167t-241 -59q-150 0 -236.5 72.5t-86.5 194.5q0 167 152 267.5t378 100.5q141 0 262 -41l2 9q8 43 8.5 82.5
t-10.5 81.5t-34.5 73t-69 50.5t-109.5 19.5q-115 0 -179.5 -59t-59.5 -156h-189q-13 173 111.5 276t324.5 103zM395 123q138 0 249 86t163 223q-102 45 -234 45q-154 0 -256 -58t-102 -159q0 -67 47.5 -102t132.5 -35z" />
    <glyph glyph-name="uni01CF" unicode="&#x1cf;" horiz-adv-x="563" 
d="M467 1597l174 134h190l-282 -224h-184l-201 224h180zM291 0h-201l254 1434h201z" />
    <glyph glyph-name="uni01D0" unicode="&#x1d0;" horiz-adv-x="448" 
d="M354 1274l150 160h188l-262 -275h-184l-158 275h176zM229 0h-190l180 1024h191z" />
    <glyph glyph-name="uni01D1" unicode="&#x1d1;" horiz-adv-x="1646" 
d="M1374 1731l-282 -224h-185l-200 224h180l123 -134l174 134h190zM973 1458q277 0 441.5 -168.5t164.5 -449.5q0 -170 -63.5 -328t-172.5 -276.5t-265 -189.5t-330 -71q-275 0 -441 169t-166 450q0 171 64 329.5t174 276.5t265.5 188t328.5 70zM760 145q172 0 314.5 100.5
t220 259t77.5 333.5q0 209 -110 329.5t-301 120.5q-130 0 -246 -59t-195.5 -155.5t-125.5 -221.5t-46 -256q0 -209 111 -330t301 -121z" />
    <glyph glyph-name="uni01D2" unicode="&#x1d2;" horiz-adv-x="1183" 
d="M1059 1434l-262 -275h-185l-157 275h176l90 -160l149 160h189zM674 1049q207 0 327.5 -118t120.5 -331q0 -169 -77 -312t-217.5 -228t-315.5 -85q-208 0 -329.5 120t-121.5 331q0 127 46.5 242t127 199t195 133t244.5 49zM528 141q115 0 207 65t140.5 167.5t48.5 218.5
q0 137 -70.5 214t-196.5 77q-115 0 -208 -64.5t-142 -166.5t-49 -218q0 -137 72 -215t198 -78z" />
    <glyph glyph-name="uni01D3" unicode="&#x1d3;" horiz-adv-x="1492" 
d="M1296 1731l-282 -224h-185l-200 224h180l123 -134l174 134h190zM1157 659l137 775h199l-141 -803q-57 -323 -229.5 -488.5t-452.5 -165.5q-289 0 -416 173t-70 493l140 791h200l-139 -789q-87 -495 299 -495q196 0 312 127t161 382z" />
    <glyph glyph-name="uni01D4" unicode="&#x1d4;" horiz-adv-x="1112" 
d="M1018 1434l-262 -275h-185l-157 275h176l90 -160l149 160h189zM807 530l86 494h190l-180 -1024h-190l35 199q-75 -106 -176 -162.5t-214 -56.5q-77 0 -133 27.5t-85.5 72t-43 106t-12.5 123t12 129.5l103 586h190l-104 -600q-10 -53 -9.5 -99t13 -90.5t49.5 -70t96 -25.5
q58 0 116.5 25.5t110 73.5t91 123.5t55.5 168.5z" />
    <glyph glyph-name="uni01D5" unicode="&#x1d5;" horiz-adv-x="1492" 
d="M1284 1849h-645l23 133h647zM705 1530q-45 0 -74 29t-29 73q0 51 35 87t86 36q46 0 74 -29t28 -75q0 -52 -34.5 -86.5t-85.5 -34.5zM1149 1530q-47 0 -76 28.5t-29 73.5q0 51 35 87t86 36q47 0 76 -29t29 -75q0 -52 -35 -86.5t-86 -34.5zM670 -23q-289 0 -416 173
t-70 493l140 791h200l-139 -789q-87 -495 299 -495q196 0 312 127t161 382l137 775h199l-141 -803q-57 -323 -229.5 -488.5t-452.5 -165.5z" />
    <glyph glyph-name="uni01D6" unicode="&#x1d6;" horiz-adv-x="1112" 
d="M449 1677h616l-25 -143h-616zM487 1180q-45 0 -73.5 28.5t-28.5 73.5q0 51 35 87t86 36q45 0 73.5 -30t28.5 -75q0 -52 -35 -86t-86 -34zM764 1282q0 51 35.5 87t87.5 36q45 0 73.5 -30t28.5 -75q0 -52 -35 -86t-86 -34q-46 0 -75 29t-29 73zM807 530l86 494h190
l-180 -1024h-190l35 199q-75 -106 -176 -162.5t-214 -56.5q-77 0 -133 27.5t-85.5 72t-43 106t-12.5 123t12 129.5l103 586h190l-104 -600q-10 -53 -9.5 -99t13 -90.5t49.5 -70t96 -25.5q58 0 116.5 25.5t110 73.5t91 123.5t55.5 168.5z" />
    <glyph glyph-name="uni01D7" unicode="&#x1d7;" horiz-adv-x="1492" 
d="M999 1815h-153l174 223h209zM705 1530q-45 0 -74 29t-29 73q0 51 35 87t86 36q46 0 74 -29t28 -75q0 -52 -34.5 -86.5t-85.5 -34.5zM1149 1530q-47 0 -76 28.5t-29 73.5q0 51 35 87t86 36q47 0 76 -29t29 -75q0 -52 -35 -86.5t-86 -34.5zM670 -23q-289 0 -416 173
t-70 493l140 791h200l-139 -789q-87 -495 299 -495q196 0 312 127t161 382l137 775h199l-141 -803q-57 -323 -229.5 -488.5t-452.5 -165.5z" />
    <glyph glyph-name="uni01D8" unicode="&#x1d8;" horiz-adv-x="1112" 
d="M778 1772h209l-242 -275h-149zM487 1180q-45 0 -73.5 28.5t-28.5 73.5q0 51 35 87t86 36q45 0 73.5 -30t28.5 -75q0 -52 -35 -86t-86 -34zM887 1405q45 0 73.5 -30t28.5 -75q0 -52 -35 -86t-86 -34q-46 0 -75 29t-29 73q0 51 35.5 87t87.5 36zM807 530l86 494h190
l-180 -1024h-190l35 199q-75 -106 -176 -162.5t-214 -56.5q-77 0 -133 27.5t-85.5 72t-43 106t-12.5 123t12 129.5l103 586h190l-104 -600q-10 -53 -9.5 -99t13 -90.5t49.5 -70t96 -25.5q58 0 116.5 25.5t110 73.5t91 123.5t55.5 168.5z" />
    <glyph glyph-name="uni01D9" unicode="&#x1d9;" horiz-adv-x="1492" 
d="M1329 2038l-282 -223h-185l-200 223h180l123 -133l174 133h190zM705 1530q-45 0 -74 29t-29 73q0 51 35 87t86 36q46 0 74 -29t28 -75q0 -52 -34.5 -86.5t-85.5 -34.5zM1044 1632q0 51 35 87t86 36q47 0 76 -29t29 -75q0 -52 -35 -86.5t-86 -34.5q-47 0 -76 28.5
t-29 73.5zM1157 659l137 775h199l-141 -803q-57 -323 -229.5 -488.5t-452.5 -165.5q-289 0 -416 173t-70 493l140 791h200l-139 -789q-87 -495 299 -495q196 0 312 127t161 382z" />
    <glyph glyph-name="uni01DA" unicode="&#x1da;" horiz-adv-x="1112" 
d="M1077 1772l-262 -275h-184l-158 275h176l90 -160l150 160h188zM487 1180q-45 0 -73.5 28.5t-28.5 73.5q0 51 35 87t86 36q45 0 73.5 -30t28.5 -75q0 -52 -35 -86t-86 -34zM764 1282q0 51 35.5 87t87.5 36q45 0 73.5 -30t28.5 -75q0 -52 -35 -86t-86 -34q-46 0 -75 29
t-29 73zM807 530l86 494h190l-180 -1024h-190l35 199q-75 -106 -176 -162.5t-214 -56.5q-77 0 -133 27.5t-85.5 72t-43 106t-12.5 123t12 129.5l103 586h190l-104 -600q-10 -53 -9.5 -99t13 -90.5t49.5 -70t96 -25.5q58 0 116.5 25.5t110 73.5t91 123.5t55.5 168.5z" />
    <glyph glyph-name="uni01DB" unicode="&#x1db;" horiz-adv-x="1492" 
d="M1071 1815h-141l-152 223h197zM705 1530q-45 0 -74 29t-29 73q0 51 35 87t86 36q46 0 74 -29t28 -75q0 -52 -34.5 -86.5t-85.5 -34.5zM1149 1530q-47 0 -76 28.5t-29 73.5q0 51 35 87t86 36q47 0 76 -29t29 -75q0 -52 -35 -86.5t-86 -34.5zM670 -23q-289 0 -416 173
t-70 493l140 791h200l-139 -789q-87 -495 299 -495q196 0 312 127t161 382l137 775h199l-141 -803q-57 -323 -229.5 -488.5t-452.5 -165.5z" />
    <glyph glyph-name="uni01DC" unicode="&#x1dc;" horiz-adv-x="1112" 
d="M772 1772l86 -275h-141l-146 275h201zM487 1180q-45 0 -73.5 28.5t-28.5 73.5q0 51 35 87t86 36q45 0 73.5 -30t28.5 -75q0 -52 -35 -86t-86 -34zM764 1282q0 51 35.5 87t87.5 36q45 0 73.5 -30t28.5 -75q0 -52 -35 -86t-86 -34q-46 0 -75 29t-29 73zM807 530l86 494h190
l-180 -1024h-190l35 199q-75 -106 -176 -162.5t-214 -56.5q-77 0 -133 27.5t-85.5 72t-43 106t-12.5 123t12 129.5l103 586h190l-104 -600q-10 -53 -9.5 -99t13 -90.5t49.5 -70t96 -25.5q58 0 116.5 25.5t110 73.5t91 123.5t55.5 168.5z" />
    <glyph glyph-name="Gcaron" unicode="&#x1e6;" horiz-adv-x="1572" 
d="M1378 1731l-282 -224h-185l-200 224h180l123 -134l174 134h190zM852 743h711l-29 -163h-344q160 -69 160 -234q0 -113 -78.5 -198.5t-205.5 -129t-280 -43.5q-305 0 -473 172.5t-168 462.5q0 173 62.5 328.5t171.5 270t265 182t335 67.5q181 0 305.5 -64t172.5 -185
t3 -281h-209q53 175 -30 265.5t-263 90.5q-137 0 -252.5 -55t-192.5 -148t-120 -214t-43 -253q0 -221 117 -345t324 -124q156 0 257 67.5t101 172.5q0 94 -85.5 144.5t-242.5 50.5z" />
    <glyph glyph-name="gcaron" unicode="&#x1e7;" horiz-adv-x="1144" 
d="M1012 1434l-262 -275h-185l-157 275h176l90 -160l149 160h189zM1026 1149h137q10 -94 -30.5 -189.5t-112.5 -146.5q16 -56 16 -111q0 -153 -109 -281t-290 -212q139 -21 222 -95.5t83 -191.5q0 -106 -68.5 -188t-183 -125t-254.5 -43q-215 0 -337.5 103t-116.5 270h194
q-6 -98 67.5 -152.5t200.5 -54.5q133 0 219.5 53t86.5 143q0 78 -73 122t-210 44q-146 0 -295 -47l18 131q267 37 449 154q-71 -21 -152 -21q-170 0 -272 89t-102 239q0 122 69.5 216.5t184.5 144t254 49.5q238 0 350 -144q40 41 54.5 111.5t0.5 132.5zM307 639
q0 -85 62.5 -133.5t169.5 -48.5q130 0 215.5 67.5t85.5 169.5q0 86 -63.5 137.5t-170.5 51.5q-128 0 -213.5 -70.5t-85.5 -173.5z" />
    <glyph glyph-name="uni0218" unicode="&#x218;" horiz-adv-x="1411" 
d="M1315 956h-203q49 158 -30.5 247t-258.5 89q-161 0 -269 -71t-108 -187q0 -55 28 -94.5t75 -63.5t108 -41.5t128.5 -32.5t135 -32t128.5 -44.5t108 -65t75 -98t28 -140.5q0 -142 -84.5 -245t-223 -152.5t-313.5 -49.5q-292 0 -431 138t-83 368h201q-34 -167 55 -253.5
t274 -86.5q175 0 286.5 71t111.5 189q0 71 -45 118t-117 71.5t-158.5 43.5t-173.5 43t-159 60t-117 104.5t-45 166.5q0 135 81 238.5t218.5 157.5t306.5 54q138 0 244 -37t166.5 -103.5t79 -158.5t-18.5 -203zM604 -98q54 0 86.5 -33.5t32.5 -97.5q0 -94 -69 -149.5
t-181 -55.5v86q67 0 109 23.5t53 66.5q-23 -10 -51 -10q-44 0 -69.5 20.5t-25.5 57.5q0 45 32.5 68.5t82.5 23.5z" />
    <glyph glyph-name="uni0219" unicode="&#x219;" horiz-adv-x="1062" 
d="M969 664h-187q38 106 -18 168.5t-182 62.5q-108 0 -178 -46.5t-70 -115.5q0 -44 34 -73t87.5 -45t119 -29t131 -31.5t119 -45t87.5 -77t34 -121.5q0 -104 -69 -182t-178.5 -116t-239.5 -38q-225 0 -335.5 110.5t-70.5 285.5h187q-27 -115 36.5 -179.5t194.5 -64.5
q118 0 196 48t78 122q0 34 -21 59t-56 40.5t-81 27.5t-96.5 22.5t-101 23t-96.5 32.5t-81 47t-56 70.5t-21 99.5q0 102 63.5 178.5t167 114t230.5 37.5q216 0 324 -108t49 -277zM428 -98q54 0 86.5 -33.5t32.5 -97.5q0 -94 -69 -149.5t-181 -55.5v86q67 0 109 23.5t53 66.5
q-23 -10 -51 -10q-44 0 -69.5 20.5t-25.5 57.5q0 45 32.5 68.5t82.5 23.5z" />
    <glyph glyph-name="uni021A" unicode="&#x21a;" horiz-adv-x="1316" 
d="M215 1434h1212l-28 -164h-506l-225 -1270h-199l223 1270h-506zM543 -98q54 0 86.5 -33.5t32.5 -97.5q0 -94 -69 -149.5t-181 -55.5v86q67 0 108.5 23.5t52.5 66.5q-23 -10 -51 -10q-44 0 -69 20.5t-25 57.5q0 45 32.5 68.5t82.5 23.5z" />
    <glyph glyph-name="uni021B" unicode="&#x21b;" horiz-adv-x="800" 
d="M797 860h-297l-103 -577q-2 -16 -3 -26t-0.5 -29t6.5 -31.5t16.5 -26t31.5 -20.5t50 -7q70 0 149 45l-20 -170q-61 -41 -170 -41q-59 0 -105 14t-73 36t-44 53.5t-23.5 60.5t-7.5 63.5t2 56.5t7 44l96 555h-194l28 164h197l47 274h191l-50 -274h295zM336 -98
q54 0 86.5 -33.5t32.5 -97.5q0 -94 -69 -149.5t-181 -55.5v86q67 0 109 23.5t53 66.5q-23 -10 -52 -10q-44 0 -69 20.5t-25 57.5q0 45 32.5 68.5t82.5 23.5z" />
    <glyph glyph-name="uni0237" unicode="&#x237;" horiz-adv-x="536" 
d="M-8 -434q-98 0 -168 45l24 158q53 -37 121 -37q113 0 140 155l198 1137h191l-201 -1141q-45 -317 -305 -317z" />
    <glyph glyph-name="uni0259" unicode="&#x259;" horiz-adv-x="1157" 
d="M635 1049q212 0 335.5 -124.5t123.5 -336.5q0 -168 -75.5 -308t-214 -222.5t-312.5 -82.5q-136 0 -237 51.5t-150 135t-46.5 194t64.5 224.5h774q0 144 -72.5 223.5t-201.5 79.5q-100 0 -181.5 -47.5t-128.5 -128.5h-211q75 162 215 252t318 90zM504 131
q146 0 246.5 92.5t132.5 235.5h-598q-52 -138 8.5 -233t210.5 -95z" />
    <glyph glyph-name="circumflex" unicode="&#x2c6;" horiz-adv-x="768" 
d="M635 1434l166 -275h-178l-93 160l-147 -160h-186l254 275h184z" />
    <glyph glyph-name="caron" unicode="&#x2c7;" horiz-adv-x="768" 
d="M510 1274l149 160h189l-262 -275h-185l-157 275h176z" />
    <glyph glyph-name="breve" unicode="&#x2d8;" horiz-adv-x="802" 
d="M528 1155q-140 0 -219.5 77.5t-64.5 201.5h153q-9 -71 26.5 -109.5t115.5 -38.5q158 0 190 148h154q-23 -131 -121.5 -205t-233.5 -74z" />
    <glyph glyph-name="dotaccent" unicode="&#x2d9;" horiz-adv-x="385" 
d="M334 1182q-50 0 -81.5 30.5t-31.5 79.5q0 54 38 92.5t93 38.5q49 0 80 -31t31 -79q0 -56 -38 -93.5t-91 -37.5z" />
    <glyph glyph-name="ring" unicode="&#x2da;" horiz-adv-x="536" 
d="M395 1147q-74 0 -123 46t-49 116q0 77 59.5 129.5t143.5 52.5q74 0 122 -45t48 -113q0 -79 -59 -132.5t-142 -53.5zM401 1249q35 0 58.5 23t23.5 57q0 28 -16.5 44t-44.5 16q-35 0 -58.5 -22t-23.5 -56q0 -28 16 -45t45 -17z" />
    <glyph glyph-name="ogonek" unicode="&#x2db;" horiz-adv-x="565" 
d="M182 -434q-113 0 -174 46.5t-61 121.5q0 109 125.5 196t318.5 123l2 -53q-109 -25 -186.5 -79.5t-77.5 -117.5q0 -31 22 -50t64 -19q65 0 119 28l-19 -174q-52 -22 -133 -22z" />
    <glyph glyph-name="tilde" unicode="&#x2dc;" horiz-adv-x="794" 
d="M340 1176h-127q-13 104 38.5 167.5t143.5 63.5q42 0 81.5 -16t64 -35t55.5 -35t59 -16q40 0 58.5 30t15.5 72h129q12 -103 -40 -168t-150 -65q-43 0 -81.5 15.5t-61.5 34.5t-52.5 34.5t-56.5 15.5q-43 0 -63.5 -31.5t-12.5 -66.5z" />
    <glyph glyph-name="hungarumlaut" unicode="&#x2dd;" horiz-adv-x="751" 
d="M342 1159h-145l135 275h200zM641 1159h-145l135 275h200z" />
    <glyph glyph-name="gravecomb" unicode="&#x300;" 
d="M33 1159h-142l-145 275h201z" />
    <glyph glyph-name="acutecomb" unicode="&#x301;" 
d="M-162 1159h-149l182 275h209z" />
    <glyph glyph-name="uni0302" unicode="&#x302;" 
d="M-133 1434l166 -275h-178l-93 160l-147 -160h-186l254 275h184z" />
    <glyph glyph-name="tildecomb" unicode="&#x303;" 
d="M-455 1176h-127q-13 104 39 167.5t144 63.5q42 0 81.5 -16t64 -35t55.5 -35t59 -16q40 0 58 30t15 72h129q12 -103 -40 -168t-150 -65q-43 0 -81.5 15.5t-61.5 34.5t-52.5 34.5t-56.5 15.5q-43 0 -63.5 -31.5t-12.5 -66.5z" />
    <glyph glyph-name="uni0304" unicode="&#x304;" 
d="M39 1196h-617l25 143h616z" />
    <glyph glyph-name="uni0306" unicode="&#x306;" 
d="M-274 1155q-140 0 -220 77.5t-65 201.5h153q-9 -71 26.5 -109.5t115.5 -38.5q158 0 190 148h154q-23 -131 -121 -205t-233 -74z" />
    <glyph glyph-name="uni0307" unicode="&#x307;" 
d="M-72 1182q-50 0 -81 30.5t-31 79.5q0 54 38 92.5t93 38.5q49 0 79.5 -31t30.5 -79q0 -56 -38 -93.5t-91 -37.5z" />
    <glyph glyph-name="uni0308" unicode="&#x308;" 
d="M-446 1180q-46 0 -74.5 29t-28.5 73q0 51 35 87t86 36q45 0 73.5 -30t28.5 -75q0 -52 -34.5 -86t-85.5 -34zM-66 1180q-46 0 -75 29t-29 73q0 51 35.5 87t87.5 36q45 0 73.5 -30t28.5 -75q0 -52 -35 -86t-86 -34z" />
    <glyph glyph-name="hookabovecomb" unicode="&#x309;" 
d="M-193 1108l-20 70q59 8 95 34.5t36 69.5q0 89 -180 59l8 101q83 17 152 8.5t113 -49.5t44 -105q0 -152 -248 -188z" />
    <glyph glyph-name="uni030A" unicode="&#x30a;" 
d="M-141 1147q-74 0 -123 46t-49 116q0 77 59 129.5t143 52.5q74 0 122 -45t48 -113q0 -79 -58.5 -132.5t-141.5 -53.5zM-135 1249q35 0 58.5 23t23.5 57q0 28 -17 44t-45 16q-35 0 -58.5 -22t-23.5 -56q0 -28 16.5 -45t45.5 -17z" />
    <glyph glyph-name="uni030B" unicode="&#x30b;" 
d="M-410 1159h-145l135 275h201zM-111 1159h-145l135 275h201z" />
    <glyph glyph-name="uni030C" unicode="&#x30c;" 
d="M-258 1274l149 160h189l-262 -275h-185l-157 275h176z" />
    <glyph glyph-name="uni0312" unicode="&#x312;" 
d="M59 1458l-4 -94q-62 0 -103.5 -20t-51.5 -56q24 4 39 4q48 0 75 -21t27 -59q0 -42 -31.5 -65t-79.5 -23q-57 0 -92 34t-35 99q0 91 72.5 146t183.5 55z" />
    <glyph glyph-name="uni031B" unicode="&#x31b;" 
d="M-219 924l-21 100q61 0 97 47.5t26 149.5h140q19 -129 -41.5 -213t-200.5 -84z" />
    <glyph glyph-name="dotbelowcomb" unicode="&#x323;" 
d="M-348 -379q-50 0 -81.5 31.5t-31.5 81.5q0 56 37.5 92.5t93.5 36.5q49 0 80 -31.5t31 -81.5q0 -55 -37.5 -92t-91.5 -37z" />
    <glyph glyph-name="uni0326" unicode="&#x326;" 
d="M-336 -98q54 0 86.5 -33.5t32.5 -97.5q0 -94 -69 -149.5t-181 -55.5v86q67 0 109 23.5t53 66.5q-23 -10 -51 -10q-44 0 -69.5 20.5t-25.5 57.5q0 45 32.5 68.5t82.5 23.5z" />
    <glyph glyph-name="uni0327" unicode="&#x327;" 
d="M-408 -70q90 -6 140.5 -51t50.5 -115q0 -91 -80 -144.5t-195 -53.5q-130 0 -188.5 66.5t-24.5 154.5h127q-21 -57 6 -90t87 -33q61 0 100 30t39 79q0 86 -115 86q-55 0 -106 -23l-35 80q65 22 110 59t52 76l104 -2q-11 -75 -72 -119z" />
    <glyph glyph-name="uni0328" unicode="&#x328;" 
d="M-383 -434q-113 0 -174 46.5t-61 121.5q0 109 125.5 196t318.5 123l2 -53q-109 -25 -186.5 -79.5t-77.5 -117.5q0 -31 22 -50t64 -19q65 0 119 28l-19 -174q-52 -22 -133 -22z" />
    <glyph glyph-name="uni0335" unicode="&#x335;" 
d="M37 1188h-567l20 123h567z" />
    <glyph glyph-name="uni0337" unicode="&#x337;" 
d="M-283 856l-2 -10l295 211l-22 -152l-297 -213l2 10l-271 -194l23 151z" />
    <glyph glyph-name="uni0338" unicode="&#x338;" 
d="M4 993l-948 -1007l-60 45l949 1007z" />
    <glyph glyph-name="uni03A9" unicode="&#x3a9;" horiz-adv-x="1710" 
d="M1655 844q0 -232 -130.5 -404.5t-350.5 -271.5h352l-31 -168h-629l23 154q126 49 226 112.5t178 144.5t120.5 184.5t42.5 221.5q0 212 -130.5 331.5t-342.5 119.5q-176 0 -322 -81.5t-228.5 -219.5t-82.5 -301q0 -327 350 -512l-22 -154h-617l29 168h352
q-131 79 -208.5 212t-77.5 310q0 157 65.5 299t177 245t267.5 163.5t329 60.5q299 0 479.5 -170.5t180.5 -443.5z" />
    <glyph glyph-name="uni03BC" unicode="&#x3bc;" horiz-adv-x="1099" 
d="M795 530l86 494h190l-180 -1024h-191l33 193q-72 -103 -170.5 -158t-200.5 -55q-88 0 -141 36l-74 -426h-190l252 1434h190l-108 -623q-23 -126 17 -194t130 -68q117 0 221 104.5t136 286.5z" />
    <glyph glyph-name="pi" unicode="&#x3c0;" horiz-adv-x="1206" 
d="M1186 1024l-29 -168h-221q-27 -159 -43.5 -272t-23 -191.5t-5 -125t13.5 -71.5t27 -32.5t41 -7.5q57 0 117 26l-19 -174q-76 -26 -165 -26q-55 0 -91 12.5t-63.5 47.5t-37.5 95t-9 158.5t17.5 234.5t47.5 326h-270q-82 -463 -254 -856h-192q180 437 254 856h-166l28 168
h1043z" />
    <glyph glyph-name="Wgrave" unicode="&#x1e80;" horiz-adv-x="2041" 
d="M1206 1731l97 -224h-142l-151 224h196zM1393 217l567 1217h213l-688 -1434h-236l-106 1247l-541 -1247h-229l-180 1434h200l139 -1211l525 1211h239z" />
    <glyph glyph-name="wgrave" unicode="&#x1e81;" horiz-adv-x="1605" 
d="M963 1434l86 -275h-142l-145 275h201zM1073 156l393 868h207l-491 -1024h-244l-84 811l-360 -811h-244l-137 1024h200l90 -881l385 881h205z" />
    <glyph glyph-name="Wacute" unicode="&#x1e82;" horiz-adv-x="2041" 
d="M1249 1731h209l-229 -224h-154zM1393 217l567 1217h213l-688 -1434h-236l-106 1247l-541 -1247h-229l-180 1434h200l139 -1211l525 1211h239z" />
    <glyph glyph-name="wacute" unicode="&#x1e83;" horiz-adv-x="1605" 
d="M969 1434h209l-242 -275h-150zM1073 156l393 868h207l-491 -1024h-244l-84 811l-360 -811h-244l-137 1024h200l90 -881l385 881h205z" />
    <glyph glyph-name="Wdieresis" unicode="&#x1e84;" horiz-adv-x="2041" 
d="M967 1530q-45 0 -74 29t-29 73q0 51 35 87t86 36q46 0 74 -29t28 -75q0 -52 -34.5 -86.5t-85.5 -34.5zM1411 1530q-47 0 -75.5 28.5t-28.5 73.5q0 51 34.5 87t85.5 36q47 0 76 -29t29 -75q0 -52 -35 -86.5t-86 -34.5zM1393 217l567 1217h213l-688 -1434h-236l-106 1247
l-541 -1247h-229l-180 1434h200l139 -1211l525 1211h239z" />
    <glyph glyph-name="wdieresis" unicode="&#x1e85;" horiz-adv-x="1605" 
d="M739 1180q-45 0 -73.5 28.5t-28.5 73.5q0 51 35 87t86 36q45 0 73.5 -30t28.5 -75q0 -52 -35 -86t-86 -34zM1120 1180q-46 0 -75 29t-29 73q0 51 35.5 87t87.5 36q45 0 73.5 -30t28.5 -75q0 -52 -35 -86t-86 -34zM1073 156l393 868h207l-491 -1024h-244l-84 811
l-360 -811h-244l-137 1024h200l90 -881l385 881h205z" />
    <glyph glyph-name="uni1E9E" unicode="&#x1e9e;" horiz-adv-x="1558" 
d="M344 1434h1165l-22 -134l-479 -471q201 -23 311.5 -128t110.5 -277q0 -201 -140 -325t-368 -124q-151 0 -252 56t-134.5 159t13.5 250h178q-44 -144 16 -221.5t191 -77.5q135 0 218 79.5t83 201.5q0 266 -485 266l12 119l469 459h-717l-223 -1266h-201z" />
    <glyph glyph-name="uni1EA0" unicode="&#x1ea0;" horiz-adv-x="1429" 
d="M995 1434l312 -1434h-203l-72 344h-678l-192 -344h-221l815 1434h239zM850 1233l-404 -723h553zM590 -137q49 0 79.5 -31.5t30.5 -81.5q0 -55 -37.5 -92t-91.5 -37q-49 0 -80.5 31.5t-31.5 81.5q0 56 37.5 92.5t93.5 36.5z" />
    <glyph glyph-name="uni1EA1" unicode="&#x1ea1;" horiz-adv-x="1105" 
d="M612 1049q153 0 251.5 -64.5t133.5 -175t9 -254.5l-99 -555h-172l37 201q-75 -108 -183 -167t-241 -59q-150 0 -236.5 72.5t-86.5 194.5q0 167 152 267.5t378 100.5q141 0 262 -41l2 9q8 43 8.5 82.5t-10.5 81.5t-34.5 73t-69 50.5t-109.5 19.5q-115 0 -179.5 -59
t-59.5 -156h-189q-13 173 111.5 276t324.5 103zM395 123q138 0 249 86t163 223q-102 45 -234 45q-154 0 -256 -58t-102 -159q0 -67 47.5 -102t132.5 -35zM442 -137q49 0 80 -31.5t31 -81.5q0 -55 -37.5 -92t-91.5 -37q-50 0 -81.5 31.5t-31.5 81.5q0 56 37.5 92.5t93.5 36.5
z" />
    <glyph glyph-name="uni1EA2" unicode="&#x1ea2;" horiz-adv-x="1429" 
d="M979 1649q0 61 -195 39l7 98q138 23 224.5 -8t86.5 -113q0 -70 -67 -112.5t-171 -55.5l-22 70q56 7 96.5 28.5t40.5 53.5zM1307 0h-203l-72 344h-678l-192 -344h-221l815 1434h239zM850 1233l-404 -723h553z" />
    <glyph glyph-name="uni1EA3" unicode="&#x1ea3;" horiz-adv-x="1105" 
d="M750 1282q0 89 -181 59l9 101q83 17 152 8.5t113 -49.5t44 -105q0 -152 -248 -188l-21 70q60 8 96 34.5t36 69.5zM612 1049q153 0 251.5 -64.5t133.5 -175t9 -254.5l-99 -555h-172l37 201q-75 -108 -183 -167t-241 -59q-150 0 -236.5 72.5t-86.5 194.5q0 167 152 267.5
t378 100.5q141 0 262 -41l2 9q8 43 8.5 82.5t-10.5 81.5t-34.5 73t-69 50.5t-109.5 19.5q-115 0 -179.5 -59t-59.5 -156h-189q-13 173 111.5 276t324.5 103zM395 123q138 0 249 86t163 223q-102 45 -234 45q-154 0 -256 -58t-102 -159q0 -67 47.5 -102t132.5 -35z" />
    <glyph glyph-name="uni1EA4" unicode="&#x1ea4;" horiz-adv-x="1429" 
d="M1190 1581l174 223h209l-230 -223h-153zM1044 1507l-126 140l-173 -140h-190l272 224h197l199 -224h-179zM-59 0l815 1434h239l312 -1434h-203l-72 344h-678l-192 -344h-221zM850 1233l-404 -723h553z" />
    <glyph glyph-name="uni1EA5" unicode="&#x1ea5;" horiz-adv-x="1105" 
d="M901 1294l127 234h156l-162 -234h-121zM801 1159l-103 137l-147 -137h-176l248 234h174l172 -234h-168zM612 1049q153 0 251.5 -64.5t133.5 -175t9 -254.5l-99 -555h-172l37 201q-75 -108 -183 -167t-241 -59q-150 0 -236.5 72.5t-86.5 194.5q0 167 152 267.5t378 100.5
q141 0 262 -41l2 9q8 43 8.5 82.5t-10.5 81.5t-34.5 73t-69 50.5t-109.5 19.5q-115 0 -179.5 -59t-59.5 -156h-189q-13 173 111.5 276t324.5 103zM395 123q138 0 249 86t163 223q-102 45 -234 45q-154 0 -256 -58t-102 -159q0 -67 47.5 -102t132.5 -35z" />
    <glyph glyph-name="uni1EA6" unicode="&#x1ea6;" horiz-adv-x="1429" 
d="M1321 1804l96 -223h-141l-152 223h197zM1044 1507l-126 140l-173 -140h-190l272 224h197l199 -224h-179zM-59 0l815 1434h239l312 -1434h-203l-72 344h-678l-192 -344h-221zM850 1233l-404 -723h553z" />
    <glyph glyph-name="uni1EA7" unicode="&#x1ea7;" horiz-adv-x="1105" 
d="M1032 1528l43 -234h-110l-78 234h145zM801 1159l-103 137l-147 -137h-176l248 234h174l172 -234h-168zM612 1049q153 0 251.5 -64.5t133.5 -175t9 -254.5l-99 -555h-172l37 201q-75 -108 -183 -167t-241 -59q-150 0 -236.5 72.5t-86.5 194.5q0 167 152 267.5t378 100.5
q141 0 262 -41l2 9q8 43 8.5 82.5t-10.5 81.5t-34.5 73t-69 50.5t-109.5 19.5q-115 0 -179.5 -59t-59.5 -156h-189q-13 173 111.5 276t324.5 103zM395 123q138 0 249 86t163 223q-102 45 -234 45q-154 0 -256 -58t-102 -159q0 -67 47.5 -102t132.5 -35z" />
    <glyph glyph-name="uni1EA8" unicode="&#x1ea8;" horiz-adv-x="1429" 
d="M1174 1722l6 101q136 22 222.5 -9t86.5 -112q0 -71 -66 -113t-170 -55l-22 68q55 6 95 29t40 55t-49 40t-143 -4zM1044 1507l-126 140l-173 -140h-190l272 224h197l199 -224h-179zM-59 0l815 1434h239l312 -1434h-203l-72 344h-678l-192 -344h-221zM850 1233l-404 -723
h553z" />
    <glyph glyph-name="uni1EA9" unicode="&#x1ea9;" horiz-adv-x="1105" 
d="M899 1434l6 98q75 14 136 6.5t100 -44.5t39 -95q0 -136 -215 -172l-21 59q50 10 81.5 34.5t31.5 61.5q0 42 -43 55t-115 -3zM801 1159l-103 137l-147 -137h-176l248 234h174l172 -234h-168zM612 1049q153 0 251.5 -64.5t133.5 -175t9 -254.5l-99 -555h-172l37 201
q-75 -108 -183 -167t-241 -59q-150 0 -236.5 72.5t-86.5 194.5q0 167 152 267.5t378 100.5q141 0 262 -41l2 9q8 43 8.5 82.5t-10.5 81.5t-34.5 73t-69 50.5t-109.5 19.5q-115 0 -179.5 -59t-59.5 -156h-189q-13 173 111.5 276t324.5 103zM395 123q138 0 249 86t163 223
q-102 45 -234 45q-154 0 -256 -58t-102 -159q0 -67 47.5 -102t132.5 -35z" />
    <glyph glyph-name="uni1EAA" unicode="&#x1eaa;" horiz-adv-x="1429" 
d="M766 1788h-119q-17 102 32 158.5t138 56.5q43 0 82.5 -15.5t65 -34.5t57 -34.5t59.5 -15.5q39 0 57.5 27.5t10.5 68.5h121q12 -99 -34.5 -158t-139.5 -59q-55 0 -102 25t-85.5 50t-72.5 25q-42 0 -60 -28t-10 -66zM1044 1507l-126 140l-173 -140h-190l272 224h197
l199 -224h-179zM1307 0h-203l-72 344h-678l-192 -344h-221l815 1434h239zM850 1233l-404 -723h553z" />
    <glyph glyph-name="uni1EAB" unicode="&#x1eab;" horiz-adv-x="1105" 
d="M549 1419h-113q-12 93 37 151t133 58q43 0 78.5 -16t56 -35t48 -35t55.5 -16q42 0 63.5 31t16.5 69h114q8 -91 -39 -150t-137 -59q-44 0 -79.5 16t-54.5 34.5t-45 34.5t-52 16q-44 0 -66.5 -32.5t-15.5 -66.5zM801 1159l-103 137l-147 -137h-176l248 234h174l172 -234
h-168zM612 1049q153 0 251.5 -64.5t133.5 -175t9 -254.5l-99 -555h-172l37 201q-75 -108 -183 -167t-241 -59q-150 0 -236.5 72.5t-86.5 194.5q0 167 152 267.5t378 100.5q141 0 262 -41l2 9q8 43 8.5 82.5t-10.5 81.5t-34.5 73t-69 50.5t-109.5 19.5q-115 0 -179.5 -59
t-59.5 -156h-189q-13 173 111.5 276t324.5 103zM395 123q138 0 249 86t163 223q-102 45 -234 45q-154 0 -256 -58t-102 -159q0 -67 47.5 -102t132.5 -35z" />
    <glyph glyph-name="uni1EAC" unicode="&#x1eac;" horiz-adv-x="1429" 
d="M1044 1507l-126 140l-173 -140h-190l272 224h197l199 -224h-179zM995 1434l312 -1434h-203l-72 344h-678l-192 -344h-221l815 1434h239zM850 1233l-404 -723h553zM590 -137q49 0 79.5 -31.5t30.5 -81.5q0 -55 -37.5 -92t-91.5 -37q-49 0 -80.5 31.5t-31.5 81.5
q0 56 37.5 92.5t93.5 36.5z" />
    <glyph glyph-name="uni1EAD" unicode="&#x1ead;" horiz-adv-x="1105" 
d="M797 1159l-92 160l-148 -160h-186l254 275h184l166 -275h-178zM612 1049q153 0 251.5 -64.5t133.5 -175t9 -254.5l-99 -555h-172l37 201q-75 -108 -183 -167t-241 -59q-150 0 -236.5 72.5t-86.5 194.5q0 167 152 267.5t378 100.5q141 0 262 -41l2 9q8 43 8.5 82.5
t-10.5 81.5t-34.5 73t-69 50.5t-109.5 19.5q-115 0 -179.5 -59t-59.5 -156h-189q-13 173 111.5 276t324.5 103zM395 123q138 0 249 86t163 223q-102 45 -234 45q-154 0 -256 -58t-102 -159q0 -67 47.5 -102t132.5 -35zM442 -137q49 0 80 -31.5t31 -81.5q0 -55 -37.5 -92
t-91.5 -37q-50 0 -81.5 31.5t-31.5 81.5q0 56 37.5 92.5t93.5 36.5z" />
    <glyph glyph-name="uni1EAE" unicode="&#x1eae;" horiz-adv-x="1429" 
d="M1006 2007h208l-229 -223h-154zM897 1501q-129 0 -202.5 62t-53.5 168h139q-8 -49 25 -79t104 -30q72 0 115.5 30.5t54.5 78.5h142q-18 -108 -106.5 -169t-217.5 -61zM1307 0h-203l-72 344h-678l-192 -344h-221l815 1434h239zM850 1233l-404 -723h553z" />
    <glyph glyph-name="uni1EAF" unicode="&#x1eaf;" horiz-adv-x="1105" 
d="M764 1659h156l-162 -234h-119zM680 1133q-139 0 -218.5 70t-66.5 190h129q-6 -72 36 -110t128 -38q88 0 143.5 40.5t71.5 107.5h131q-30 -127 -124.5 -193.5t-229.5 -66.5zM612 1049q153 0 251.5 -64.5t133.5 -175t9 -254.5l-99 -555h-172l37 201q-75 -108 -183 -167
t-241 -59q-150 0 -236.5 72.5t-86.5 194.5q0 167 152 267.5t378 100.5q141 0 262 -41l2 9q8 43 8.5 82.5t-10.5 81.5t-34.5 73t-69 50.5t-109.5 19.5q-115 0 -179.5 -59t-59.5 -156h-189q-13 173 111.5 276t324.5 103zM395 123q138 0 249 86t163 223q-102 45 -234 45
q-154 0 -256 -58t-102 -159q0 -67 47.5 -102t132.5 -35z" />
    <glyph glyph-name="uni1EB0" unicode="&#x1eb0;" horiz-adv-x="1429" 
d="M961 2007l96 -223h-142l-151 223h197zM897 1501q-129 0 -202.5 62t-53.5 168h139q-8 -49 25 -79t104 -30q72 0 115.5 30.5t54.5 78.5h142q-18 -108 -106.5 -169t-217.5 -61zM1307 0h-203l-72 344h-678l-192 -344h-221l815 1434h239zM850 1233l-404 -723h553z" />
    <glyph glyph-name="uni1EB1" unicode="&#x1eb1;" horiz-adv-x="1105" 
d="M768 1659l43 -234h-111l-77 234h145zM680 1133q-139 0 -218.5 70t-66.5 190h129q-6 -72 36 -110t128 -38q88 0 143.5 40.5t71.5 107.5h131q-30 -127 -124.5 -193.5t-229.5 -66.5zM612 1049q153 0 251.5 -64.5t133.5 -175t9 -254.5l-99 -555h-172l37 201
q-75 -108 -183 -167t-241 -59q-150 0 -236.5 72.5t-86.5 194.5q0 167 152 267.5t378 100.5q141 0 262 -41l2 9q8 43 8.5 82.5t-10.5 81.5t-34.5 73t-69 50.5t-109.5 19.5q-115 0 -179.5 -59t-59.5 -156h-189q-13 173 111.5 276t324.5 103zM395 123q138 0 249 86t163 223
q-102 45 -234 45q-154 0 -256 -58t-102 -159q0 -67 47.5 -102t132.5 -35z" />
    <glyph glyph-name="uni1EB2" unicode="&#x1eb2;" horiz-adv-x="1429" 
d="M1028 1925q0 61 -194 39l6 98q139 23 225 -7.5t86 -112.5q0 -70 -67 -112.5t-171 -55.5l-22 69q56 7 96.5 28.5t40.5 53.5zM897 1501q-129 0 -202.5 62t-53.5 168h139q-8 -49 25 -79t104 -30q72 0 115.5 30.5t54.5 78.5h142q-18 -108 -106.5 -169t-217.5 -61zM1307 0
h-203l-72 344h-678l-192 -344h-221l815 1434h239zM850 1233l-404 -723h553z" />
    <glyph glyph-name="uni1EB3" unicode="&#x1eb3;" horiz-adv-x="1105" 
d="M735 1522q0 41 -41 55.5t-116 -0.5l6 88q129 29 211 -8t82 -125q0 -78 -63.5 -122.5t-162.5 -59.5l-35 73q54 9 86.5 35.5t32.5 63.5zM680 1133q-139 0 -218.5 70t-66.5 190h129q-6 -72 36 -110t128 -38q88 0 143.5 40.5t71.5 107.5h131q-30 -127 -124.5 -193.5
t-229.5 -66.5zM612 1049q153 0 251.5 -64.5t133.5 -175t9 -254.5l-99 -555h-172l37 201q-75 -108 -183 -167t-241 -59q-150 0 -236.5 72.5t-86.5 194.5q0 167 152 267.5t378 100.5q141 0 262 -41l2 9q8 43 8.5 82.5t-10.5 81.5t-34.5 73t-69 50.5t-109.5 19.5
q-115 0 -179.5 -59t-59.5 -156h-189q-13 173 111.5 276t324.5 103zM395 123q138 0 249 86t163 223q-102 45 -234 45q-154 0 -256 -58t-102 -159q0 -67 47.5 -102t132.5 -35z" />
    <glyph glyph-name="uni1EB4" unicode="&#x1eb4;" horiz-adv-x="1429" 
d="M766 1794h-119q-17 102 32 158.5t138 56.5q43 0 82.5 -15.5t65 -34.5t57 -34.5t59.5 -15.5q39 0 57.5 27.5t10.5 68.5h121q12 -99 -34.5 -158t-139.5 -59q-55 0 -102 25t-85.5 50t-72.5 25q-42 0 -60 -28t-10 -66zM897 1501q-129 0 -202.5 62t-53.5 168h139
q-8 -49 25 -79t104 -30q72 0 115.5 30.5t54.5 78.5h142q-18 -108 -106.5 -169t-217.5 -61zM1307 0h-203l-72 344h-678l-192 -344h-221l815 1434h239zM850 1233l-404 -723h553z" />
    <glyph glyph-name="uni1EB5" unicode="&#x1eb5;" horiz-adv-x="1105" 
d="M559 1452h-113q-13 93 36.5 151t133.5 58q43 0 78.5 -16t55.5 -35t47 -35t55 -16q43 0 64 31.5t16 70.5h115q8 -92 -38.5 -150.5t-136.5 -58.5q-43 0 -79 15.5t-55.5 34.5t-45.5 34.5t-53 15.5q-43 0 -65 -32t-15 -68zM688 1245q88 0 143.5 40.5t71.5 107.5h131
q-30 -127 -124.5 -193.5t-229.5 -66.5q-139 0 -218.5 70t-66.5 190h129q-6 -72 36 -110t128 -38zM612 1049q153 0 251.5 -64.5t133.5 -175t9 -254.5l-99 -555h-172l37 201q-75 -108 -183 -167t-241 -59q-150 0 -236.5 72.5t-86.5 194.5q0 167 152 267.5t378 100.5
q141 0 262 -41l2 9q8 43 8.5 82.5t-10.5 81.5t-34.5 73t-69 50.5t-109.5 19.5q-115 0 -179.5 -59t-59.5 -156h-189q-13 173 111.5 276t324.5 103zM395 123q138 0 249 86t163 223q-102 45 -234 45q-154 0 -256 -58t-102 -159q0 -67 47.5 -102t132.5 -35z" />
    <glyph glyph-name="uni1EB6" unicode="&#x1eb6;" horiz-adv-x="1429" 
d="M897 1501q-129 0 -202.5 62t-53.5 168h139q-8 -49 25 -79t104 -30q72 0 115.5 30.5t54.5 78.5h142q-18 -108 -106.5 -169t-217.5 -61zM995 1434l312 -1434h-203l-72 344h-678l-192 -344h-221l815 1434h239zM850 1233l-404 -723h553zM590 -137q49 0 79.5 -31.5t30.5 -81.5
q0 -55 -37.5 -92t-91.5 -37q-49 0 -80.5 31.5t-31.5 81.5q0 56 37.5 92.5t93.5 36.5z" />
    <glyph glyph-name="uni1EB7" unicode="&#x1eb7;" horiz-adv-x="1105" 
d="M688 1155q-140 0 -220 77.5t-65 201.5h154q-9 -71 26 -109.5t115 -38.5q159 0 191 148h153q-23 -131 -121 -205t-233 -74zM612 1049q153 0 251.5 -64.5t133.5 -175t9 -254.5l-99 -555h-172l37 201q-75 -108 -183 -167t-241 -59q-150 0 -236.5 72.5t-86.5 194.5
q0 167 152 267.5t378 100.5q141 0 262 -41l2 9q8 43 8.5 82.5t-10.5 81.5t-34.5 73t-69 50.5t-109.5 19.5q-115 0 -179.5 -59t-59.5 -156h-189q-13 173 111.5 276t324.5 103zM395 123q138 0 249 86t163 223q-102 45 -234 45q-154 0 -256 -58t-102 -159q0 -67 47.5 -102
t132.5 -35zM442 -137q49 0 80 -31.5t31 -81.5q0 -55 -37.5 -92t-91.5 -37q-50 0 -81.5 31.5t-31.5 81.5q0 56 37.5 92.5t93.5 36.5z" />
    <glyph glyph-name="uni1EB8" unicode="&#x1eb8;" horiz-adv-x="1284" 
d="M1321 1434l-31 -164h-776l-76 -430h668l-29 -164h-665l-90 -512h794l-29 -164h-997l254 1434h977zM543 -137q49 0 79.5 -31.5t30.5 -81.5q0 -55 -37.5 -92t-91.5 -37q-49 0 -80.5 31.5t-31.5 81.5q0 56 37.5 92.5t93.5 36.5z" />
    <glyph glyph-name="uni1EB9" unicode="&#x1eb9;" horiz-adv-x="1157" 
d="M535 141q99 0 180.5 47.5t128.5 128.5h211q-75 -162 -215 -252t-318 -90q-212 0 -335.5 124.5t-123.5 336.5q0 126 44.5 238.5t123 195t191.5 131t244 48.5q109 0 196.5 -33t142 -91.5t79.5 -134t12.5 -165.5t-62.5 -181h-774q0 -142 73 -222.5t202 -80.5zM653 893
q-146 0 -246.5 -92.5t-132.5 -235.5h598q52 138 -8.5 233t-210.5 95zM479 -137q49 0 80 -31.5t31 -81.5q0 -55 -37.5 -92t-91.5 -37q-49 0 -81 31.5t-32 81.5q0 56 37.5 92.5t93.5 36.5z" />
    <glyph glyph-name="uni1EBA" unicode="&#x1eba;" horiz-adv-x="1284" 
d="M942 1649q0 61 -194 39l6 98q138 23 224.5 -8t86.5 -113q0 -70 -67 -112.5t-171 -55.5l-22 70q56 7 96.5 28.5t40.5 53.5zM1321 1434l-31 -164h-776l-76 -430h668l-29 -164h-665l-90 -512h794l-29 -164h-997l254 1434h977z" />
    <glyph glyph-name="uni1EBB" unicode="&#x1ebb;" horiz-adv-x="1157" 
d="M774 1282q0 89 -180 59l8 101q83 17 152 8.5t113 -49.5t44 -105q0 -152 -247 -188l-21 70q59 8 95 34.5t36 69.5zM535 141q99 0 180.5 47.5t128.5 128.5h211q-75 -162 -215 -252t-318 -90q-212 0 -335.5 124.5t-123.5 336.5q0 126 44.5 238.5t123 195t191.5 131t244 48.5
q109 0 196.5 -33t142 -91.5t79.5 -134t12.5 -165.5t-62.5 -181h-774q0 -142 73 -222.5t202 -80.5zM653 893q-146 0 -246.5 -92.5t-132.5 -235.5h598q52 138 -8.5 233t-210.5 95z" />
    <glyph glyph-name="uni1EBC" unicode="&#x1ebc;" horiz-adv-x="1284" 
d="M680 1518h-119q-17 102 32 158.5t138 56.5q54 0 102 -25.5t87.5 -50.5t74.5 -25q39 0 57.5 28t10.5 69h121q12 -99 -34.5 -158.5t-139.5 -59.5q-43 0 -83 16t-64 34.5t-54.5 34.5t-58.5 16q-42 0 -60 -28t-10 -66zM1321 1434l-31 -164h-776l-76 -430h668l-29 -164h-665
l-90 -512h794l-29 -164h-997l254 1434h977z" />
    <glyph glyph-name="uni1EBD" unicode="&#x1ebd;" horiz-adv-x="1157" 
d="M528 1176h-127q-13 104 39 167.5t144 63.5q42 0 81.5 -16t64 -35t55.5 -35t59 -16q40 0 58.5 30t15.5 72h129q12 -103 -40.5 -168t-150.5 -65q-43 0 -81.5 15.5t-61.5 34.5t-52.5 34.5t-56.5 15.5q-43 0 -63.5 -31.5t-12.5 -66.5zM535 141q99 0 180.5 47.5t128.5 128.5
h211q-75 -162 -215 -252t-318 -90q-212 0 -335.5 124.5t-123.5 336.5q0 126 44.5 238.5t123 195t191.5 131t244 48.5q109 0 196.5 -33t142 -91.5t79.5 -134t12.5 -165.5t-62.5 -181h-774q0 -142 73 -222.5t202 -80.5zM653 893q-146 0 -246.5 -92.5t-132.5 -235.5h598
q52 138 -8.5 233t-210.5 95z" />
    <glyph glyph-name="uni1EBE" unicode="&#x1ebe;" horiz-adv-x="1284" 
d="M1327 1804h209l-229 -223h-154zM1008 1507l-127 140l-172 -140h-191l273 224h196l199 -224h-178zM1087 0h-997l254 1434h977l-31 -164h-776l-76 -430h668l-29 -164h-665l-90 -512h794z" />
    <glyph glyph-name="uni1EBF" unicode="&#x1ebf;" horiz-adv-x="1157" 
d="M1053 1528h155l-161 -234h-121zM825 1159l-102 137l-148 -137h-176l248 234h174l172 -234h-168zM666 1049q109 0 196.5 -33t142 -91.5t79.5 -134t12.5 -165.5t-62.5 -181h-774q0 -142 73 -222.5t202 -80.5q99 0 180.5 47.5t128.5 128.5h211q-75 -162 -215 -252t-318 -90
q-212 0 -335.5 124.5t-123.5 336.5q0 126 44.5 238.5t123 195t191.5 131t244 48.5zM653 893q-146 0 -246.5 -92.5t-132.5 -235.5h598q52 138 -8.5 233t-210.5 95z" />
    <glyph glyph-name="uni1EC0" unicode="&#x1ec0;" horiz-adv-x="1284" 
d="M1284 1804l96 -223h-141l-152 223h197zM1008 1507l-127 140l-172 -140h-191l273 224h196l199 -224h-178zM1087 0h-997l254 1434h977l-31 -164h-776l-76 -430h668l-29 -164h-665l-90 -512h794z" />
    <glyph glyph-name="uni1EC1" unicode="&#x1ec1;" horiz-adv-x="1157" 
d="M1057 1528l43 -234h-111l-78 234h146zM825 1159l-102 137l-148 -137h-176l248 234h174l172 -234h-168zM535 141q99 0 180.5 47.5t128.5 128.5h211q-75 -162 -215 -252t-318 -90q-212 0 -335.5 124.5t-123.5 336.5q0 126 44.5 238.5t123 195t191.5 131t244 48.5
q109 0 196.5 -33t142 -91.5t79.5 -134t12.5 -165.5t-62.5 -181h-774q0 -142 73 -222.5t202 -80.5zM653 893q-146 0 -246.5 -92.5t-132.5 -235.5h598q52 138 -8.5 233t-210.5 95z" />
    <glyph glyph-name="uni1EC2" unicode="&#x1ec2;" horiz-adv-x="1284" 
d="M1137 1722l6 101q136 22 222.5 -9t86.5 -112q0 -71 -65.5 -113t-169.5 -55l-23 68q55 6 95 29t40 55t-49 40t-143 -4zM1008 1507l-127 140l-172 -140h-191l273 224h196l199 -224h-178zM1087 0h-997l254 1434h977l-31 -164h-776l-76 -430h668l-29 -164h-665l-90 -512h794z
" />
    <glyph glyph-name="uni1EC3" unicode="&#x1ec3;" horiz-adv-x="1157" 
d="M924 1434l6 98q75 15 135.5 7t99.5 -45t39 -95q0 -136 -215 -172l-20 59q50 9 81 34t31 62q0 42 -42.5 55t-114.5 -3zM825 1159l-102 137l-148 -137h-176l248 234h174l172 -234h-168zM666 1049q109 0 196.5 -33t142 -91.5t79.5 -134t12.5 -165.5t-62.5 -181h-774
q0 -142 73 -222.5t202 -80.5q99 0 180.5 47.5t128.5 128.5h211q-75 -162 -215 -252t-318 -90q-212 0 -335.5 124.5t-123.5 336.5q0 126 44.5 238.5t123 195t191.5 131t244 48.5zM653 893q-146 0 -246.5 -92.5t-132.5 -235.5h598q52 138 -8.5 233t-210.5 95z" />
    <glyph glyph-name="uni1EC4" unicode="&#x1ec4;" horiz-adv-x="1284" 
d="M729 1788h-119q-17 102 32 158.5t138 56.5q43 0 82.5 -15.5t65 -34.5t57 -34.5t59.5 -15.5q39 0 57.5 27.5t10.5 68.5h121q12 -99 -34.5 -158t-139.5 -59q-55 0 -102 25t-85.5 50t-72.5 25q-42 0 -60 -28t-10 -66zM1008 1507l-127 140l-172 -140h-191l273 224h196
l199 -224h-178zM1321 1434l-31 -164h-776l-76 -430h668l-29 -164h-665l-90 -512h794l-29 -164h-997l254 1434h977z" />
    <glyph glyph-name="uni1EC5" unicode="&#x1ec5;" horiz-adv-x="1157" 
d="M573 1419h-112q-12 93 37 151t133 58q43 0 78.5 -16t55.5 -35t47.5 -35t55.5 -16q42 0 63.5 31t16.5 69h115q8 -91 -39 -150t-137 -59q-44 0 -79.5 16t-55 34.5t-45.5 34.5t-52 16q-44 0 -66.5 -32.5t-15.5 -66.5zM825 1159l-102 137l-148 -137h-176l248 234h174
l172 -234h-168zM535 141q99 0 180.5 47.5t128.5 128.5h211q-75 -162 -215 -252t-318 -90q-212 0 -335.5 124.5t-123.5 336.5q0 126 44.5 238.5t123 195t191.5 131t244 48.5q109 0 196.5 -33t142 -91.5t79.5 -134t12.5 -165.5t-62.5 -181h-774q0 -142 73 -222.5t202 -80.5z
M653 893q-146 0 -246.5 -92.5t-132.5 -235.5h598q52 138 -8.5 233t-210.5 95z" />
    <glyph glyph-name="uni1EC6" unicode="&#x1ec6;" horiz-adv-x="1284" 
d="M1008 1507l-127 140l-172 -140h-191l273 224h196l199 -224h-178zM1321 1434l-31 -164h-776l-76 -430h668l-29 -164h-665l-90 -512h794l-29 -164h-997l254 1434h977zM543 -137q49 0 79.5 -31.5t30.5 -81.5q0 -55 -37.5 -92t-91.5 -37q-49 0 -80.5 31.5t-31.5 81.5
q0 56 37.5 92.5t93.5 36.5z" />
    <glyph glyph-name="uni1EC7" unicode="&#x1ec7;" horiz-adv-x="1157" 
d="M819 1159l-92 160l-147 -160h-187l254 275h184l166 -275h-178zM535 141q99 0 180.5 47.5t128.5 128.5h211q-75 -162 -215 -252t-318 -90q-212 0 -335.5 124.5t-123.5 336.5q0 126 44.5 238.5t123 195t191.5 131t244 48.5q109 0 196.5 -33t142 -91.5t79.5 -134
t12.5 -165.5t-62.5 -181h-774q0 -142 73 -222.5t202 -80.5zM653 893q-146 0 -246.5 -92.5t-132.5 -235.5h598q52 138 -8.5 233t-210.5 95zM479 -137q49 0 80 -31.5t31 -81.5q0 -55 -37.5 -92t-91.5 -37q-49 0 -81 31.5t-32 81.5q0 56 37.5 92.5t93.5 36.5z" />
    <glyph glyph-name="uni1EC8" unicode="&#x1ec8;" horiz-adv-x="563" 
d="M430 1497l-22 70q56 7 96.5 28.5t40.5 53.5q0 61 -195 39l6 98q139 23 225.5 -8t86.5 -113q0 -70 -67 -112.5t-171 -55.5zM291 0h-201l254 1434h201z" />
    <glyph glyph-name="uni1EC9" unicode="&#x1ec9;" horiz-adv-x="448" 
d="M303 1108l-20 70q59 8 95 34.5t36 69.5q0 89 -181 59l9 101q83 17 152 8.5t113 -49.5t44 -105q0 -152 -248 -188zM229 0h-190l180 1024h191z" />
    <glyph glyph-name="uni1ECA" unicode="&#x1eca;" horiz-adv-x="563" 
d="M291 0h-201l254 1434h201zM137 -379q-49 0 -80.5 31.5t-31.5 81.5q0 56 37.5 92.5t93.5 36.5q49 0 79.5 -31.5t30.5 -81.5q0 -55 -37.5 -92t-91.5 -37z" />
    <glyph glyph-name="uni1ECB" unicode="&#x1ecb;" horiz-adv-x="448" 
d="M356 1182q-50 0 -81 30.5t-31 79.5q0 54 38 92.5t93 38.5q49 0 79.5 -31t30.5 -79q0 -56 -38 -93.5t-91 -37.5zM229 0h-190l180 1024h191zM82 -379q-50 0 -81.5 31.5t-31.5 81.5q0 56 37.5 92.5t93.5 36.5q49 0 80 -31.5t31 -81.5q0 -55 -37.5 -92t-91.5 -37z" />
    <glyph glyph-name="uni1ECC" unicode="&#x1ecc;" horiz-adv-x="1646" 
d="M748 -25q-275 0 -441 169t-166 450q0 171 64 329.5t174 276.5t265.5 188t328.5 70q277 0 441.5 -168.5t164.5 -449.5q0 -170 -63.5 -328t-172.5 -276.5t-265 -189.5t-330 -71zM760 145q172 0 314.5 100.5t220 259t77.5 333.5q0 209 -110 329.5t-301 120.5
q-130 0 -246 -59t-195.5 -155.5t-125.5 -221.5t-46 -256q0 -209 111 -330t301 -121zM680 -379q-50 0 -81.5 31.5t-31.5 81.5q0 56 37.5 92.5t93.5 36.5q49 0 80 -31.5t31 -81.5q0 -55 -37.5 -92t-91.5 -37z" />
    <glyph glyph-name="uni1ECD" unicode="&#x1ecd;" horiz-adv-x="1183" 
d="M512 -25q-208 0 -329.5 120t-121.5 331q0 127 46.5 242t127 199t195 133t244.5 49q207 0 327.5 -118t120.5 -331q0 -169 -77 -312t-217.5 -228t-315.5 -85zM528 141q115 0 207 65t140.5 167.5t48.5 218.5q0 137 -70.5 214t-196.5 77q-115 0 -208 -64.5t-142 -166.5
t-49 -218q0 -137 72 -215t198 -78zM449 -379q-49 0 -81 31.5t-32 81.5q0 56 37.5 92.5t93.5 36.5q49 0 80 -31.5t31 -81.5q0 -55 -37.5 -92t-91.5 -37z" />
    <glyph glyph-name="uni1ECE" unicode="&#x1ece;" horiz-adv-x="1646" 
d="M975 1497l-23 70q56 7 97 28.5t41 53.5q0 61 -195 39l6 98q138 23 224.5 -8t86.5 -113q0 -70 -66.5 -112.5t-170.5 -55.5zM748 -25q-275 0 -441 169t-166 450q0 171 64 329.5t174 276.5t265.5 188t328.5 70q277 0 441.5 -168.5t164.5 -449.5q0 -170 -63.5 -328
t-172.5 -276.5t-265 -189.5t-330 -71zM760 145q172 0 314.5 100.5t220 259t77.5 333.5q0 209 -110 329.5t-301 120.5q-130 0 -246 -59t-195.5 -155.5t-125.5 -221.5t-46 -256q0 -209 111 -330t301 -121z" />
    <glyph glyph-name="uni1ECF" unicode="&#x1ecf;" horiz-adv-x="1183" 
d="M670 1108l-21 70q59 8 95 34.5t36 69.5q0 89 -180 59l8 101q83 17 152 8.5t113.5 -50t44.5 -104.5q0 -152 -248 -188zM512 -25q-208 0 -329.5 120t-121.5 331q0 127 46.5 242t127 199t195 133t244.5 49q207 0 327.5 -118t120.5 -331q0 -169 -77 -312t-217.5 -228
t-315.5 -85zM528 141q115 0 207 65t140.5 167.5t48.5 218.5q0 137 -70.5 214t-196.5 77q-115 0 -208 -64.5t-142 -166.5t-49 -218q0 -137 72 -215t198 -78z" />
    <glyph glyph-name="uni1ED0" unicode="&#x1ed0;" horiz-adv-x="1646" 
d="M1475 1804h208l-229 -223h-154zM1153 1507l-127 140l-172 -140h-190l272 224h197l198 -224h-178zM973 1458q277 0 441.5 -168.5t164.5 -449.5q0 -170 -63.5 -328t-172.5 -276.5t-265 -189.5t-330 -71q-275 0 -441 169t-166 450q0 171 64 329.5t174 276.5t265.5 188
t328.5 70zM760 145q172 0 314.5 100.5t220 259t77.5 333.5q0 209 -110 329.5t-301 120.5q-130 0 -246 -59t-195.5 -155.5t-125.5 -221.5t-46 -256q0 -209 111 -330t301 -121z" />
    <glyph glyph-name="uni1ED1" unicode="&#x1ed1;" horiz-adv-x="1183" 
d="M1059 1528h155l-161 -234h-121zM831 1159l-102 137l-147 -137h-176l247 234h174l172 -234h-168zM674 1049q207 0 327.5 -118t120.5 -331q0 -169 -77 -312t-217.5 -228t-315.5 -85q-208 0 -329.5 120t-121.5 331q0 127 46.5 242t127 199t195 133t244.5 49zM528 141
q115 0 207 65t140.5 167.5t48.5 218.5q0 137 -70.5 214t-196.5 77q-115 0 -208 -64.5t-142 -166.5t-49 -218q0 -137 72 -215t198 -78z" />
    <glyph glyph-name="uni1ED2" unicode="&#x1ed2;" horiz-adv-x="1646" 
d="M1432 1804l96 -223h-142l-151 223h197zM1153 1507l-127 140l-172 -140h-190l272 224h197l198 -224h-178zM973 1458q277 0 441.5 -168.5t164.5 -449.5q0 -170 -63.5 -328t-172.5 -276.5t-265 -189.5t-330 -71q-275 0 -441 169t-166 450q0 171 64 329.5t174 276.5
t265.5 188t328.5 70zM760 145q172 0 314.5 100.5t220 259t77.5 333.5q0 209 -110 329.5t-301 120.5q-130 0 -246 -59t-195.5 -155.5t-125.5 -221.5t-46 -256q0 -209 111 -330t301 -121z" />
    <glyph glyph-name="uni1ED3" unicode="&#x1ed3;" horiz-adv-x="1183" 
d="M1063 1528l43 -234h-111l-77 234h145zM831 1159l-102 137l-147 -137h-176l247 234h174l172 -234h-168zM674 1049q207 0 327.5 -118t120.5 -331q0 -169 -77 -312t-217.5 -228t-315.5 -85q-208 0 -329.5 120t-121.5 331q0 127 46.5 242t127 199t195 133t244.5 49zM528 141
q115 0 207 65t140.5 167.5t48.5 218.5q0 137 -70.5 214t-196.5 77q-115 0 -208 -64.5t-142 -166.5t-49 -218q0 -137 72 -215t198 -78z" />
    <glyph glyph-name="uni1ED4" unicode="&#x1ed4;" horiz-adv-x="1646" 
d="M1475 1686q0 32 -49.5 40t-143.5 -4l6 101q136 22 222.5 -9t86.5 -112q0 -71 -65.5 -113t-169.5 -55l-23 68q55 6 95.5 29t40.5 55zM1153 1507l-127 140l-172 -140h-190l272 224h197l198 -224h-178zM973 1458q277 0 441.5 -168.5t164.5 -449.5q0 -170 -63.5 -328
t-172.5 -276.5t-265 -189.5t-330 -71q-275 0 -441 169t-166 450q0 171 64 329.5t174 276.5t265.5 188t328.5 70zM760 145q172 0 314.5 100.5t220 259t77.5 333.5q0 209 -110 329.5t-301 120.5q-130 0 -246 -59t-195.5 -155.5t-125.5 -221.5t-46 -256q0 -209 111 -330
t301 -121z" />
    <glyph glyph-name="uni1ED5" unicode="&#x1ed5;" horiz-adv-x="1183" 
d="M930 1434l6 98q75 15 135.5 7t99.5 -45t39 -95q0 -136 -215 -172l-20 59q50 9 81 34t31 62q0 42 -42.5 55t-114.5 -3zM831 1159l-102 137l-147 -137h-176l247 234h174l172 -234h-168zM674 1049q207 0 327.5 -118t120.5 -331q0 -169 -77 -312t-217.5 -228t-315.5 -85
q-208 0 -329.5 120t-121.5 331q0 127 46.5 242t127 199t195 133t244.5 49zM528 141q115 0 207 65t140.5 167.5t48.5 218.5q0 137 -70.5 214t-196.5 77q-115 0 -208 -64.5t-142 -166.5t-49 -218q0 -137 72 -215t198 -78z" />
    <glyph glyph-name="uni1ED6" unicode="&#x1ed6;" horiz-adv-x="1646" 
d="M877 1788h-119q-17 102 32 158.5t138 56.5q43 0 82.5 -15.5t65 -34.5t57 -34.5t59.5 -15.5q39 0 57.5 27.5t10.5 68.5h120q12 -99 -34.5 -158t-139.5 -59q-55 0 -102 25t-85.5 50t-72.5 25q-42 0 -59.5 -28t-9.5 -66zM1153 1507l-127 140l-172 -140h-190l272 224h197
l198 -224h-178zM973 1458q277 0 441.5 -168.5t164.5 -449.5q0 -170 -63.5 -328t-172.5 -276.5t-265 -189.5t-330 -71q-275 0 -441 169t-166 450q0 171 64 329.5t174 276.5t265.5 188t328.5 70zM760 145q172 0 314.5 100.5t220 259t77.5 333.5q0 209 -110 329.5t-301 120.5
q-130 0 -246 -59t-195.5 -155.5t-125.5 -221.5t-46 -256q0 -209 111 -330t301 -121z" />
    <glyph glyph-name="uni1ED7" unicode="&#x1ed7;" horiz-adv-x="1183" 
d="M580 1419h-113q-12 93 37 151t133 58q43 0 78.5 -16t55.5 -35t47.5 -35t55.5 -16q42 0 63.5 31t16.5 69h115q8 -91 -39 -150t-137 -59q-44 0 -79.5 16t-54.5 34.5t-45 34.5t-52 16q-44 0 -66.5 -32.5t-15.5 -66.5zM831 1159l-102 137l-147 -137h-176l247 234h174
l172 -234h-168zM674 1049q207 0 327.5 -118t120.5 -331q0 -169 -77 -312t-217.5 -228t-315.5 -85q-208 0 -329.5 120t-121.5 331q0 127 46.5 242t127 199t195 133t244.5 49zM528 141q115 0 207 65t140.5 167.5t48.5 218.5q0 137 -70.5 214t-196.5 77q-115 0 -208 -64.5
t-142 -166.5t-49 -218q0 -137 72 -215t198 -78z" />
    <glyph glyph-name="uni1ED8" unicode="&#x1ed8;" horiz-adv-x="1646" 
d="M1153 1507l-127 140l-172 -140h-190l272 224h197l198 -224h-178zM973 1458q277 0 441.5 -168.5t164.5 -449.5q0 -170 -63.5 -328t-172.5 -276.5t-265 -189.5t-330 -71q-275 0 -441 169t-166 450q0 171 64 329.5t174 276.5t265.5 188t328.5 70zM760 145q172 0 314.5 100.5
t220 259t77.5 333.5q0 209 -110 329.5t-301 120.5q-130 0 -246 -59t-195.5 -155.5t-125.5 -221.5t-46 -256q0 -209 111 -330t301 -121zM698 -137q49 0 80 -31.5t31 -81.5q0 -55 -37.5 -92t-91.5 -37q-50 0 -81.5 31.5t-31.5 81.5q0 56 37.5 92.5t93.5 36.5z" />
    <glyph glyph-name="uni1ED9" unicode="&#x1ed9;" horiz-adv-x="1183" 
d="M827 1159l-92 160l-147 -160h-187l254 275h185l166 -275h-179zM674 1049q207 0 327.5 -118t120.5 -331q0 -169 -77 -312t-217.5 -228t-315.5 -85q-208 0 -329.5 120t-121.5 331q0 127 46.5 242t127 199t195 133t244.5 49zM528 141q115 0 207 65t140.5 167.5t48.5 218.5
q0 137 -70.5 214t-196.5 77q-115 0 -208 -64.5t-142 -166.5t-49 -218q0 -137 72 -215t198 -78zM467 -137q49 0 80 -31.5t31 -81.5q0 -55 -37.5 -92t-91.5 -37q-49 0 -81 31.5t-32 81.5q0 56 37.5 92.5t93.5 36.5z" />
    <glyph glyph-name="uni1EDA" unicode="&#x1eda;" horiz-adv-x="1646" 
d="M1065 1731h209l-230 -224h-153zM1470 1630h142q4 -37 4 -73.5t-12.5 -74.5t-34 -72t-60.5 -66.5t-92 -57.5q162 -168 162 -446q0 -170 -63.5 -328t-172.5 -276.5t-265 -189.5t-330 -71q-275 0 -441 169t-166 450q0 171 64 329.5t174 276.5t265.5 188t328.5 70
q199 0 346 -92q93 51 125 113t26 151zM760 145q172 0 314.5 100.5t220 259t77.5 333.5q0 209 -110 329.5t-301 120.5q-130 0 -246 -59t-195.5 -155.5t-125.5 -221.5t-46 -256q0 -209 111 -330t301 -121z" />
    <glyph glyph-name="uni1EDB" unicode="&#x1edb;" horiz-adv-x="1193" 
d="M760 1434h209l-242 -275h-149zM1077 1219h137q3 -73 -17.5 -137t-72.5 -108t-127 -40q125 -119 125 -334q0 -169 -77 -312t-217.5 -228t-315.5 -85q-208 0 -329.5 120t-121.5 331q0 127 46.5 242t127 199t195 133t244.5 49h4q37 0 88 -3.5t83.5 -5t71.5 -0.5t63.5 10.5
t46.5 28.5t33 54t13 86zM528 141q115 0 207 65t140.5 167.5t48.5 218.5q0 137 -70.5 214t-196.5 77q-115 0 -208 -64.5t-142 -166.5t-49 -218q0 -137 72 -215t198 -78z" />
    <glyph glyph-name="uni1EDC" unicode="&#x1edc;" horiz-adv-x="1646" 
d="M1022 1731l96 -224h-141l-152 224h197zM1470 1630h142q4 -37 4 -73.5t-12.5 -74.5t-34 -72t-60.5 -66.5t-92 -57.5q162 -168 162 -446q0 -170 -63.5 -328t-172.5 -276.5t-265 -189.5t-330 -71q-275 0 -441 169t-166 450q0 171 64 329.5t174 276.5t265.5 188t328.5 70
q199 0 346 -92q93 51 125 113t26 151zM760 145q172 0 314.5 100.5t220 259t77.5 333.5q0 209 -110 329.5t-301 120.5q-130 0 -246 -59t-195.5 -155.5t-125.5 -221.5t-46 -256q0 -209 111 -330t301 -121z" />
    <glyph glyph-name="uni1EDD" unicode="&#x1edd;" horiz-adv-x="1193" 
d="M754 1434l86 -275h-142l-145 275h201zM1077 1219h137q3 -73 -17.5 -137t-72.5 -108t-127 -40q125 -119 125 -334q0 -169 -77 -312t-217.5 -228t-315.5 -85q-208 0 -329.5 120t-121.5 331q0 127 46.5 242t127 199t195 133t244.5 49h4q37 0 88 -3.5t83.5 -5t71.5 -0.5
t63.5 10.5t46.5 28.5t33 54t13 86zM528 141q115 0 207 65t140.5 167.5t48.5 218.5q0 137 -70.5 214t-196.5 77q-115 0 -208 -64.5t-142 -166.5t-49 -218q0 -137 72 -215t198 -78z" />
    <glyph glyph-name="uni1EDE" unicode="&#x1ede;" horiz-adv-x="1646" 
d="M1090 1649q0 61 -195 39l6 98q138 23 224.5 -8t86.5 -113q0 -70 -66.5 -112.5t-170.5 -55.5l-23 70q56 7 97 28.5t41 53.5zM1470 1630h142q4 -37 4 -73.5t-12.5 -74.5t-34 -72t-60.5 -66.5t-92 -57.5q162 -168 162 -446q0 -170 -63.5 -328t-172.5 -276.5t-265 -189.5
t-330 -71q-275 0 -441 169t-166 450q0 171 64 329.5t174 276.5t265.5 188t328.5 70q199 0 346 -92q93 51 125 113t26 151zM760 145q172 0 314.5 100.5t220 259t77.5 333.5q0 209 -110 329.5t-301 120.5q-130 0 -246 -59t-195.5 -155.5t-125.5 -221.5t-46 -256
q0 -209 111 -330t301 -121z" />
    <glyph glyph-name="uni1EDF" unicode="&#x1edf;" horiz-adv-x="1193" 
d="M780 1282q0 89 -180 59l8 101q83 17 152 8.5t113.5 -50t44.5 -104.5q0 -152 -248 -188l-21 70q59 8 95 34.5t36 69.5zM1077 1219h137q3 -73 -17.5 -137t-72.5 -108t-127 -40q125 -119 125 -334q0 -169 -77 -312t-217.5 -228t-315.5 -85q-208 0 -329.5 120t-121.5 331
q0 127 46.5 242t127 199t195 133t244.5 49h4q37 0 88 -3.5t83.5 -5t71.5 -0.5t63.5 10.5t46.5 28.5t33 54t13 86zM528 141q115 0 207 65t140.5 167.5t48.5 218.5q0 137 -70.5 214t-196.5 77q-115 0 -208 -64.5t-142 -166.5t-49 -218q0 -137 72 -215t198 -78z" />
    <glyph glyph-name="uni1EE0" unicode="&#x1ee0;" horiz-adv-x="1646" 
d="M827 1518h-118q-17 102 32 158.5t138 56.5q54 0 102 -25.5t87.5 -50.5t74.5 -25q39 0 57 28t10 69h121q12 -99 -34.5 -158.5t-139.5 -59.5q-43 0 -83 16t-64 34.5t-54.5 34.5t-58.5 16q-42 0 -60 -28t-10 -66zM1470 1630h142q4 -37 4 -73.5t-12.5 -74.5t-34 -72
t-60.5 -66.5t-92 -57.5q162 -168 162 -446q0 -170 -63.5 -328t-172.5 -276.5t-265 -189.5t-330 -71q-275 0 -441 169t-166 450q0 171 64 329.5t174 276.5t265.5 188t328.5 70q199 0 346 -92q93 51 125 113t26 151zM760 145q172 0 314.5 100.5t220 259t77.5 333.5
q0 209 -110 329.5t-301 120.5q-130 0 -246 -59t-195.5 -155.5t-125.5 -221.5t-46 -256q0 -209 111 -330t301 -121z" />
    <glyph glyph-name="uni1EE1" unicode="&#x1ee1;" horiz-adv-x="1193" 
d="M557 1176h-125q-13 104 38 167.5t140 63.5q41 0 75 -16t53.5 -35t45.5 -35t52 -16q40 0 57 30t12 72h129q6 -105 -43.5 -169t-144.5 -64q-35 0 -63.5 10.5t-46.5 25t-34.5 29t-35.5 25t-41 10.5q-38 0 -56 -28t-12 -70zM1077 1219h137q3 -73 -17.5 -137t-72.5 -108
t-127 -40q125 -119 125 -334q0 -169 -77 -312t-217.5 -228t-315.5 -85q-208 0 -329.5 120t-121.5 331q0 127 46.5 242t127 199t195 133t244.5 49h4q37 0 88 -3.5t83.5 -5t71.5 -0.5t63.5 10.5t46.5 28.5t33 54t13 86zM528 141q115 0 207 65t140.5 167.5t48.5 218.5
q0 137 -70.5 214t-196.5 77q-115 0 -208 -64.5t-142 -166.5t-49 -218q0 -137 72 -215t198 -78z" />
    <glyph glyph-name="uni1EE2" unicode="&#x1ee2;" horiz-adv-x="1646" 
d="M1470 1630h142q4 -37 4 -73.5t-12.5 -74.5t-34 -72t-60.5 -66.5t-92 -57.5q162 -168 162 -446q0 -170 -63.5 -328t-172.5 -276.5t-265 -189.5t-330 -71q-275 0 -441 169t-166 450q0 171 64 329.5t174 276.5t265.5 188t328.5 70q199 0 346 -92q93 51 125 113t26 151z
M760 145q172 0 314.5 100.5t220 259t77.5 333.5q0 209 -110 329.5t-301 120.5q-130 0 -246 -59t-195.5 -155.5t-125.5 -221.5t-46 -256q0 -209 111 -330t301 -121zM698 -137q49 0 80 -31.5t31 -81.5q0 -55 -37.5 -92t-91.5 -37q-50 0 -81.5 31.5t-31.5 81.5q0 56 37.5 92.5
t93.5 36.5z" />
    <glyph glyph-name="uni1EE3" unicode="&#x1ee3;" horiz-adv-x="1193" 
d="M1077 1219h137q3 -73 -17.5 -137t-72.5 -108t-127 -40q125 -119 125 -334q0 -169 -77 -312t-217.5 -228t-315.5 -85q-208 0 -329.5 120t-121.5 331q0 127 46.5 242t127 199t195 133t244.5 49h4q37 0 88 -3.5t83.5 -5t71.5 -0.5t63.5 10.5t46.5 28.5t33 54t13 86zM528 141
q115 0 207 65t140.5 167.5t48.5 218.5q0 137 -70.5 214t-196.5 77q-115 0 -208 -64.5t-142 -166.5t-49 -218q0 -137 72 -215t198 -78zM467 -137q49 0 80 -31.5t31 -81.5q0 -55 -37.5 -92t-91.5 -37q-49 0 -81 31.5t-32 81.5q0 56 37.5 92.5t93.5 36.5z" />
    <glyph glyph-name="uni1EE4" unicode="&#x1ee4;" horiz-adv-x="1492" 
d="M670 -23q-289 0 -416 173t-70 493l140 791h200l-139 -789q-87 -495 299 -495q196 0 312 127t161 382l137 775h199l-141 -803q-57 -323 -229.5 -488.5t-452.5 -165.5zM602 -379q-50 0 -81.5 31.5t-31.5 81.5q0 56 38 92.5t94 36.5q49 0 79.5 -31.5t30.5 -81.5
q0 -55 -37.5 -92t-91.5 -37z" />
    <glyph glyph-name="uni1EE5" unicode="&#x1ee5;" horiz-adv-x="1112" 
d="M807 530l86 494h190l-180 -1024h-190l35 199q-75 -106 -176 -162.5t-214 -56.5q-77 0 -133 27.5t-85.5 72t-43 106t-12.5 123t12 129.5l103 586h190l-104 -600q-10 -53 -9.5 -99t13 -90.5t49.5 -70t96 -25.5q58 0 116.5 25.5t110 73.5t91 123.5t55.5 168.5zM428 -137
q49 0 80 -31.5t31 -81.5q0 -55 -37.5 -92t-91.5 -37q-50 0 -81.5 31.5t-31.5 81.5q0 56 37.5 92.5t93.5 36.5z" />
    <glyph glyph-name="uni1EE6" unicode="&#x1ee6;" horiz-adv-x="1492" 
d="M895 1497l-23 70q56 7 97 28.5t41 53.5q0 61 -195 39l6 98q139 23 225.5 -8t86.5 -113q0 -70 -67 -112.5t-171 -55.5zM670 -23q-289 0 -416 173t-70 493l140 791h200l-139 -789q-87 -495 299 -495q196 0 312 127t161 382l137 775h199l-141 -803q-57 -323 -229.5 -488.5
t-452.5 -165.5z" />
    <glyph glyph-name="uni1EE7" unicode="&#x1ee7;" horiz-adv-x="1112" 
d="M739 1282q0 89 -180 59l8 101q83 17 152 8.5t113.5 -50t44.5 -104.5q0 -152 -248 -188l-21 70q59 8 95 34.5t36 69.5zM807 530l86 494h190l-180 -1024h-190l35 199q-75 -106 -176 -162.5t-214 -56.5q-77 0 -133 27.5t-85.5 72t-43 106t-12.5 123t12 129.5l103 586h190
l-104 -600q-10 -53 -9.5 -99t13 -90.5t49.5 -70t96 -25.5q58 0 116.5 25.5t110 73.5t91 123.5t55.5 168.5z" />
    <glyph glyph-name="uni1EE8" unicode="&#x1ee8;" horiz-adv-x="1492" 
d="M987 1731h209l-229 -224h-154zM1505 1630h140q14 -109 -27 -188t-141 -101l-125 -710q-57 -323 -229.5 -488.5t-452.5 -165.5q-289 0 -416 173t-70 493l140 791h200l-139 -789q-87 -495 299 -495q196 0 312 127t161 382l137 775h88q61 0 97 47t26 149z" />
    <glyph glyph-name="uni1EE9" unicode="&#x1ee9;" horiz-adv-x="1153" 
d="M719 1434h209l-242 -275h-149zM1094 1221h139q14 -109 -27 -188t-139 -101l-164 -932h-190l35 199q-75 -106 -176 -162.5t-214 -56.5q-77 0 -133 27.5t-85.5 72t-43 106t-12.5 123t12 129.5l103 586h190l-104 -600q-10 -53 -9.5 -99t13 -90.5t49.5 -70t96 -25.5
q58 0 116.5 25.5t110 73.5t91 123.5t55.5 168.5l86 494h78q61 0 97 47.5t26 149.5z" />
    <glyph glyph-name="uni1EEA" unicode="&#x1eea;" horiz-adv-x="1492" 
d="M942 1731l96 -224h-141l-152 224h197zM1505 1630h140q14 -109 -27 -188t-141 -101l-125 -710q-57 -323 -229.5 -488.5t-452.5 -165.5q-289 0 -416 173t-70 493l140 791h200l-139 -789q-87 -495 299 -495q196 0 312 127t161 382l137 775h88q61 0 97 47t26 149z" />
    <glyph glyph-name="uni1EEB" unicode="&#x1eeb;" horiz-adv-x="1153" 
d="M713 1434l86 -275h-142l-145 275h201zM1094 1221h139q14 -109 -27 -188t-139 -101l-164 -932h-190l35 199q-75 -106 -176 -162.5t-214 -56.5q-77 0 -133 27.5t-85.5 72t-43 106t-12.5 123t12 129.5l103 586h190l-104 -600q-10 -53 -9.5 -99t13 -90.5t49.5 -70t96 -25.5
q58 0 116.5 25.5t110 73.5t91 123.5t55.5 168.5l86 494h78q61 0 97 47.5t26 149.5z" />
    <glyph glyph-name="uni1EEC" unicode="&#x1eec;" horiz-adv-x="1492" 
d="M1010 1649q0 61 -195 39l6 98q139 23 225.5 -8t86.5 -113q0 -70 -67 -112.5t-171 -55.5l-23 70q56 7 97 28.5t41 53.5zM1505 1630h140q14 -109 -27 -188t-141 -101l-125 -710q-57 -323 -229.5 -488.5t-452.5 -165.5q-289 0 -416 173t-70 493l140 791h200l-139 -789
q-87 -495 299 -495q196 0 312 127t161 382l137 775h88q61 0 97 47t26 149z" />
    <glyph glyph-name="uni1EED" unicode="&#x1eed;" horiz-adv-x="1153" 
d="M739 1282q0 89 -180 59l8 101q83 17 152 8.5t113.5 -50t44.5 -104.5q0 -152 -248 -188l-21 70q59 8 95 34.5t36 69.5zM1094 1221h139q14 -109 -27 -188t-139 -101l-164 -932h-190l35 199q-75 -106 -176 -162.5t-214 -56.5q-77 0 -133 27.5t-85.5 72t-43 106t-12.5 123
t12 129.5l103 586h190l-104 -600q-10 -53 -9.5 -99t13 -90.5t49.5 -70t96 -25.5q58 0 116.5 25.5t110 73.5t91 123.5t55.5 168.5l86 494h78q61 0 97 47.5t26 149.5z" />
    <glyph glyph-name="uni1EEE" unicode="&#x1eee;" horiz-adv-x="1492" 
d="M750 1518h-119q-17 102 32 158.5t138 56.5q54 0 102 -25.5t87.5 -50.5t74.5 -25q39 0 57.5 28t10.5 69h120q12 -99 -34.5 -158.5t-139.5 -59.5q-43 0 -83 16t-64 34.5t-54.5 34.5t-58.5 16q-42 0 -59.5 -28t-9.5 -66zM1505 1630h140q14 -109 -27 -188t-141 -101
l-125 -710q-57 -323 -229.5 -488.5t-452.5 -165.5q-289 0 -416 173t-70 493l140 791h200l-139 -789q-87 -495 299 -495q196 0 312 127t161 382l137 775h88q61 0 97 47t26 149z" />
    <glyph glyph-name="uni1EEF" unicode="&#x1eef;" horiz-adv-x="1153" 
d="M496 1176h-127q-13 104 38.5 167.5t143.5 63.5q42 0 81.5 -16t64 -35t55.5 -35t59 -16q40 0 58.5 30t15.5 72h129q12 -103 -40.5 -168t-150.5 -65q-43 0 -81.5 15.5t-61.5 34.5t-52.5 34.5t-56.5 15.5q-43 0 -63 -31t-12 -67zM1094 1221h139q14 -109 -27 -188t-139 -101
l-164 -932h-190l35 199q-75 -106 -176 -162.5t-214 -56.5q-77 0 -133 27.5t-85.5 72t-43 106t-12.5 123t12 129.5l103 586h190l-104 -600q-10 -53 -9.5 -99t13 -90.5t49.5 -70t96 -25.5q58 0 116.5 25.5t110 73.5t91 123.5t55.5 168.5l86 494h78q61 0 97 47.5t26 149.5z" />
    <glyph glyph-name="uni1EF0" unicode="&#x1ef0;" horiz-adv-x="1492" 
d="M1505 1630h140q14 -109 -27 -188t-141 -101l-125 -710q-57 -323 -229.5 -488.5t-452.5 -165.5q-289 0 -416 173t-70 493l140 791h200l-139 -789q-87 -495 299 -495q196 0 312 127t161 382l137 775h88q61 0 97 47t26 149zM621 -137q49 0 79.5 -31.5t30.5 -81.5
q0 -55 -37.5 -92t-91.5 -37q-50 0 -81.5 31.5t-31.5 81.5q0 56 38 92.5t94 36.5z" />
    <glyph glyph-name="uni1EF1" unicode="&#x1ef1;" horiz-adv-x="1153" 
d="M1094 1221h139q14 -109 -27 -188t-139 -101l-164 -932h-190l35 199q-75 -106 -176 -162.5t-214 -56.5q-77 0 -133 27.5t-85.5 72t-43 106t-12.5 123t12 129.5l103 586h190l-104 -600q-10 -53 -9.5 -99t13 -90.5t49.5 -70t96 -25.5q58 0 116.5 25.5t110 73.5t91 123.5
t55.5 168.5l86 494h78q61 0 97 47.5t26 149.5zM428 -137q49 0 80 -31.5t31 -81.5q0 -55 -37.5 -92t-91.5 -37q-50 0 -81.5 31.5t-31.5 81.5q0 56 37.5 92.5t93.5 36.5z" />
    <glyph glyph-name="Ygrave" unicode="&#x1ef2;" horiz-adv-x="1359" 
d="M874 1731l97 -224h-142l-151 224h196zM1264 1434h227l-698 -850l-103 -584h-201l107 598l-403 836h219l303 -672z" />
    <glyph glyph-name="ygrave" unicode="&#x1ef3;" horiz-adv-x="1030" 
d="M678 1434l86 -275h-141l-146 275h201zM475 164l426 860h207l-596 -1151q-155 -307 -446 -307q-93 0 -168 33l16 161q69 -28 137 -28q94 0 171.5 55t129.5 147l-241 1090h202z" />
    <glyph glyph-name="uni1EF4" unicode="&#x1ef4;" horiz-adv-x="1359" 
d="M1264 1434h227l-698 -850l-103 -584h-201l107 598l-403 836h219l303 -672zM553 -137q49 0 80 -31.5t31 -81.5q0 -55 -37.5 -92t-91.5 -37q-49 0 -81 31.5t-32 81.5q0 56 37.5 92.5t93.5 36.5z" />
    <glyph glyph-name="uni1EF5" unicode="&#x1ef5;" horiz-adv-x="1030" 
d="M475 164l426 860h207l-596 -1151q-155 -307 -446 -307q-93 0 -168 33l16 161q69 -28 137 -28q94 0 171.5 55t129.5 147l-241 1090h202zM707 -137q49 0 79.5 -31.5t30.5 -81.5q0 -55 -37.5 -92t-91.5 -37q-50 0 -81.5 31.5t-31.5 81.5q0 56 38 92.5t94 36.5z" />
    <glyph glyph-name="uni1EF6" unicode="&#x1ef6;" horiz-adv-x="1359" 
d="M942 1649q0 61 -194 39l6 98q138 23 224.5 -8t86.5 -113q0 -70 -67 -112.5t-171 -55.5l-22 70q56 7 96.5 28.5t40.5 53.5zM1264 1434h227l-698 -850l-103 -584h-201l107 598l-403 836h219l303 -672z" />
    <glyph glyph-name="uni1EF7" unicode="&#x1ef7;" horiz-adv-x="1030" 
d="M705 1282q0 89 -181 59l8 101q83 17 152 8.5t113.5 -50t44.5 -104.5q0 -152 -248 -188l-21 70q60 8 96 34.5t36 69.5zM475 164l426 860h207l-596 -1151q-155 -307 -446 -307q-93 0 -168 33l16 161q69 -28 137 -28q94 0 171.5 55t129.5 147l-241 1090h202z" />
    <glyph glyph-name="uni1EF8" unicode="&#x1ef8;" horiz-adv-x="1359" 
d="M680 1518h-119q-17 102 32 158.5t138 56.5q54 0 102 -25.5t87.5 -50.5t74.5 -25q39 0 57.5 28t10.5 69h121q12 -99 -34.5 -158.5t-139.5 -59.5q-43 0 -83 16t-64 34.5t-54.5 34.5t-58.5 16q-42 0 -60 -28t-10 -66zM1264 1434h227l-698 -850l-103 -584h-201l107 598
l-403 836h219l303 -672z" />
    <glyph glyph-name="uni1EF9" unicode="&#x1ef9;" horiz-adv-x="1030" 
d="M461 1176h-127q-13 104 38.5 167.5t143.5 63.5q42 0 81.5 -16t64 -35t55.5 -35t59 -16q40 0 58.5 30t15.5 72h129q12 -103 -40.5 -168t-150.5 -65q-43 0 -81 15.5t-61.5 34.5t-52.5 34.5t-56 15.5q-43 0 -63.5 -31.5t-12.5 -66.5zM475 164l426 860h207l-596 -1151
q-155 -307 -446 -307q-93 0 -168 33l16 161q69 -28 137 -28q94 0 171.5 55t129.5 147l-241 1090h202z" />
    <glyph glyph-name="uni2000" unicode="&#x2000;" horiz-adv-x="1024" 
 />
    <glyph glyph-name="uni2001" unicode="&#x2001;" horiz-adv-x="2048" 
 />
    <glyph glyph-name="uni2002" unicode="&#x2002;" horiz-adv-x="1024" 
 />
    <glyph glyph-name="uni2003" unicode="&#x2003;" horiz-adv-x="2048" 
 />
    <glyph glyph-name="uni2004" unicode="&#x2004;" horiz-adv-x="681" 
 />
    <glyph glyph-name="uni2005" unicode="&#x2005;" horiz-adv-x="512" 
 />
    <glyph glyph-name="uni2006" unicode="&#x2006;" horiz-adv-x="342" 
 />
    <glyph glyph-name="uni2007" unicode="&#x2007;" horiz-adv-x="1331" 
 />
    <glyph glyph-name="uni2008" unicode="&#x2008;" horiz-adv-x="440" 
 />
    <glyph glyph-name="uni2009" unicode="&#x2009;" horiz-adv-x="409" 
 />
    <glyph glyph-name="uni200A" unicode="&#x200a;" horiz-adv-x="292" 
 />
    <glyph glyph-name="uni200B" unicode="&#x200b;" 
 />
    <glyph glyph-name="uni200C" unicode="&#x200c;" 
 />
    <glyph glyph-name="uni200D" unicode="&#x200d;" 
 />
    <glyph glyph-name="figuredash" unicode="&#x2012;" horiz-adv-x="1038" 
d="M967 455h-916l31 168h915z" />
    <glyph glyph-name="endash" unicode="&#x2013;" horiz-adv-x="1038" 
d="M967 455h-916l31 168h915z" />
    <glyph glyph-name="emdash" unicode="&#x2014;" horiz-adv-x="1646" 
d="M1575 455h-1524l31 168h1524z" />
    <glyph glyph-name="uni2015" unicode="&#x2015;" horiz-adv-x="1646" 
d="M1575 455h-1524l31 168h1524z" />
    <glyph glyph-name="quoteleft" unicode="&#x2018;" horiz-adv-x="403" 
d="M483 1450l-18 -111q-71 -21 -125 -76.5t-61 -121.5q27 10 51 10q52 0 82 -31t30 -84q0 -57 -36.5 -93t-94.5 -36q-66 0 -104.5 49t-38.5 127q0 131 90 234t225 133z" />
    <glyph glyph-name="quoteright" unicode="&#x2019;" horiz-adv-x="405" 
d="M332 1458q64 0 102.5 -51t38.5 -131q0 -129 -89 -230.5t-226 -130.5l18 111q74 23 129 79t62 124q-24 -12 -56 -12q-52 0 -82 30.5t-30 83.5q0 57 36.5 92t96.5 35z" />
    <glyph glyph-name="quotesinglbase" unicode="&#x201a;" horiz-adv-x="405" 
d="M115 217q65 0 102 -49t37 -129q0 -128 -90 -232t-223 -133l12 113q76 21 133 76t64 125q-29 -13 -60 -13q-51 0 -80.5 31t-29.5 82q0 57 37.5 93t97.5 36z" />
    <glyph glyph-name="quotedblleft" unicode="&#x201c;" horiz-adv-x="806" 
d="M168 1083q0 131 90 234t225 133l-18 -111q-71 -21 -125 -76.5t-61 -121.5q27 10 51 10q52 0 82 -31t30 -84q0 -57 -36.5 -93t-94.5 -36q-66 0 -104.5 49t-38.5 127zM887 1450l-19 -111q-71 -21 -125 -76.5t-61 -121.5q27 10 51 10q52 0 82.5 -31t30.5 -84
q0 -57 -36.5 -93t-94.5 -36q-66 0 -105 49t-39 127q0 131 90.5 234t225.5 133z" />
    <glyph glyph-name="quotedblright" unicode="&#x201d;" horiz-adv-x="808" 
d="M332 1458q64 0 102.5 -51t38.5 -131q0 -129 -89 -230.5t-226 -130.5l18 111q74 23 129 79t62 124q-24 -12 -56 -12q-52 0 -82 30.5t-30 83.5q0 57 36.5 92t96.5 35zM735 1458q64 0 103 -51t39 -131q0 -128 -89.5 -230t-226.5 -131l19 111q73 23 128 79t62 124
q-24 -12 -55 -12q-52 0 -82.5 30.5t-30.5 83.5q0 57 36.5 92t96.5 35z" />
    <glyph glyph-name="quotedblbase" unicode="&#x201e;" horiz-adv-x="808" 
d="M115 217q65 0 102 -49t37 -129q0 -128 -90 -232t-223 -133l12 113q76 21 133 76t64 125q-29 -13 -60 -13q-51 0 -80.5 31t-29.5 82q0 57 37.5 93t97.5 36zM518 217q65 0 102 -49t37 -129q0 -128 -90 -232t-223 -133l12 113q76 21 133 76t64 125q-29 -13 -59 -13
q-51 0 -81 31t-30 82q0 57 37.5 93t97.5 36z" />
    <glyph glyph-name="dagger" unicode="&#x2020;" horiz-adv-x="825" 
d="M614 1124h267l-31 -168h-264l-170 -956h-191l170 956h-266l31 168h264l55 310h191z" />
    <glyph glyph-name="daggerdbl" unicode="&#x2021;" horiz-adv-x="825" 
d="M881 1124l-31 -168h-262l-80 -446h264l-31 -168h-262l-61 -342h-191l62 342h-266l30 168h264l80 446h-266l31 168h264l55 310h191l-56 -310h265z" />
    <glyph glyph-name="bullet" unicode="&#x2022;" horiz-adv-x="622" 
d="M285 268q-94 0 -156.5 62.5t-62.5 154.5q0 108 82.5 189.5t191.5 81.5q93 0 155 -62t62 -155q0 -107 -82.5 -189t-189.5 -82z" />
    <glyph glyph-name="ellipsis" unicode="&#x2026;" horiz-adv-x="1482" 
d="M221 -20q-51 0 -84 34t-33 86q0 56 40 93.5t96 37.5q52 0 84 -32t32 -82q0 -59 -40 -98t-95 -39zM662 -20q-51 0 -84 34t-33 86q0 56 39.5 93.5t95.5 37.5q52 0 84.5 -32t32.5 -82q0 -59 -40 -98t-95 -39zM1100 -20q-51 0 -84 34t-33 86q0 56 39.5 93.5t95.5 37.5
q52 0 84.5 -32t32.5 -82q0 -59 -40 -98t-95 -39z" />
    <glyph glyph-name="uni202F" unicode="&#x202f;" horiz-adv-x="489" 
 />
    <glyph glyph-name="perthousand" unicode="&#x2030;" horiz-adv-x="2781" 
d="M508 -66h-156l1149 1524h158zM520 672q-146 0 -230.5 88t-84.5 231q0 174 118.5 296t297.5 122q149 0 233 -87t84 -230q0 -175 -120.5 -297.5t-297.5 -122.5zM532 799q112 0 184 84t72 202q0 90 -46.5 143.5t-133.5 53.5q-112 0 -182 -86t-70 -205q0 -89 45.5 -140.5
t130.5 -51.5zM1378 -16q-146 0 -230.5 88t-84.5 231q0 174 118.5 296t297.5 122q149 0 233 -87.5t84 -230.5q0 -175 -120.5 -297t-297.5 -122zM2224 -16q-146 0 -230.5 88t-84.5 231q0 174 118 296t297 122q148 0 232 -88t84 -230q0 -175 -119.5 -297t-296.5 -122zM1391 111
q112 0 184 84t72 202q0 90 -47.5 143.5t-133.5 53.5q-112 0 -182 -86t-70 -205q0 -89 46 -140.5t131 -51.5zM2236 111q112 0 183 84t71 202q0 90 -46 143.5t-132 53.5q-112 0 -182 -86t-70 -205q0 -90 45 -141t131 -51z" />
    <glyph glyph-name="guilsinglleft" unicode="&#x2039;" horiz-adv-x="696" 
d="M487 162h-200q-53 173 -199 401q91 90 182 195t148 186h213q-123 -182 -346 -401q56 -81 112 -188t90 -193z" />
    <glyph glyph-name="guilsinglright" unicode="&#x203a;" horiz-adv-x="696" 
d="M225 944h201q46 -160 197 -401q-91 -90 -182 -195t-148 -186h-211q120 177 344 401q-57 85 -113.5 192t-87.5 189z" />
    <glyph glyph-name="fraction" unicode="&#x2044;" horiz-adv-x="245" 
d="M-207 0h-172l895 1366h172z" />
    <glyph glyph-name="uni2070" unicode="&#x2070;" horiz-adv-x="870" 
d="M496 754q-149 0 -232.5 92t-83.5 252q0 200 118.5 337.5t307.5 137.5q151 0 233.5 -91t82.5 -249q0 -203 -120 -341t-306 -138zM508 889q79 0 138 54.5t86.5 131.5t27.5 160q0 101 -43.5 152t-118.5 51q-80 0 -139.5 -53t-87 -129t-27.5 -160q0 -101 44.5 -154t119.5 -53
z" />
    <glyph glyph-name="uni2074" unicode="&#x2074;" horiz-adv-x="786" 
d="M788 1548l-81 -458h155l-24 -129h-154l-33 -183h-162l33 183h-418l17 116q292 199 487 471h180zM309 1090h238l47 276q-131 -161 -285 -276z" />
    <glyph glyph-name="uni2075" unicode="&#x2075;" horiz-adv-x="778" 
d="M850 1548l-23 -123h-407q-17 -81 -45 -151q71 39 164 39q125 0 195.5 -66.5t70.5 -173.5q0 -137 -106.5 -228t-262.5 -91q-155 0 -231.5 88t-32.5 215h154q-25 -75 6.5 -121.5t113.5 -46.5q88 0 142.5 52t54.5 128q0 59 -35.5 94t-105.5 35q-94 0 -172 -68l-131 66
q81 159 116 352h535z" />
    <glyph glyph-name="uni2076" unicode="&#x2076;" horiz-adv-x="800" 
d="M844 1307h-156q23 59 -5 95t-93 36q-97 0 -164 -75.5t-92 -207.5q34 55 97 85t147 30q115 0 181 -59.5t66 -159.5q0 -86 -50 -155t-130 -105.5t-172 -36.5q-142 0 -222.5 88.5t-80.5 249.5q0 133 52 242t152 174t230 65q147 0 215 -78t25 -188zM528 1161q-78 0 -129 -45
t-51 -108q0 -53 36 -86t101 -33q79 0 130 45.5t51 109.5q0 53 -37 85t-101 32z" />
    <glyph glyph-name="uni2077" unicode="&#x2077;" horiz-adv-x="688" 
d="M184 1419l25 129h639l-21 -125q-155 -136 -258 -290t-157 -355h-166q98 362 393 641h-455z" />
    <glyph glyph-name="uni2078" unicode="&#x2078;" horiz-adv-x="761" 
d="M678 1196q106 -63 106 -178t-100 -189.5t-244 -74.5q-132 0 -211 64t-79 165q0 81 46.5 140t125.5 91q-76 45 -76 134q0 99 87 162t216 63q118 0 191 -53.5t73 -143.5q0 -124 -135 -180zM543 1454q-62 0 -103 -32t-41 -81q0 -41 30 -64.5t83 -23.5q62 0 103.5 32t41.5 81
q0 40 -31 64t-83 24zM451 889q73 0 123.5 41.5t50.5 101.5q0 51 -37.5 82t-100.5 31q-73 0 -122.5 -39.5t-49.5 -101.5q0 -51 36.5 -83t99.5 -32z" />
    <glyph glyph-name="uni2079" unicode="&#x2079;" horiz-adv-x="800" 
d="M557 1573q143 0 223 -87.5t80 -250.5q0 -132 -52 -241t-152.5 -174.5t-229.5 -65.5q-147 0 -215 78t-25 190h156q-23 -61 5 -97t95 -36q96 0 162.5 76.5t91.5 208.5q-34 -55 -96.5 -86t-144.5 -31q-116 0 -183 59.5t-67 159.5q0 131 104.5 214t247.5 83zM502 1167
q78 0 129 45t51 107q0 53 -36 86t-101 33q-79 0 -129.5 -46t-50.5 -110q0 -53 37 -84t100 -31z" />
    <glyph glyph-name="uni2080" unicode="&#x2080;" horiz-adv-x="870" 
d="M315 -270q-149 0 -232 91.5t-83 252.5q0 200 118.5 337.5t307.5 137.5q151 0 233 -91t82 -249q0 -203 -120 -341t-306 -138zM328 -135q79 0 138 54.5t86.5 131.5t27.5 160q0 101 -43.5 152t-118.5 51q-80 0 -139.5 -53t-87 -129t-27.5 -160q0 -101 44.5 -154t119.5 -53z
" />
    <glyph glyph-name="uni2081" unicode="&#x2081;" horiz-adv-x="593" 
d="M287 524h168l-138 -770h-161l96 545q-124 -153 -318 -190l29 163q97 21 190.5 96t133.5 156z" />
    <glyph glyph-name="uni2082" unicode="&#x2082;" horiz-adv-x="776" 
d="M664 297q0 -79 -32 -144.5t-92 -115.5t-131.5 -86.5t-164.5 -67.5h368l-24 -129h-643l20 125q80 25 137.5 45.5t123.5 49t110.5 58t83 66t57.5 81t19 95.5q0 67 -32.5 103.5t-92.5 36.5q-79 0 -127.5 -58t-48.5 -143q0 -59 26 -113h-149q-27 56 -27 121q0 146 101.5 237
t252.5 91q125 0 195 -68.5t70 -183.5z" />
    <glyph glyph-name="uni2083" unicode="&#x2083;" horiz-adv-x="722" 
d="M463 160q112 -51 112 -172q0 -114 -101 -186t-243 -72q-159 0 -235 90t-33 225h150q-29 -79 8.5 -129.5t120.5 -50.5q76 0 127 40.5t51 100.5q0 48 -33.5 76.5t-95.5 28.5h-80l20 106h70q60 0 105 31.5t45 83.5q0 40 -30.5 63t-84.5 23q-72 0 -112.5 -38.5t-37.5 -96.5
h-151q7 127 95.5 196.5t227.5 69.5q121 0 189.5 -51.5t68.5 -145.5q0 -138 -153 -192z" />
    <glyph glyph-name="uni2084" unicode="&#x2084;" horiz-adv-x="786" 
d="M608 524l-82 -458h156l-25 -129h-153l-33 -183h-162l33 183h-418l17 116q292 199 487 471h180zM129 66h238l47 276q-131 -161 -285 -276z" />
    <glyph glyph-name="uni2085" unicode="&#x2085;" horiz-adv-x="778" 
d="M670 524l-23 -123h-407q-17 -81 -45 -151q71 39 163 39q125 0 196 -66.5t71 -173.5q0 -137 -106.5 -228t-262.5 -91q-155 0 -231.5 88t-32.5 215h153q-25 -75 7 -121.5t114 -46.5q88 0 142.5 52t54.5 128q0 59 -35.5 94t-105.5 35q-94 0 -172 -68l-132 66q38 74 70 171
t47 181h535z" />
    <glyph glyph-name="uni2086" unicode="&#x2086;" horiz-adv-x="800" 
d="M664 283h-156q23 59 -5 95t-93 36q-97 0 -164 -75.5t-92 -207.5q72 115 243 115q115 0 181.5 -59.5t66.5 -159.5q0 -86 -50 -155t-130 -105.5t-172 -36.5q-142 0 -222.5 88.5t-80.5 249.5q0 133 52 242t152 174t230 65q147 0 215 -78t25 -188zM348 137q-78 0 -129 -45
t-51 -108q0 -53 36 -86t101 -33q79 0 129.5 45.5t50.5 109.5q0 53 -36.5 85t-100.5 32z" />
    <glyph glyph-name="uni2087" unicode="&#x2087;" horiz-adv-x="688" 
d="M4 395l25 129h639l-21 -125q-155 -137 -258.5 -291t-157.5 -354h-165q98 362 393 641h-455z" />
    <glyph glyph-name="uni2088" unicode="&#x2088;" horiz-adv-x="761" 
d="M498 172q106 -63 106 -178t-100 -189.5t-244 -74.5q-132 0 -211.5 64t-79.5 165q0 81 46.5 140t125.5 91q-75 44 -75 134q0 99 87 162t216 63q118 0 191 -53.5t73 -143.5q0 -124 -135 -180zM362 430q-62 0 -102.5 -32t-40.5 -81q0 -41 30 -64.5t83 -23.5q62 0 103.5 32
t41.5 81q0 40 -31.5 64t-83.5 24zM270 -135q73 0 123.5 41.5t50.5 101.5q0 51 -37 82t-100 31q-73 0 -122.5 -39.5t-49.5 -101.5q0 -51 36 -83t99 -32z" />
    <glyph glyph-name="uni2089" unicode="&#x2089;" horiz-adv-x="800" 
d="M377 549q143 0 223 -87.5t80 -250.5q0 -132 -52 -241t-152.5 -174.5t-229.5 -65.5q-147 0 -215 78t-25 190h156q-23 -61 5 -97t95 -36q96 0 162.5 76.5t91.5 208.5q-34 -55 -97 -86t-145 -31q-116 0 -182.5 59t-66.5 160q0 131 104.5 214t247.5 83zM322 143q78 0 129 45
t51 107q0 53 -36 86t-101 33q-79 0 -130 -46t-51 -110q0 -52 37.5 -83.5t100.5 -31.5z" />
    <glyph glyph-name="lira" unicode="&#x20a4;" horiz-adv-x="1148" 
d="M1024 846h-193q119 147 119 276q0 76 -46 121t-134 45q-130 0 -205.5 -97.5t-75.5 -242.5q0 -59 24 -165.5t26 -118.5h376l-16 -93h-348v-26q0 -26 -4 -76h334l-17 -92h-338q-48 -143 -164 -219h654l-29 -158h-960l20 139q88 25 158.5 88t109.5 150h-219l17 92h231
q6 38 6 74q0 18 -2 28h-217l16 93h187q-4 18 -19.5 79t-22.5 106.5t-7 94.5q0 225 137 369.5t360 144.5q174 0 267.5 -89t93.5 -226q0 -80 -32.5 -158.5t-86.5 -138.5z" />
    <glyph glyph-name="uni20A8" unicode="&#x20a8;" horiz-adv-x="1310" 
d="M1292 1436l-28 -166h-342q43 -73 43 -178h266l-27 -164h-268q-37 -98 -116.5 -167.5t-192.5 -103.5q95 -45 143 -141.5t51 -225t-18 -290.5h-197q16 122 20.5 208.5t-4.5 165.5t-36.5 127t-78.5 75.5t-128 27.5h-182l28 154h154q120 0 211 45.5t133 124.5h-467l29 164
h471q-12 178 -234 178h-207l31 166h946z" />
    <glyph glyph-name="uni20A9" unicode="&#x20a9;" horiz-adv-x="2041" 
d="M1960 1434h213l-252 -525h160l-17 -88h-186l-76 -162h234l-15 -88h-262l-274 -571h-236l-49 571h-350l-248 -571h-229l-72 571h-248l15 88h223l-21 162h-174l15 88h147l-65 525h200l60 -525h376l228 525h239l41 -525h379zM1171 909l-28 338l-146 -338h174zM791 821h-328
l18 -162h240zM958 821l-69 -162h305l-14 162h-222zM1358 659h241l76 162h-329zM492 571l40 -348l152 348h-192zM1364 571l29 -354l166 354h-195z" />
    <glyph glyph-name="dong" unicode="&#x20ab;" horiz-adv-x="1222" 
d="M1237 1280h188l-14 -86h-190l-211 -1194h-191l29 164q-73 -89 -171.5 -139t-213.5 -50q-183 0 -292.5 122.5t-109.5 326.5q0 169 73.5 312.5t203.5 228t285 84.5q128 0 215.5 -60t128.5 -168l65 373h-438l16 86h437l26 154h191zM532 141q113 0 205 62.5t141.5 164
t49.5 218.5q0 139 -71.5 218t-199.5 79q-113 0 -205.5 -62.5t-143 -164t-50.5 -216.5q0 -139 73 -219t201 -80zM981 -231h-981l16 88h981z" />
    <glyph glyph-name="Euro" unicode="&#x20ac;" horiz-adv-x="1630" 
d="M1520 909h-213q60 167 -14 272t-251 105q-188 0 -332.5 -118.5t-213.5 -305.5h651l-53 -98h-629q-19 -92 -21 -150h574l-53 -98h-516q15 -173 115 -271t263 -98q167 0 293.5 98t179.5 255h211q-68 -240 -254 -381.5t-438 -141.5q-248 0 -402.5 142.5t-174.5 396.5h-168
l16 98h150q3 68 16 150h-139l18 98h146q53 171 161 304.5t266.5 212.5t342.5 79q133 0 239.5 -41t168.5 -114.5t81.5 -174t-20.5 -219.5z" />
    <glyph glyph-name="uni20B2" unicode="&#x20b2;" horiz-adv-x="1501" 
d="M862 709h629l-29 -156h-327q153 -62 153 -223q0 -107 -74 -188.5t-195.5 -123t-268.5 -41.5h-17l-35 -202h-88l37 209q-243 29 -375.5 188.5t-132.5 409.5q0 215 95.5 396t269.5 292t391 121l35 196h88l-35 -198q158 -8 265 -71.5t146 -172.5t-1 -258h-199
q48 156 -19.5 241.5t-220.5 94.5zM334 588q0 -190 89.5 -305.5t252.5 -137.5l190 1078q-160 -13 -283 -105.5t-186 -231t-63 -298.5zM836 551l-74 -412q146 2 240 65.5t94 162.5q0 81 -67.5 128.5t-192.5 55.5z" />
    <glyph glyph-name="uni20B5" unicode="&#x20b5;" horiz-adv-x="1533" 
d="M954 1227l-192 -1088q169 6 288 108.5t173 254.5h202q-77 -238 -260 -381t-432 -144l-35 -202h-88l37 207q-239 25 -373.5 187t-134.5 415q0 162 58 308t158 253.5t240.5 173t299.5 72.5l35 196h88l-35 -198q130 -8 231.5 -57.5t158 -128.5t72.5 -183t-26 -221h-196
q57 182 -21 298t-248 130zM334 586q0 -183 92.5 -301.5t249.5 -141.5l190 1084q-116 -9 -216.5 -66.5t-169 -146t-107.5 -200t-39 -228.5z" />
    <glyph glyph-name="uni20BA" unicode="&#x20ba;" horiz-adv-x="1107" 
d="M864 676h178q15 -77 15 -141q0 -123 -52.5 -225t-141 -169t-205.5 -104t-246 -37h-240l123 694l-217 -67l16 104l219 68l23 123l-219 -68l18 104l219 68l72 408h207l-60 -338l334 104l-16 -104l-336 -105l-20 -123l333 105l-18 -105l-334 -104l-102 -586h12
q191 0 319.5 108.5t128.5 282.5q0 66 -10 107z" />
    <glyph glyph-name="uni20BD" unicode="&#x20bd;" horiz-adv-x="1357" 
d="M813 573h-422l-29 -167h658l-19 -107h-657l-53 -299h-201l53 299h-153l18 107h154l182 1028h608q207 0 315.5 -98.5t108.5 -284.5q0 -225 -151.5 -351.5t-411.5 -126.5zM1169 1044q0 226 -243 226h-412l-94 -533h411q159 0 248.5 83.5t89.5 223.5z" />
    <glyph glyph-name="uni2113" unicode="&#x2113;" horiz-adv-x="1007" 
d="M489 141q141 0 312 181l-29 -205q-136 -142 -323 -142q-257 0 -261 324q-80 -14 -172 -14l27 166q74 0 156 16q4 38 8 55l65 385q47 265 165.5 408t285.5 143q131 0 202.5 -85.5t71.5 -244.5q0 -258 -176 -473.5t-452 -310.5q-10 -98 14.5 -150.5t105.5 -52.5zM463 909
l-66 -374q183 92 294.5 253t111.5 342q0 162 -98 162q-31 0 -62.5 -17.5t-65.5 -58t-64 -119.5t-50 -188z" />
    <glyph glyph-name="uni2117" unicode="&#x2117;" horiz-adv-x="1796" 
d="M1044 1458q304 0 494.5 -187t190.5 -480q0 -179 -74.5 -345.5t-198.5 -289t-295.5 -196t-355.5 -73.5q-202 0 -357.5 86t-240 238.5t-84.5 345.5q0 119 33.5 235t93.5 214.5t146 182.5t187 143t219.5 92.5t241.5 33.5zM811 8q129 0 250.5 41t218.5 114t170.5 169.5
t113.5 214t40 239.5q0 247 -155 399t-411 152q-161 0 -308 -63.5t-251.5 -169.5t-166.5 -249t-62 -296q0 -245 153 -398t408 -153zM692 1169h393q141 0 223.5 -76.5t82.5 -207.5q0 -157 -115 -255t-289 -98h-264l-57 -325h-144zM743 651h258q107 0 175.5 64.5t68.5 165.5
q0 80 -45.5 126t-128.5 46h-258z" />
    <glyph glyph-name="trademark" unicode="&#x2122;" horiz-adv-x="1503" 
d="M205 1434h543l-23 -119h-199l-100 -578h-135l100 578h-209zM1116 915l273 519h174l-123 -697h-125l92 527l-264 -508h-105l-88 516l-94 -535h-127l123 697h176z" />
    <glyph glyph-name="uni2126" unicode="&#x2126;" horiz-adv-x="1720" 
d="M1655 844q0 -232 -130.5 -404.5t-350.5 -271.5h352l-31 -168h-629l23 154q126 49 226 112.5t178 144.5t120.5 184.5t42.5 221.5q0 212 -130.5 331.5t-342.5 119.5q-176 0 -322 -81.5t-228.5 -219.5t-82.5 -301q0 -327 350 -512l-22 -154h-617l29 168h352
q-131 79 -208.5 212t-77.5 310q0 157 65.5 299t177 245t267.5 163.5t329 60.5q299 0 479.5 -170.5t180.5 -443.5z" />
    <glyph glyph-name="estimated" unicode="&#x212e;" horiz-adv-x="1683" 
d="M827 0q-220 0 -389 84t-262.5 240.5t-93.5 361.5q0 152 54 281.5t152 222t243 144.5t319 52q220 0 384.5 -81t260 -242.5t104.5 -388.5h-1206q-16 0 -23.5 -6.5t-7.5 -30.5v-361q0 -28 36 -66.5t96 -74.5t150 -61t185 -25q292 0 492 230h141q-252 -279 -635 -279z
M393 717h893q21 0 27 6.5t6 26.5v395q0 37 -63 81t-179.5 77.5t-245.5 33.5q-98 0 -188 -20t-150 -49.5t-95.5 -62.5t-35.5 -60v-410q0 -18 31 -18z" />
    <glyph glyph-name="oneeighth" unicode="&#x215b;" horiz-adv-x="1622" 
d="M236 0l894 1366h173l-895 -1366h-172zM303 594l96 545q-125 -154 -317 -191l29 164q97 21 190 96t133 156h168l-137 -770h-162zM1401 418q106 -63 106 -178t-100 -190t-244 -75q-132 0 -211.5 64.5t-79.5 165.5q0 81 46.5 140t125.5 91q-75 44 -75 133q0 99 87 162.5
t216 63.5q118 0 191 -53.5t73 -143.5q0 -124 -135 -180zM1266 676q-62 0 -103 -32t-41 -81q0 -41 30 -64.5t83 -23.5q62 0 103.5 32t41.5 81q0 40 -31 64t-83 24zM1174 111q73 0 123.5 41.5t50.5 101.5q0 51 -37.5 82t-100.5 31q-73 0 -122.5 -40t-49.5 -102
q0 -51 36.5 -82.5t99.5 -31.5z" />
    <glyph glyph-name="threeeighths" unicode="&#x215c;" horiz-adv-x="1720" 
d="M723 827q0 -114 -101 -186t-243 -72q-159 0 -235 90t-33 226h149q-29 -79 8.5 -129.5t120.5 -50.5q76 0 127 40.5t51 100.5q0 48 -33.5 76t-95.5 28h-80l21 107h70q60 0 104.5 31t44.5 83q0 40 -30.5 63t-84.5 23q-72 0 -112 -38t-37 -97h-152q7 127 96 197t228 70
q121 0 189.5 -51.5t68.5 -145.5q0 -139 -154 -193q113 -52 113 -172zM334 0l895 1366h172l-895 -1366h-172zM1499 418q107 -63 107 -178t-100 -190t-244 -75q-132 0 -211.5 64.5t-79.5 165.5q0 81 46.5 140t125.5 91q-76 45 -76 133q0 99 87 162.5t216 63.5q118 0 191 -53.5
t73 -143.5q0 -124 -135 -180zM1364 676q-62 0 -102.5 -32t-40.5 -81q0 -41 29.5 -64.5t82.5 -23.5q62 0 104 32t42 81q0 40 -31.5 64t-83.5 24zM1272 111q73 0 123.5 41.5t50.5 101.5q0 51 -37 82t-100 31q-73 0 -122.5 -40t-49.5 -102q0 -51 36 -82.5t99 -31.5z" />
    <glyph glyph-name="fiveeighths" unicode="&#x215d;" horiz-adv-x="1785" 
d="M399 0l895 1366h172l-895 -1366h-172zM772 889q0 -137 -106.5 -228.5t-262.5 -91.5q-155 0 -231.5 88t-32.5 215h154q-25 -75 7 -121t114 -46q88 0 142 52t54 128q0 59 -35.5 94t-105.5 35q-94 0 -172 -68l-131 66q38 74 70 171t47 181h534l-22 -123h-408
q-17 -81 -45 -151q69 38 164 38q125 0 195.5 -66t70.5 -173zM1565 418q106 -63 106 -178t-100 -190t-244 -75q-132 0 -211.5 64.5t-79.5 165.5q0 81 46.5 140t125.5 91q-75 44 -75 133q0 99 87 162.5t216 63.5q118 0 191 -53.5t73 -143.5q0 -124 -135 -180zM1430 676
q-62 0 -103 -32t-41 -81q0 -41 30 -64.5t83 -23.5q62 0 103.5 32t41.5 81q0 40 -31 64t-83 24zM1337 111q73 0 123.5 41.5t50.5 101.5q0 51 -37 82t-100 31q-73 0 -122.5 -40t-49.5 -102q0 -51 36 -82.5t99 -31.5z" />
    <glyph glyph-name="seveneighths" unicode="&#x215e;" horiz-adv-x="1644" 
d="M258 0l895 1366h172l-895 -1366h-172zM379 594h-166q98 362 393 641h-454l24 129h639l-20 -125q-155 -137 -258.5 -291t-157.5 -354zM1423 418q107 -63 107 -178t-100 -190t-244 -75q-132 0 -211.5 64.5t-79.5 165.5q0 81 46.5 140t125.5 91q-76 45 -76 133
q0 99 87 162.5t216 63.5q118 0 191.5 -53.5t73.5 -143.5q0 -124 -136 -180zM1288 676q-62 0 -102.5 -32t-40.5 -81q0 -41 29.5 -64.5t82.5 -23.5q62 0 104 32t42 81q0 40 -31.5 64t-83.5 24zM1196 111q73 0 123.5 41.5t50.5 101.5q0 51 -37 82t-100 31q-73 0 -122.5 -40
t-49.5 -102q0 -51 36 -82.5t99 -31.5z" />
    <glyph glyph-name="arrowleft" unicode="&#x2190;" horiz-adv-x="1556" 
d="M465 598h1024l-31 -170h-1046q85 -75 150.5 -186t101.5 -246h-189q-44 180 -138 301t-255 221q181 89 315.5 209t253.5 299h199q-162 -271 -385 -428z" />
    <glyph glyph-name="arrowup" unicode="&#x2191;" horiz-adv-x="1243" 
d="M784 1454q68 -177 168.5 -292t264.5 -191l-29 -191q-123 57 -218.5 141t-154.5 181l-192 -1102h-170l190 1094q-193 -203 -487 -318l28 199q189 76 332.5 192.5t267.5 286.5z" />
    <glyph glyph-name="arrowright" unicode="&#x2192;" horiz-adv-x="1558" 
d="M893 1026h188q53 -185 144.5 -304.5t249.5 -217.5q-186 -92 -325 -213.5t-245 -294.5h-198q163 274 391 432h-1030l30 170h1043q-177 160 -248 428z" />
    <glyph glyph-name="arrowdown" unicode="&#x2193;" horiz-adv-x="1239" 
d="M864 1434l-192 -1092q196 202 491 315l-37 -198q-188 -76 -331 -192.5t-267 -286.5q-66 177 -167 291.5t-265 191.5l33 190q123 -57 218.5 -141.5t154.5 -183.5l192 1106h170z" />
    <glyph glyph-name="arrowboth" unicode="&#x2194;" horiz-adv-x="2119" 
d="M1456 1026h189q44 -180 138 -301t255 -221q-182 -89 -317 -209.5t-253 -298.5h-198q163 274 391 432h-1249q85 -75 150.5 -186t101.5 -246h-189q-44 180 -138 301t-255 221q181 89 315.5 209t253.5 299h199q-162 -271 -385 -428h1237q-178 161 -246 428z" />
    <glyph glyph-name="arrowupdn" unicode="&#x2195;" horiz-adv-x="1247" 
d="M1219 1001l-21 -190q-125 57 -222 141.5t-157 184.5l-196 -1123q195 195 487 312l-35 -199q-193 -85 -334.5 -199t-263.5 -280q-66 177 -166.5 292t-263.5 191l33 191q245 -117 371 -330l196 1128q-195 -202 -481 -313l24 199q189 76 331 192t267 287
q64 -173 164.5 -285.5t266.5 -198.5z" />
    <glyph glyph-name="uni2196" unicode="&#x2196;" horiz-adv-x="1409" 
d="M590 854l606 -735l-137 -119l-610 737q-6 -259 -166 -542l-119 151q103 181 137 349t8 354q175 -58 340 -53t367 73l125 -143q-303 -109 -551 -72z" />
    <glyph glyph-name="uni2197" unicode="&#x2197;" horiz-adv-x="1404" 
d="M1276 1040q-84 -188 -106.5 -349t10.5 -355l-158 -125q-61 267 8 520l-852 -729l-104 119l856 731q-251 -25 -508 84l153 131q163 -69 338 -73t363 46z" />
    <glyph glyph-name="uni2198" unicode="&#x2198;" horiz-adv-x="1409" 
d="M1137 891l116 -152q-104 -181 -138 -348t-7 -354q-175 58 -339.5 52.5t-367.5 -73.5l-125 142q294 111 553 73l-606 736l135 118l611 -735q10 260 168 541z" />
    <glyph glyph-name="uni2199" unicode="&#x2199;" horiz-adv-x="1404" 
d="M1350 1012l-856 -731q255 26 507 -84l-151 -131q-163 69 -338.5 72.5t-361.5 -46.5q84 189 106.5 349.5t-12.5 355.5l159 125q60 -265 -12 -523l856 731z" />
    <glyph glyph-name="partialdiff" unicode="&#x2202;" horiz-adv-x="1159" 
d="M690 1456q115 0 201 -41.5t139 -118.5t79 -180.5t26 -234.5q0 -112 -18 -221t-53 -211t-91 -189t-126 -151.5t-163.5 -101t-200.5 -36.5q-199 0 -314.5 113t-115.5 293q0 153 73 282t200.5 204t281.5 75q129 0 214 -54.5t120 -152.5q17 164 0.5 289t-81.5 199.5
t-171 74.5q-107 0 -173.5 -65t-72.5 -164h-200q12 184 136 287.5t310 103.5zM492 137q160 0 267 116t107 273q0 118 -67 187t-183 69q-156 0 -262 -117.5t-106 -275.5q0 -117 63.5 -184.5t180.5 -67.5z" />
    <glyph glyph-name="emptyset" unicode="&#x2205;" horiz-adv-x="1251" 
d="M1180 1094l69 -70l-159 -152q88 -120 88 -284q-1 -163 -89 -306t-233.5 -227t-308.5 -84q-181 0 -303 103l-172 -162l-68 76l168 157q-90 123 -90 287q0 163 86 306.5t231 229t310 85.5q182 0 313 -109zM227 442q0 -110 58 -190l622 586q-86 67 -213 67
q-124 0 -232.5 -65.5t-171.5 -172.5t-63 -225zM1032 578q0 108 -55 188l-621 -586q86 -61 207 -61q123 0 232 64t173 170t64 225z" />
    <glyph glyph-name="uni2206" unicode="&#x2206;" horiz-adv-x="1507" 
d="M786 1434h258l353 -1434h-1467zM1133 168l-252 1040l-619 -1040h871z" />
    <glyph glyph-name="product" unicode="&#x220f;" horiz-adv-x="1374" 
d="M246 1434h1208l-31 -168h-200l-295 -1676h-205l297 1676h-399l-295 -1676h-205l297 1676h-203z" />
    <glyph glyph-name="summation" unicode="&#x2211;" horiz-adv-x="1155" 
d="M246 1434h940l-31 -168h-709l363 -545l-545 -553h719l-31 -168h-960l26 158l570 567l-367 551z" />
    <glyph glyph-name="minus" unicode="&#x2212;" horiz-adv-x="1372" 
d="M1219 567h-1045l25 148h1046z" />
    <glyph glyph-name="uni2215" unicode="&#x2215;" horiz-adv-x="1185" 
d="M150 -37h-216l1180 1534h215z" />
    <glyph glyph-name="uni2219" unicode="&#x2219;" horiz-adv-x="749" 
d="M342 217q-119 0 -195.5 79t-76.5 196q0 138 104.5 238.5t237.5 100.5q119 0 196.5 -78t77.5 -196q0 -138 -104.5 -239t-239.5 -101z" />
    <glyph glyph-name="radical" unicode="&#x221a;" horiz-adv-x="1196" 
d="M1296 1767h418l-31 -168h-256l-735 -1599h-213l-129 856h-215l27 168h364l97 -733z" />
    <glyph glyph-name="infinity" unicode="&#x221e;" horiz-adv-x="1722" 
d="M1327 881q146 0 238 -89.5t92 -230.5q0 -112 -60.5 -205.5t-161.5 -146.5t-218 -53q-68 0 -125 18t-101.5 53t-77 72.5t-67.5 89.5q-108 -110 -211 -171.5t-229 -61.5q-150 0 -245 88t-95 227q0 169 131.5 289.5t312.5 120.5q68 0 126 -18.5t104 -53.5t80 -72.5t69 -89.5
q110 110 213.5 172t224.5 62zM430 319q84 0 161.5 52t172.5 149q-30 46 -53.5 76.5t-56 60.5t-71 45t-83.5 15q-105 0 -177.5 -70t-72.5 -162q0 -76 51 -121t129 -45zM1225 319q99 0 174.5 70.5t75.5 165.5q0 72 -49.5 117t-127.5 45q-84 0 -160.5 -51t-168.5 -148
q63 -98 119.5 -148.5t136.5 -50.5z" />
    <glyph glyph-name="integral" unicode="&#x222b;" horiz-adv-x="768" 
d="M82 -463q-86 0 -174 39l20 170q77 -41 121 -41q50 0 78 33.5t41 111.5l244 1385q45 250 286 250q77 0 162 -35l-18 -166q-64 33 -111 33q-54 0 -90.5 -38.5t-50.5 -104.5l-240 -1377q-24 -133 -86 -196.5t-182 -63.5z" />
    <glyph glyph-name="approxequal" unicode="&#x2248;" horiz-adv-x="1372" 
d="M336 709h-150q-2 138 91.5 228.5t238.5 90.5q57 0 106 -17t85 -41t70.5 -48t77.5 -41t91 -17q82 0 133 45.5t56 116.5h151q-36 -311 -319 -311q-62 0 -115.5 17t-91 41t-72.5 48t-77 41t-87 17q-86 0 -138.5 -51t-49.5 -119zM309 297h-149q0 139 93 230t236 91
q57 0 106 -17t85.5 -41t71 -47.5t78.5 -40.5t92 -17q81 0 131.5 45t56.5 116h152q-40 -313 -320 -313q-62 0 -115.5 17t-91 41t-72.5 48t-76.5 41t-86.5 17q-87 0 -140 -50.5t-51 -119.5z" />
    <glyph glyph-name="notequal" unicode="&#x2260;" horiz-adv-x="1372" 
d="M1284 938l-31 -170h-389l-129 -264h473l-30 -168h-527l-129 -264h-178l129 264h-340l31 168h393l129 264h-475l29 170h530l145 297h179l-146 -297h336z" />
    <glyph glyph-name="lessequal" unicode="&#x2264;" horiz-adv-x="1372" 
d="M207 926l1157 411l-31 -178l-923 -313l807 -348l-31 -174l-1004 450zM1128 0h-1083l29 168h1083z" />
    <glyph glyph-name="greaterequal" unicode="&#x2265;" horiz-adv-x="1372" 
d="M268 1161l31 176l1010 -411l-25 -152l-1163 -450l31 176l927 348zM1147 0h-1084l29 168h1084z" />
    <glyph glyph-name="uni2460" unicode="&#x2460;" horiz-adv-x="1796" 
d="M1044 1458q304 0 494.5 -187t190.5 -480q0 -179 -74.5 -345.5t-198.5 -289t-295.5 -196t-355.5 -73.5q-202 0 -357.5 86t-240 238.5t-84.5 345.5q0 119 33.5 235t93.5 214.5t146 182.5t187 143t219.5 92.5t241.5 33.5zM811 8q129 0 250.5 41t218.5 114t170.5 169.5
t113.5 214t40 239.5q0 247 -155 399t-411 152q-161 0 -308 -63.5t-251.5 -169.5t-166.5 -249t-62 -296q0 -245 153 -398t408 -153zM584 727l18 121q123 24 235.5 107t166.5 182h122l-163 -920h-123l129 713q-152 -158 -385 -203z" />
    <glyph glyph-name="uni2461" unicode="&#x2461;" horiz-adv-x="1796" 
d="M1044 1458q304 0 494.5 -187t190.5 -480q0 -179 -74.5 -345.5t-198.5 -289t-295.5 -196t-355.5 -73.5q-202 0 -357.5 86t-240 238.5t-84.5 345.5q0 119 33.5 235t93.5 214.5t146 182.5t187 143t219.5 92.5t241.5 33.5zM811 8q129 0 250.5 41t218.5 114t170.5 169.5
t113.5 214t40 239.5q0 247 -155 399t-411 152q-161 0 -308 -63.5t-251.5 -169.5t-166.5 -249t-62 -296q0 -245 153 -398t408 -153zM1315 874q0 -94 -47.5 -179.5t-130.5 -151.5t-179 -116.5t-210 -90.5h497l-20 -109h-725l18 113q103 35 188 70.5t176.5 86.5t154 103.5
t103 121.5t40.5 142q0 84 -47 133.5t-136 49.5q-117 0 -192.5 -82.5t-75.5 -204.5q0 -78 39 -150h-125q-39 86 -39 168q0 161 114.5 272t285.5 111q145 0 228 -78.5t83 -208.5z" />
    <glyph glyph-name="uni2462" unicode="&#x2462;" horiz-adv-x="1796" 
d="M1044 1458q304 0 494.5 -187t190.5 -480q0 -179 -74.5 -345.5t-198.5 -289t-295.5 -196t-355.5 -73.5q-202 0 -357.5 86t-240 238.5t-84.5 345.5q0 119 33.5 235t93.5 214.5t146 182.5t187 143t219.5 92.5t241.5 33.5zM811 8q129 0 250.5 41t218.5 114t170.5 169.5
t113.5 214t40 239.5q0 247 -155 399t-411 152q-161 0 -308 -63.5t-251.5 -169.5t-166.5 -249t-62 -296q0 -245 153 -398t408 -153zM1298 936q0 -78 -48 -134t-130 -87q146 -65 146 -209q0 -89 -58 -157t-150.5 -102t-201.5 -34q-189 0 -281 98.5t-36 253.5h133
q-39 -111 14.5 -175t177.5 -64q113 0 192 52.5t79 135.5q0 68 -54.5 110t-148.5 42h-117l16 102h109q93 0 159 44.5t66 113.5q0 58 -48 91.5t-130 33.5q-109 0 -176 -56t-59 -139h-125q-9 135 98 221t272 86q139 0 220 -63t81 -164z" />
    <glyph glyph-name="uni2463" unicode="&#x2463;" horiz-adv-x="1796" 
d="M1044 1458q304 0 494.5 -187t190.5 -480q0 -179 -74.5 -345.5t-198.5 -289t-295.5 -196t-355.5 -73.5q-202 0 -357.5 86t-240 238.5t-84.5 345.5q0 119 33.5 235t93.5 214.5t146 182.5t187 143t219.5 92.5t241.5 33.5zM811 8q129 0 250.5 41t218.5 114t170.5 169.5
t113.5 214t40 239.5q0 247 -155 399t-411 152q-161 0 -308 -63.5t-251.5 -169.5t-166.5 -249t-62 -296q0 -245 153 -398t408 -153zM1094 1149h139l-103 -582h193l-18 -108h-193l-41 -232h-123l39 232h-536l16 112q194 115 356 263.5t271 314.5zM1008 567l67 377
q-181 -220 -416 -377h349z" />
    </font>
</defs>
</svg>
